<?xml version="1.0" standalone="no"?>
<!DOCTYPE svg PUBLIC "-//W3C//DTD SVG 1.1//EN" "http://www.w3.org/Graphics/SVG/1.1/DTD/svg11.dtd" >
<svg xmlns="http://www.w3.org/2000/svg" xmlns:xlink="http://www.w3.org/1999/xlink" version="1.1">
<metadata>
Created by FontForge 20170731 at Mon Apr 20 19:07:47 2015
 By Aleksey,,,
Copyright 2014 Pria Ravichandran (pria.ravichandran@gmail.com)
</metadata>
<defs>
<font id="Palanquin-Thin" horiz-adv-x="302" >
  <font-face 
    font-family="Palanquin Thin"
    font-weight="100"
    font-stretch="normal"
    units-per-em="1000"
    panose-1="2 11 0 4 2 2 3 2 2 4"
    ascent="770"
    descent="-230"
    x-height="485"
    cap-height="680"
    bbox="-496 -412 2199 1320"
    underline-thickness="50"
    underline-position="-200"
    unicode-range="U+000D-FB02"
  />
<missing-glyph horiz-adv-x="628" 
d="M528 696v-696h-428v696h428zM149 657v-618h329v618h-329z" />
    <glyph glyph-name=".notdef" horiz-adv-x="628" 
d="M528 696v-696h-428v696h428zM149 657v-618h329v618h-329z" />
    <glyph glyph-name=".null" horiz-adv-x="0" 
 />
    <glyph glyph-name=".null" horiz-adv-x="0" 
 />
    <glyph glyph-name="nonmarkingreturn" horiz-adv-x="333" 
 />
    <glyph glyph-name="CR" unicode="&#xd;" horiz-adv-x="0" 
 />
    <glyph glyph-name="space" unicode=" " horiz-adv-x="230" 
 />
    <glyph glyph-name="exclam" unicode="!" horiz-adv-x="138" 
d="M108 702l-9 -538l-45 21v517h54zM68 0q-17 0 -27.5 11t-10.5 27t10.5 27t27.5 11q16 0 27.5 -11t11.5 -27t-11.5 -27t-27.5 -11z" />
    <glyph glyph-name="quotedbl" unicode="&#x22;" horiz-adv-x="275" 
d="M206 702q18 0 28.5 -14t10.5 -29q0 -46 -22 -83.5t-64 -57.5l-16 25q26 14 43 34.5t18 47.5q-18 0 -27 14t-9 24q0 15 9.5 27t28.5 12zM83 702q18 0 28.5 -14t10.5 -29q0 -46 -22 -83.5t-64 -57.5l-16 25q26 14 43 34.5t18 47.5q-18 0 -27 14t-9 24q0 15 9.5 27t28.5 12z
" />
    <glyph glyph-name="numbersign" unicode="#" horiz-adv-x="497" 
d="M427 502l-33 -131h66l7 -39h-83l-38 -153h114l7 -39h-131l-35 -140l-46 4l34 136h-131l-35 -140l-46 4l34 136h-73l-8 39h91l38 153h-121l-8 39h139l33 131h47l-33 -131h131l33 131h47zM206 332l-38 -153h131l38 153h-131z" />
    <glyph glyph-name="dollar" unicode="$" horiz-adv-x="534" 
d="M193 -111v103q-38 6 -74 16.5t-48 20.5l15 39q26 -13 71 -26t95 -13q86 0 131.5 39.5t45.5 91.5q0 110 -181.5 170t-181.5 205q0 53 33.5 93.5t93.5 57.5v114l40 -3v-103q9 1 19 1.5t20 0.5q7 0 14 -0.5t14 -0.5v105h41v-111q29 -5 54.5 -13.5t44.5 -18.5l-22 -36
q-26 12 -59 23t-85 11q-72 0 -114 -36.5t-42 -88.5q0 -114 181 -175.5t181 -197.5q0 -58 -35.5 -101t-103.5 -59v-108l-41 4v97q-11 -1 -23 -2t-24 -1h-9.5t-10.5 1v-99h-40z" />
    <glyph glyph-name="percent" unicode="%" horiz-adv-x="769" 
d="M553 706l-309 -710l-46 4l308 710zM172 702q68 0 110 -44.5t42 -125.5q0 -78 -45 -123.5t-106 -45.5q-66 0 -109.5 44t-43.5 125q0 78 44 124t108 46zM172 665q-39 0 -72 -34t-33 -99q0 -62 32 -97t74 -35q40 0 72 33.5t32 98.5q0 63 -29.5 98t-75.5 35zM597 338
q68 0 110 -44.5t42 -125.5q0 -78 -45 -123.5t-106 -45.5q-66 0 -109.5 44t-43.5 125q0 78 44 124t108 46zM597 300q-39 0 -72 -33.5t-33 -98.5q0 -62 32 -97t74 -35q40 0 72 33.5t32 98.5q0 63 -29.5 97.5t-75.5 34.5z" />
    <glyph glyph-name="ampersand" unicode="&#x26;" horiz-adv-x="673" 
d="M123 202q0 -80 60 -127t132 -47q51 0 93 25t71 64l-211 193q-16 14 -31.5 29.5t-28.5 31.5q-43 -31 -64 -74.5t-21 -94.5zM633 27l-25 -27l-97 88q-34 -46 -85 -73.5t-114 -27.5q-99 0 -167.5 56.5t-68.5 156.5q0 66 30 119t78 85q-17 26 -27 55t-10 63q0 71 48 122.5
t121 51.5q50 0 89 -12.5t62 -26.5l-20 -35q-25 12 -50.5 22.5t-71.5 10.5q-56 0 -93.5 -39t-37.5 -90q0 -54 28.5 -98t80.5 -93l198 -185q25 43 38.5 93t13.5 96l36 -11q0 -54 -14 -108t-42 -100z" />
    <glyph glyph-name="quotesingle" unicode="'" horiz-adv-x="152" 
d="M83 702q18 0 28.5 -14t10.5 -29q0 -46 -22 -83.5t-64 -57.5l-16 25q26 14 43 34.5t18 47.5q-18 0 -27 14t-9 24q0 15 9.5 27t28.5 12z" />
    <glyph glyph-name="parenleft" unicode="(" horiz-adv-x="239" 
d="M169 -37q-63 81 -91 179t-28 178q0 79 28 177t91 178l40 -18q-44 -47 -76 -155.5t-32 -180.5q0 -73 32 -183.5t76 -156.5z" />
    <glyph glyph-name="parenright" unicode=")" horiz-adv-x="239" 
d="M70 675q61 -80 90 -178t29 -177q0 -80 -29 -178t-90 -179l-40 18q43 46 75.5 156t32.5 182t-32.5 181.5t-75.5 156.5z" />
    <glyph glyph-name="asterisk" unicode="*" horiz-adv-x="313" 
d="M172 654l118 31l13 -32l-116 -29l79 -119l-31 -16l-79 113l-74 -113l-36 16l79 119l-115 29l12 32l115 -31v120h35v-120z" />
    <glyph glyph-name="plus" unicode="+" horiz-adv-x="527" 
d="M497 255h-210v-251l-49 4v247h-200l-8 37h208v242l49 -3v-239h200z" />
    <glyph glyph-name="comma" unicode="," horiz-adv-x="152" 
d="M83 76q18 0 28.5 -14t10.5 -29q0 -46 -22 -83.5t-64 -57.5l-16 25q26 14 43 34.5t18 47.5q-18 0 -27 14t-9 24q0 15 9.5 27t28.5 12z" />
    <glyph glyph-name="hyphen" unicode="-" horiz-adv-x="311" 
d="M281 253h-243l-8 39h243z" />
    <glyph glyph-name="period" unicode="." horiz-adv-x="137" 
d="M68 0q-17 0 -27.5 11t-10.5 27t10.5 27t27.5 11q16 0 27.5 -11t11.5 -27t-11.5 -27t-27.5 -11z" />
    <glyph glyph-name="slash" unicode="/" horiz-adv-x="375" 
d="M365 706l-309 -710l-46 4l308 710z" />
    <glyph glyph-name="zero" unicode="0" horiz-adv-x="558" 
d="M54 288q0 135 62.5 213t163.5 78q102 0 163 -75.5t61 -214.5q0 -136 -61 -219t-163 -83t-164 81t-62 220zM105 291q0 -117 49 -190t126 -73q74 0 123.5 73t49.5 185q0 116 -48 184t-125 68q-76 0 -125.5 -68t-49.5 -179z" />
    <glyph glyph-name="one" unicode="1" horiz-adv-x="367" 
d="M319 0h-256l-9 39h114v469l-93 -63l-18 36l125 85h35v-527h95z" />
    <glyph glyph-name="two" unicode="2" horiz-adv-x="479" 
d="M224 579q96 0 138 -52.5t42 -108.5t-39 -107t-110 -115l-175 -157h347l8 -39h-405v50l205 188q65 59 91 94.5t26 84.5q0 50 -33 86t-97 36q-50 0 -93 -22.5t-44 -23.5l-22 34q1 0 47 26t114 26z" />
    <glyph glyph-name="three" unicode="3" horiz-adv-x="476" 
d="M225 579q93 0 139 -49.5t46 -112.5q0 -54 -33.5 -94t-80.5 -55q56 -13 91 -57t35 -105q0 -77 -57.5 -129.5t-154.5 -52.5q-56 0 -106 16.5t-84 35.5l33 34q35 -21 70 -33t90 -12q60 0 109 39t49 100q0 64 -46.5 103.5t-150.5 39.5h-18l-10 39h34q84 0 131.5 36.5
t47.5 93.5q0 44 -37 83t-100 39q-54 0 -95 -16.5t-65 -32.5l-31 31q39 25 86.5 42t107.5 17z" />
    <glyph glyph-name="four" unicode="4" horiz-adv-x="522" 
d="M484 74h-109v-143h-49v143h-307l-9 51l337 446h28v-458h117zM60 113h266v357z" />
    <glyph glyph-name="five" unicode="5" horiz-adv-x="507" 
d="M88 230l15 336h317l-3 -39h-269l-11 -238q27 20 58 30.5t56 10.5q110 0 159 -59.5t49 -140.5q0 -83 -59 -144.5t-172 -61.5q-55 0 -100 15.5t-80 34.5l24 36q35 -21 74.5 -33t85.5 -12q84 0 129.5 46.5t45.5 118.5t-41.5 115.5t-110.5 43.5q-40 0 -75.5 -18.5
t-55.5 -40.5h-36z" />
    <glyph glyph-name="six" unicode="6" horiz-adv-x="506" 
d="M329 634l24 -33q-90 -27 -159 -108t-89 -191q22 40 69 62.5t93 22.5q96 0 147.5 -60.5t51.5 -136.5q0 -78 -55 -140.5t-143 -62.5q-95 0 -154.5 70t-59.5 203q0 110 76.5 225t198.5 149zM415 185q0 67 -39 114t-109 47q-55 0 -97 -31.5t-64 -66.5q1 -94 40.5 -157
t119.5 -63q71 0 110 50t39 107z" />
    <glyph glyph-name="seven" unicode="7" horiz-adv-x="459" 
d="M53 -49l324 576h-339l-8 39h377l22 -29l-330 -606z" />
    <glyph glyph-name="eight" unicode="8" horiz-adv-x="529" 
d="M265 643q97 0 139.5 -51.5t42.5 -110.5q0 -51 -34 -87.5t-74 -54.5q53 -13 94.5 -60t41.5 -110q0 -72 -52 -127t-158 -55q-107 0 -159 53.5t-52 128.5q0 54 40 105.5t97 64.5q-46 18 -77.5 55t-31.5 87q0 63 43.5 112.5t139.5 49.5zM262 602q-67 0 -98.5 -37t-31.5 -81
q0 -42 34.5 -78.5t98.5 -45.5q63 9 98 46.5t35 77.5q0 46 -33 82t-103 36zM265 316q-80 -10 -120 -53.5t-40 -100.5t46 -95.5t114 -38.5q65 0 112 38t47 96q0 57 -40 100.5t-119 53.5z" />
    <glyph glyph-name="nine" unicode="9" horiz-adv-x="506" 
d="M177 -69l-24 33q90 27 159 108t89 191q-22 -40 -69 -62.5t-93 -22.5q-96 0 -147.5 60.5t-51.5 136.5q0 78 55 140.5t143 62.5q94 0 154 -70t60 -203q0 -110 -76.5 -225t-198.5 -149zM91 380q0 -67 39 -114t109 -47q55 0 97 31.5t64 66.5q-1 94 -40.5 157t-119.5 63
q-71 0 -110 -50t-39 -107z" />
    <glyph glyph-name="colon" unicode=":" horiz-adv-x="137" 
d="M68 365q-17 0 -27.5 11t-10.5 27t10.5 27t27.5 11q16 0 27.5 -11t11.5 -27t-11.5 -27t-27.5 -11zM68 46q-17 0 -27.5 11t-10.5 27t10.5 27t27.5 11q16 0 27.5 -11t11.5 -27t-11.5 -27t-27.5 -11z" />
    <glyph glyph-name="semicolon" unicode=";" horiz-adv-x="152" 
d="M83 365q-17 0 -27.5 11t-10.5 27t10.5 27t27.5 11q16 0 27.5 -11t11.5 -27t-11.5 -27t-27.5 -11zM83 122q18 0 28.5 -14t10.5 -29q0 -46 -22 -83.5t-64 -57.5l-16 25q26 14 43 34.5t18 47.5q-18 0 -27 14t-9 24q0 15 9.5 27t28.5 12z" />
    <glyph glyph-name="less" unicode="&#x3c;" horiz-adv-x="322" 
d="M279 19l-249 212v28l249 211l23 -34l-226 -191l226 -191z" />
    <glyph glyph-name="equal" unicode="=" horiz-adv-x="497" 
d="M467 332h-429l-8 39h430zM467 140h-429l-8 39h430z" />
    <glyph glyph-name="greater" unicode="&#x3e;" horiz-adv-x="322" 
d="M43 470l249 -212v-28l-249 -211l-23 34l226 191l-226 191z" />
    <glyph glyph-name="question" unicode="?" horiz-adv-x="392" 
d="M186 702q89 0 132.5 -46t43.5 -118q0 -57 -45 -113t-128 -93l-10 -195l-33 21l-7 205q78 25 124 71t46 103q0 60 -34 92t-91 32q-54 0 -90.5 -16.5t-75.5 -44.5l-8 41q26 23 71.5 42t104.5 19zM154 0q-17 0 -27.5 11t-10.5 27t10.5 27t27.5 11q16 0 27.5 -11t11.5 -27
t-11.5 -27t-27.5 -11z" />
    <glyph glyph-name="at" unicode="@" horiz-adv-x="776" 
d="M728 304q0 -119 -43.5 -181t-118.5 -62q-27 0 -47 10.5t-33 27.5q-19 -14 -45 -23.5t-49 -9.5q-70 0 -113.5 40.5t-43.5 104.5q0 84 63 138.5t150 54.5h71l16 -20l-24 -201q-1 -4 -1 -7.5v-6.5q0 -34 16 -50.5t42 -16.5q46 0 79 48t33 147q0 114 -68.5 185t-189.5 71
q-140 0 -231.5 -93t-91.5 -246q0 -125 78 -197t190 -72q43 0 87.5 9t75.5 26l13 -38q-42 -22 -90 -30t-97 -8q-123 0 -215.5 82.5t-92.5 226.5q0 155 97.5 268t279.5 113q135 0 219 -82.5t84 -207.5zM286 211q0 -51 29 -79.5t77 -28.5q22 0 43.5 6.5t34.5 15.5
q-4 10 -5.5 21t-1.5 21q0 5 0.5 11t1.5 12l23 177h-45q-63 0 -110 -42t-47 -114z" />
    <glyph glyph-name="A" unicode="A" horiz-adv-x="592" 
d="M291 614l-131 -362h267zM313 680l259 -669l-50 -11l-81 213h-295l-77 -213h-49l247 680h46z" />
    <glyph glyph-name="B" unicode="B" horiz-adv-x="585" 
d="M100 0v680h132q107 0 176 -37.5t69 -139.5q0 -51 -25 -86t-66 -55q62 -19 100.5 -61t38.5 -113q0 -107 -75.5 -147.5t-180.5 -40.5h-169zM244 641h-94v-269h91q78 1 131 29.5t53 100.5q0 78 -49.5 108.5t-131.5 30.5zM292 333h-142v-294h131q80 0 136 34t56 113
q0 76 -49.5 111.5t-131.5 35.5z" />
    <glyph glyph-name="C" unicode="C" horiz-adv-x="569" 
d="M499 621q-31 13 -61 21.5t-84 8.5q-107 -1 -170 -85.5t-63 -228.5q0 -122 54 -215t170 -93q54 0 88.5 9t61.5 21l24 -36q-28 -15 -77 -26t-92 -11q-156 0 -220 105.5t-64 244.5q0 149 71.5 253.5t218.5 104.5q31 0 83 -9t80 -28z" />
    <glyph glyph-name="D" unicode="D" horiz-adv-x="658" 
d="M100 0v680h204q157 0 222.5 -98.5t65.5 -237.5q0 -142 -71 -243t-220 -101h-201zM312 641h-163v-602h153q107 0 173 86.5t66 217.5q0 121 -56.5 209.5t-172.5 88.5z" />
    <glyph glyph-name="E" unicode="E" horiz-adv-x="515" 
d="M100 0v680h347l5 -39h-303v-273h200l5 -39h-205v-290h320l6 -39h-375z" />
    <glyph glyph-name="F" unicode="F" horiz-adv-x="473" 
d="M344 325h-195v-325h-49v680h336l7 -39h-294v-277h189z" />
    <glyph glyph-name="G" unicode="G" horiz-adv-x="630" 
d="M352 342h196v-311q-28 -19 -77.5 -32t-92.5 -13q-155 0 -233.5 100.5t-78.5 249.5q0 156 86 257t232 101q31 0 84.5 -9t81.5 -28l-19 -33q-31 13 -61.5 21t-83.5 8q-126 0 -195.5 -91.5t-69.5 -236.5q0 -137 70 -216.5t186 -79.5q36 0 66.5 7t55.5 16v251h-153z" />
    <glyph glyph-name="H" unicode="H" horiz-adv-x="635" 
d="M486 0v325h-337v-325h-49v680l49 5v-321h337v316h49v-680h-49z" />
    <glyph glyph-name="I" unicode="I" horiz-adv-x="249" 
d="M100 0v680h49v-680h-49z" />
    <glyph glyph-name="J" unicode="J" horiz-adv-x="247" 
d="M108 129v551h49v-558q0 -60 -20.5 -91t-92.5 -53l-24 32q50 19 69 39t19 80z" />
    <glyph glyph-name="K" unicode="K" horiz-adv-x="580" 
d="M519 663l-250 -266l301 -397h-62l-272 362l-87 -93v-269h-49v680h49v-355l336 370z" />
    <glyph glyph-name="L" unicode="L" horiz-adv-x="491" 
d="M471 0h-371v680h49v-641h317z" />
    <glyph glyph-name="M" unicode="M" horiz-adv-x="723" 
d="M353 245l-204 316v-561h-49v680h22l239 -362l235 362h27v-680h-49v566l-201 -317z" />
    <glyph glyph-name="N" unicode="N" horiz-adv-x="658" 
d="M100 0v680h28l347 -510l34 -59v569h49v-680h-27l-368 545l-14 29v-574h-49z" />
    <glyph glyph-name="O" unicode="O" horiz-adv-x="699" 
d="M353 696q148 0 214 -106t66 -245q0 -141 -72.5 -250t-213.5 -109q-149 0 -215 106.5t-66 244.5q0 149 74 254t213 105zM121 338q0 -122 54 -216.5t170 -94.5q107 0 170 92.5t63 224.5q0 122 -53.5 216t-170.5 94q-107 0 -170 -92.5t-63 -223.5z" />
    <glyph glyph-name="P" unicode="P" horiz-adv-x="562" 
d="M100 0v680h163q106 0 175.5 -47t69.5 -158q0 -110 -75 -160.5t-181 -50.5h-103v-264h-49zM275 640h-126v-337h115q80 0 137 43t57 128q0 88 -50.5 127t-132.5 39z" />
    <glyph glyph-name="Q" unicode="Q" horiz-adv-x="699" 
d="M353 696q148 0 214 -106t66 -245q0 -75 -20.5 -143.5t-60.5 -118.5l74 -72l-32 -25l-71 66q-34 -31 -78 -48.5t-98 -17.5q-149 0 -215 106.5t-66 244.5q0 149 74 254t213 105zM121 338q0 -122 54 -216.5t170 -94.5q43 0 78.5 15.5t63.5 43.5l-106 100l34 33l101 -100
q30 43 46 101t16 124q0 122 -53.5 216t-170.5 94q-107 0 -170 -92.5t-63 -223.5z" />
    <glyph glyph-name="R" unicode="R" horiz-adv-x="592" 
d="M265 640h-116v-315h105q76 0 140 37t64 122q0 87 -57.5 121.5t-135.5 34.5zM263 680q106 0 175.5 -43.5t69.5 -150.5q0 -69 -34.5 -112.5t-88.5 -64.5l177 -309h-55l-164 296q-22 -5 -45 -7.5t-46 -2.5h-103v-286h-49v680h163z" />
    <glyph glyph-name="S" unicode="S" horiz-adv-x="534" 
d="M86 68q26 -13 71 -26t95 -13q86 0 131.5 39.5t45.5 91.5q0 110 -181.5 170t-181.5 205q0 69 55 115t151 46q50 0 94 -12t74 -27l-22 -36q-26 12 -59 23t-85 11q-72 0 -114 -36.5t-42 -88.5q0 -114 181 -175.5t181 -197.5q0 -75 -58 -122.5t-169 -47.5q-43 0 -104 13.5
t-78 28.5z" />
    <glyph glyph-name="T" unicode="T" horiz-adv-x="514" 
d="M494 641h-213v-641h-49v641h-212v39h469z" />
    <glyph glyph-name="U" unicode="U" horiz-adv-x="650" 
d="M139 236q0 -87 50 -147t136 -60q89 0 137.5 60t48.5 147v444h49v-441q0 -109 -59.5 -180t-175.5 -71q-115 0 -175 71t-60 180v441h49v-444z" />
    <glyph glyph-name="V" unicode="V" horiz-adv-x="592" 
d="M279 0l-259 669l50 11l231 -614l222 614h49l-247 -680h-46z" />
    <glyph glyph-name="W" unicode="W" horiz-adv-x="950" 
d="M669 0l-196 596l-188 -596h-46l-219 669l50 11l191 -609l190 609h49l191 -609l190 609h49l-215 -680h-46z" />
    <glyph glyph-name="X" unicode="X" horiz-adv-x="583" 
d="M20 0l243 347l-222 322l55 11l205 -301l208 301h54l-235 -343l235 -337h-59l-213 311l-219 -321z" />
    <glyph glyph-name="Y" unicode="Y" horiz-adv-x="536" 
d="M241 0v269l-231 400l55 11l200 -359l204 359h57l-236 -406v-274h-49z" />
    <glyph glyph-name="Z" unicode="Z" horiz-adv-x="519" 
d="M474 0h-438l-6 50l413 591h-376l-10 39h427l5 -49l-410 -592h390z" />
    <glyph glyph-name="bracketleft" unicode="[" horiz-adv-x="265" 
d="M100 696h155l-8 -39h-98v-706h98l8 -39h-155v784z" />
    <glyph glyph-name="backslash" unicode="\" horiz-adv-x="375" 
d="M318 -4l-308 710l47 4l308 -710z" />
    <glyph glyph-name="bracketright" unicode="]" horiz-adv-x="265" 
d="M10 696h155v-784h-155l8 39h98v706h-98z" />
    <glyph glyph-name="asciicircum" unicode="^" horiz-adv-x="427" 
d="M68 143h-48l172 247h43l172 -247h-48l-145 205z" />
    <glyph glyph-name="underscore" unicode="_" horiz-adv-x="429" 
d="M399 0h-361l-8 39h361z" />
    <glyph glyph-name="grave" unicode="`" horiz-adv-x="142" 
d="M10 742h61l61 -153h-37z" />
    <glyph glyph-name="a" unicode="a" horiz-adv-x="481" 
d="M103 136q0 -45 31 -76.5t85 -31.5q47 0 82.5 23.5t58.5 57.5v135h-131q-66 0 -96 -31.5t-30 -76.5zM86 456q28 19 76.5 30.5t78.5 11.5q83 0 125.5 -43.5t42.5 -114.5v-340h-28l-18 52q-25 -28 -63.5 -46.5t-84.5 -18.5q-82 0 -122.5 43t-40.5 106q0 69 48.5 107
t124.5 38h135v60q0 50 -28.5 83t-87.5 33q-49 0 -79 -10t-60 -24z" />
    <glyph glyph-name="b" unicode="b" horiz-adv-x="520" 
d="M80 0v696l49 10v-262q30 23 65.5 38.5t69.5 15.5q107 0 157.5 -72.5t50.5 -183.5t-50.5 -183t-157.5 -72q-35 0 -72.5 15.5t-68.5 40.5l-15 -43h-28zM129 86q31 -29 69 -43.5t68 -14.5q82 0 118.5 62.5t36.5 150.5q0 89 -36.5 152.5t-118.5 63.5q-30 0 -68 -15t-69 -44
v-312z" />
    <glyph glyph-name="c" unicode="c" horiz-adv-x="449" 
d="M396 28q-30 -19 -69 -30t-70 -11q-107 0 -158 72.5t-51 185.5q0 109 54.5 181t161.5 72q29 0 68.5 -11.5t68.5 -30.5l-20 -33q-25 12 -49 23t-70 11q-80 0 -121.5 -63t-41.5 -148q0 -89 38 -153.5t120 -64.5q50 0 71.5 10.5t47.5 23.5z" />
    <glyph glyph-name="d" unicode="d" horiz-adv-x="520" 
d="M391 399q-31 29 -69 43.5t-68 14.5q-82 0 -118.5 -62.5t-36.5 -150.5q0 -89 36.5 -152.5t118.5 -63.5q30 0 68 15t69 44v312zM440 705v-705h-27l-16 43q-31 -25 -68.5 -40.5t-72.5 -15.5q-106 0 -157 71.5t-51 182.5q0 112 51 184.5t157 72.5q33 0 69.5 -15.5t65.5 -38.5
v252z" />
    <glyph glyph-name="e" unicode="e" horiz-adv-x="496" 
d="M448 242h-349q1 -87 41 -150.5t130 -63.5q53 0 85.5 10.5t57.5 23.5l20 -37q-30 -19 -78 -28.5t-77 -9.5q-119 0 -174.5 72.5t-55.5 185.5q0 109 52.5 181t159.5 72q84 0 136 -72.5t52 -183.5zM396 279q-7 71 -39 124.5t-104 53.5t-108.5 -53.5t-43.5 -124.5h295z" />
    <glyph glyph-name="f" unicode="f" horiz-adv-x="272" 
d="M28 470h73v93q0 63 25.5 101t79.5 38q20 0 38 -4.5t28 -8.5l-12 -37q-6 3 -18.5 6t-22.5 3q-38 0 -53.5 -23t-15.5 -59v-109h88l21 -37h-109v-433h-49v433h-73v37z" />
    <glyph glyph-name="g" unicode="g" horiz-adv-x="520" 
d="M391 399q-31 29 -69 43.5t-68 14.5q-82 0 -118.5 -62.5t-36.5 -150.5q0 -89 36.5 -152.5t118.5 -63.5q30 0 68 15t69 44v312zM440 -53q0 -72 -43.5 -120t-138.5 -48q-29 0 -78 11t-77 30l19 35q34 -15 61 -25t73 -10q61 0 98 28.5t37 88.5v103q-29 -24 -65.5 -38.5
t-69.5 -14.5q-106 0 -157 71.5t-51 182.5q0 112 51 184.5t157 72.5q35 0 72.5 -16.5t67.5 -41.5l17 45h27v-538z" />
    <glyph glyph-name="h" unicode="h" horiz-adv-x="516" 
d="M80 0v696l49 10v-295q31 35 78.5 61t92.5 26q78 0 111 -45.5t33 -115.5v-336h-49v336q0 50 -24.5 84.5t-77.5 35.5q-32 0 -81 -24.5t-83 -67.5v-365h-49z" />
    <glyph glyph-name="i" unicode="i" horiz-adv-x="217" 
d="M108 600q-17 0 -27.5 11t-10.5 27t10.5 27t27.5 11q16 0 27.5 -11t11.5 -27t-11.5 -27t-27.5 -11zM84 0v485h49v-485h-49z" />
    <glyph glyph-name="j" unicode="j" horiz-adv-x="217" 
d="M108 600q-17 0 -27.5 11t-10.5 27t10.5 27t27.5 11q16 0 27.5 -11t11.5 -27t-11.5 -27t-27.5 -11zM84 -54v539h49v-547q0 -63 -28 -98.5t-100 -58.5l-18 36q50 19 73.5 45.5t23.5 83.5z" />
    <glyph glyph-name="k" unicode="k" horiz-adv-x="453" 
d="M80 0v696l49 10v-442l225 234l37 -31l-155 -154l213 -313h-59l-187 280l-74 -74v-206h-49z" />
    <glyph glyph-name="l" unicode="l" horiz-adv-x="209" 
d="M80 0v696l49 10v-706h-49z" />
    <glyph glyph-name="m" unicode="m" horiz-adv-x="793" 
d="M80 0v485h28l20 -59q31 30 73.5 51t82.5 21q53 0 82 -22t45 -59q31 33 77 57t89 24q79 0 111.5 -45.5t32.5 -115.5v-337h-49v337q0 50 -25 84.5t-77 35.5q-34 0 -72.5 -21t-72.5 -58q1 -9 1.5 -15t0.5 -14v-349h-49v337q0 50 -24 84.5t-76 35.5q-35 0 -75 -21.5
t-74 -61.5v-374h-49z" />
    <glyph glyph-name="n" unicode="n" horiz-adv-x="516" 
d="M80 0v485h28l20 -76q31 36 79 62.5t93 26.5q78 0 111 -45.5t33 -115.5v-337h-49v337q0 50 -24.5 84.5t-77.5 35.5q-32 0 -81 -25t-83 -68v-364h-49z" />
    <glyph glyph-name="o" unicode="o" horiz-adv-x="497" 
d="M241 -13q-105 0 -149 74t-44 184q1 107 50 180t153 73q107 0 152.5 -73.5t45.5 -185.5q0 -110 -51.5 -181t-156.5 -71zM398 239q0 87 -31.5 153.5t-113.5 66.5q-80 0 -117 -64t-37 -149q0 -89 31 -154.5t112 -65.5t118.5 63t37.5 150z" />
    <glyph glyph-name="p" unicode="p" horiz-adv-x="520" 
d="M129 86q31 -29 69 -43.5t68 -14.5q82 0 118.5 62.5t36.5 150.5q0 89 -36.5 152.5t-118.5 63.5q-30 0 -68 -15t-69 -44v-312zM80 -219v704h28l15 -45q31 24 68.5 41t72.5 17q107 0 157.5 -72.5t50.5 -183.5t-50.5 -183t-157.5 -72q-34 0 -69.5 14.5t-65.5 38.5v-248z" />
    <glyph glyph-name="q" unicode="q" horiz-adv-x="520" 
d="M440 485v-693l-49 -11v259q-29 -24 -65.5 -38.5t-69.5 -14.5q-106 0 -157 71.5t-51 182.5q0 112 51 184.5t157 72.5q35 0 72.5 -17t68.5 -41l16 45h27zM391 399q-31 29 -69 43.5t-68 14.5q-82 0 -118.5 -62.5t-36.5 -150.5q0 -89 36.5 -152.5t118.5 -63.5q30 0 68 15
t69 44v312z" />
    <glyph glyph-name="r" unicode="r" horiz-adv-x="310" 
d="M80 0v485h28l18 -67q26 22 68.5 44.5t80.5 22.5l17 -38q-46 0 -90.5 -24.5t-72.5 -55.5v-367h-49z" />
    <glyph glyph-name="s" unicode="s" horiz-adv-x="428" 
d="M74 66q26 -13 59.5 -25.5t71.5 -12.5q60 0 94 25t34 66q0 35 -37 62t-91 48q-56 22 -98.5 55t-42.5 80q0 57 42.5 95.5t124.5 38.5q31 0 71.5 -11t65.5 -29l-20 -35q-20 10 -49.5 22t-74.5 12q-51 0 -82 -27t-31 -62q0 -34 36 -58t86 -44q59 -24 103 -58t44 -85
q0 -64 -42 -100t-135 -36q-30 0 -74.5 9.5t-72.5 28.5z" />
    <glyph glyph-name="t" unicode="t" horiz-adv-x="288" 
d="M248 433h-109v-310q0 -36 15.5 -65.5t52.5 -29.5q11 0 23.5 3.5t17.5 5.5l12 -38q-10 -2 -27.5 -7t-38.5 -5q-47 0 -75.5 33t-28.5 96v317h-72v37h72v131l49 22v-153h88z" />
    <glyph glyph-name="u" unicode="u" horiz-adv-x="496" 
d="M416 485v-485h-29l-19 55q-31 -28 -71.5 -47.5t-79.5 -19.5q-80 0 -112.5 45t-32.5 117v335h49v-338q0 -49 25 -83.5t76 -34.5q28 0 69 18.5t76 51.5v386h49z" />
    <glyph glyph-name="v" unicode="v" horiz-adv-x="436" 
d="M199 0l-189 475l52 10l160 -429l154 429h50l-180 -485h-47z" />
    <glyph glyph-name="w" unicode="w" horiz-adv-x="728" 
d="M507 0l-146 409l-135 -409h-47l-169 475l52 10l139 -421l143 421h42l146 -421l136 421h50l-164 -485h-47z" />
    <glyph glyph-name="x" unicode="x" horiz-adv-x="445" 
d="M10 0l179 244l-165 231l49 10l154 -218l154 218h54l-182 -253l169 -232h-55l-153 207l-148 -207h-56z" />
    <glyph glyph-name="y" unicode="y" horiz-adv-x="436" 
d="M199 0l-189 475l52 10l160 -429l154 429h50l-219 -597q-15 -41 -50 -69t-83 -38l-5 38q38 13 62 31t37 52z" />
    <glyph glyph-name="z" unicode="z" horiz-adv-x="438" 
d="M408 453l-319 -416h303l10 -37h-362l-8 31l316 417h-271l-16 37h344z" />
    <glyph glyph-name="braceleft" unicode="{" horiz-adv-x="265" 
d="M129 307q25 -12 44.5 -40t19.5 -72q0 -26 -19 -70t-19 -71q0 -21 17.5 -40.5t54.5 -19.5h19l9 -39h-26q-63 0 -93.5 28.5t-30.5 76.5q0 31 18 72t18 72q0 37 -24 60.5t-54 23.5h-33v38h33q30 0 54 23.5t24 60.5q0 31 -18 72t-18 72q0 48 30.5 76.5t93.5 28.5h26l-9 -39
h-19q-37 0 -54.5 -19.5t-17.5 -40.5q0 -27 19 -71t19 -70q0 -44 -19.5 -72t-44.5 -40z" />
    <glyph glyph-name="bar" unicode="|" horiz-adv-x="249" 
d="M149 706v-710l-49 4v710z" />
    <glyph glyph-name="braceright" unicode="}" horiz-adv-x="265" 
d="M136 307q-25 12 -44.5 40t-19.5 72q0 26 19 70t19 71q0 21 -17.5 40.5t-54.5 19.5h-19l-9 39h26q63 0 93.5 -28.5t30.5 -76.5q0 -31 -18 -72t-18 -72q0 -37 24 -60.5t54 -23.5h33v-38h-33q-30 0 -54 -23.5t-24 -60.5q0 -31 18 -72t18 -72q0 -48 -30.5 -76.5t-93.5 -28.5
h-26l9 39h19q37 0 54.5 19.5t17.5 40.5q0 27 -19 71t-19 70q0 44 19.5 72t44.5 40z" />
    <glyph glyph-name="asciitilde" unicode="~" horiz-adv-x="374" 
d="M117 295q42 0 78 -24t62 -24q19 0 33 11.5t14 30.5h40q0 -35 -23.5 -57.5t-62.5 -22.5q-34 0 -70 24t-71 24q-19 0 -33 -11.5t-14 -30.5h-40q0 35 23.5 57.5t63.5 22.5z" />
    <glyph glyph-name="uni00A0" unicode="&#xa0;" horiz-adv-x="230" 
 />
    <glyph glyph-name="exclamdown" unicode="&#xa1;" horiz-adv-x="138" 
d="M70 702q17 0 27.5 -11t10.5 -27t-10.5 -27t-27.5 -11q-16 0 -27.5 11t-11.5 27t11.5 27t27.5 11zM30 0l9 538l45 -21v-517h-54z" />
    <glyph glyph-name="cent" unicode="&#xa2;" horiz-adv-x="449" 
d="M284 605v-108q28 -3 60 -14t57 -27l-20 -33q-25 12 -49 23t-70 11q-80 0 -121.5 -63t-41.5 -148q0 -89 38 -153.5t120 -64.5q50 0 71.5 10.5t47.5 23.5l20 -34q-24 -15 -54 -25t-58 -14v-100h-44v99q-99 6 -145.5 77.5t-46.5 179.5q0 102 48.5 172.5t143.5 78.5v109h44z
" />
    <glyph glyph-name="sterling" unicode="&#xa3;" horiz-adv-x="436" 
d="M182 561v-190h140l22 -37h-162v-191q0 -34 -6 -59.5t-28 -44.5h262l6 -39h-346l-2 39q36 1 50.5 24t14.5 59v212h-71l-2 37h73v174q0 63 25.5 101t79.5 38q20 0 38 -4.5t28 -8.5l-12 -37q-6 3 -18.5 6t-22.5 3q-38 0 -53.5 -23t-15.5 -59z" />
    <glyph glyph-name="currency" unicode="&#xa4;" horiz-adv-x="661" 
d="M59 537l106 -103q32 30 75.5 47t94.5 17q50 0 91 -17t71 -46l105 102l29 -32l-105 -104q23 -34 35.5 -75.5t12.5 -86.5q0 -43 -13 -83t-38 -72l108 -106l-29 -32l-109 105q-31 -30 -74 -47t-94 -17q-49 0 -89.5 16t-71.5 45l-105 -102l-29 32l105 104q-23 33 -35.5 74.5
t-12.5 89.5q0 44 12.5 83.5t36.5 71.5l-106 104zM523 239q0 87 -49 152.5t-139 65.5q-87 0 -142 -63t-55 -148q0 -94 53 -156t134 -62q87 0 142.5 62t55.5 149z" />
    <glyph glyph-name="yen" unicode="&#xa5;" horiz-adv-x="556" 
d="M251 0v90h-171l-5 39h176v130h-171l-5 39h157l-222 371l55 11l210 -360l214 360h57l-230 -382h160l5 -39h-181v-130h176l5 -39h-181v-90h-49z" />
    <glyph glyph-name="brokenbar" unicode="&#xa6;" horiz-adv-x="249" 
d="M149 706v-300l-49 4v300zM149 288v-292l-49 4v292z" />
    <glyph glyph-name="section" unicode="&#xa7;" horiz-adv-x="600" 
d="M169 520q-25 -17 -38 -42t-13 -54q0 -91 126.5 -144.5t196.5 -133.5q26 19 40 44.5t14 53.5q0 89 -128.5 140.5t-197.5 135.5zM86 -38q26 -13 71 -26t95 -13q86 0 131.5 39.5t45.5 91.5q0 110 -181.5 170t-181.5 205q0 41 20.5 75t57.5 56q-6 13 -9 28t-3 31q0 69 55 115
t151 46q50 0 94 -12t74 -27l-22 -36q-26 12 -59 23t-85 11q-72 0 -114 -36.5t-42 -88.5q0 -114 181 -175.5t181 -197.5q0 -43 -19.5 -78.5t-58.5 -57.5q6 -13 9 -26.5t3 -27.5q0 -75 -58 -122.5t-169 -47.5q-43 0 -104 13.5t-78 28.5z" />
    <glyph glyph-name="dieresis" unicode="&#xa8;" horiz-adv-x="253" 
d="M206 618q-17 0 -27 10.5t-10 26.5t10 26t27 10q15 0 26 -10t11 -26t-11 -26.5t-26 -10.5zM47 618q-17 0 -27 10.5t-10 26.5t10 26t27 10q15 0 26 -10t11 -26t-11 -26.5t-26 -10.5z" />
    <glyph glyph-name="copyright" unicode="&#xa9;" horiz-adv-x="847" 
d="M777 336q0 -148 -97 -248t-257 -100q-166 0 -259.5 100t-93.5 248q0 149 96 249.5t257 100.5q160 0 257 -100.5t97 -249.5zM117 337q0 -131 83 -221.5t223 -90.5t223.5 90.5t83.5 221.5t-83.5 221t-223.5 90t-223 -90t-83 -221zM436 120q-84 0 -145 56t-61 165t61 165
t145 56q29 0 67 -11.5t60 -30.5l-20 -31q-20 13 -48 23.5t-61 10.5q-67 0 -111 -48.5t-44 -133.5t44 -133.5t111 -48.5q33 0 61 10.5t48 23.5l20 -31q-22 -19 -60 -30.5t-67 -11.5z" />
    <glyph glyph-name="ordfeminine" unicode="&#xaa;" horiz-adv-x="344" 
d="M87 466q0 -25 19 -47t51 -22q28 0 51.5 14t39.5 36v86h-77q-43 0 -63.5 -19.5t-20.5 -47.5zM64 673q19 13 51 21t52 8q64 0 95.5 -37.5t31.5 -84.5v-208h-32l-11 36q-17 -20 -42.5 -32.5t-51.5 -12.5q-54 0 -84.5 30t-30.5 73q0 46 34.5 72t85.5 26h86v23q0 34 -20 55
t-60 21q-34 0 -54 -7.5t-38 -14.5z" />
    <glyph glyph-name="guillemotleft" unicode="&#xab;" horiz-adv-x="363" 
d="M182 261l140 145l21 -31l-123 -130l123 -130l-21 -31l-140 145v32zM30 261l140 145l21 -31l-122 -130l122 -130l-21 -31l-140 145v32z" />
    <glyph glyph-name="logicalnot" unicode="&#xac;" horiz-adv-x="505" 
d="M475 356v-244l-49 5v250h-408l-8 39h457z" />
    <glyph glyph-name="softhyphen" unicode="&#xad;" horiz-adv-x="120" 
 />
    <glyph glyph-name="registered" unicode="&#xae;" horiz-adv-x="735" 
d="M685 487q0 -131 -88.5 -220t-228.5 -89t-229 89t-89 220q0 132 87.5 221.5t230.5 89.5q140 0 228.5 -89.5t88.5 -221.5zM98 488q0 -114 73 -193t197 -80q122 1 195 80t73 193q0 116 -73 194t-195 78q-124 0 -197 -78t-73 -194zM347 647h-40v-153h35q42 0 73.5 15.5
t31.5 61.5q0 49 -28.5 62.5t-71.5 13.5zM468 304l-90 159q-7 0 -14.5 -0.5t-14.5 -0.5h-42v-158h-40v376h87q59 0 97.5 -24.5t38.5 -83.5q0 -38 -22.5 -64.5t-50.5 -38.5l98 -165h-47z" />
    <glyph glyph-name="macron" unicode="&#xaf;" horiz-adv-x="261" 
d="M10 677h241v-37h-241v37z" />
    <glyph glyph-name="degree" unicode="&#xb0;" horiz-adv-x="253" 
d="M126 702q46 0 76.5 -30t30.5 -73q0 -45 -30.5 -73t-76.5 -28t-76 28t-30 73q0 43 30 73t76 30zM130 529q33 0 48.5 23t15.5 48t-18.5 47.5t-49.5 22.5t-48.5 -22.5t-17.5 -47.5t19 -48t51 -23z" />
    <glyph glyph-name="plusminus" unicode="&#xb1;" horiz-adv-x="492" 
d="M455 308h-189v-200l-49 5v195h-179l-8 37h187v189l49 -3v-186h181zM462 0h-424l-8 37h424z" />
    <glyph glyph-name="twosuperior" unicode="&#xb2;" horiz-adv-x="371" 
d="M177 771q70 0 103 -38t33 -80t-23.5 -80.5t-77.5 -87.5l-131 -116h240l6 -33h-297v37l156 142q49 45 65.5 77t16.5 55q0 28 -21 58.5t-72 30.5q-38 0 -70.5 -16.5t-33.5 -17.5l-17 31q1 0 36.5 19t86.5 19z" />
    <glyph glyph-name="threesuperior" unicode="&#xb3;" horiz-adv-x="383" 
d="M175 771q75 0 110 -35.5t35 -84.5q0 -41 -23 -71.5t-57 -41.5q43 -10 66 -42.5t23 -79.5q0 -58 -43.5 -98t-122.5 -40q-42 0 -79.5 12.5t-63.5 27.5l24 32q26 -16 53 -24.5t70 -8.5q45 0 81 26t36 72q0 49 -29 76.5t-107 27.5h-25l-7 33h37q62 0 91.5 27.5t29.5 70.5
q0 34 -27 59.5t-73 25.5q-43 0 -73.5 -13t-49.5 -25l-22 30q30 19 65 31.5t81 12.5z" />
    <glyph glyph-name="acute" unicode="&#xb4;" horiz-adv-x="142" 
d="M70 742h62l-86 -153h-36z" />
    <glyph glyph-name="mu" unicode="&#xb5;" horiz-adv-x="504" 
d="M424 485v-485h-29l-19 55q-31 -28 -71.5 -47.5t-79.5 -19.5q-31 0 -55.5 7.5t-40.5 20.5v-224l-49 -11v704h49v-338q0 -49 25 -83.5t76 -34.5q28 0 69 16.5t76 49.5v390h49z" />
    <glyph glyph-name="paragraph" unicode="&#xb6;" horiz-adv-x="812" 
d="M348 0v264h-38q-106 0 -181 53.5t-75 157.5t69 154.5t176 50.5h483v-39h-112v-641h-49v641h-224v-641h-49z" />
    <glyph glyph-name="periodcentered" unicode="&#xb7;" horiz-adv-x="137" 
d="M68 224q-17 0 -27.5 11t-10.5 27t10.5 27t27.5 11q16 0 27.5 -11t11.5 -27t-11.5 -27t-27.5 -11z" />
    <glyph glyph-name="cedilla" unicode="&#xb8;" horiz-adv-x="206" 
d="M89 13h41l-25 -64q45 -8 68 -33.5t23 -51.5q0 -38 -30 -61.5t-79 -23.5q-18 0 -41 5.5t-36 13.5l15 31q9 -4 26 -9t33 -5q31 0 50.5 14t19.5 33q0 21 -25.5 41t-73.5 20z" />
    <glyph glyph-name="onesuperior" unicode="&#xb9;" horiz-adv-x="297" 
d="M249 336h-195v33h79v343l-54 -37l-23 25l96 65h24v-396h66z" />
    <glyph glyph-name="ordmasculine" unicode="&#xba;" horiz-adv-x="344" 
d="M171 702q60 0 106.5 -44.5t46.5 -125.5q0 -78 -45.5 -123.5t-106.5 -45.5q-60 0 -106 44t-46 125q0 78 46 124t105 46zM171 667q-39 0 -72.5 -35t-33.5 -100q0 -62 32.5 -97.5t74.5 -35.5q40 0 73.5 34t33.5 99q0 63 -31 99t-77 36z" />
    <glyph glyph-name="guillemotright" unicode="&#xbb;" horiz-adv-x="363" 
d="M181 229l-140 -145l-21 31l123 130l-123 130l21 31l140 -145v-32zM333 229l-140 -145l-21 31l122 130l-122 130l21 31l140 -145v-32z" />
    <glyph glyph-name="onequarter" unicode="&#xbc;" horiz-adv-x="720" 
d="M249 336h-195v33h79v343l-54 -37l-23 25l96 65h24v-396h66zM485 498l-290 -502l-45 4l290 501zM686 -65h-81v-98h-44v98h-233l-4 34l253 352h28v-352h85zM371 -31h190v269z" />
    <glyph glyph-name="onehalf" unicode="&#xbd;" horiz-adv-x="782" 
d="M249 336h-195v33h79v343l-54 -37l-23 25l96 65h24v-396h66zM485 498l-290 -502l-45 4l290 501zM588 325q70 0 103 -38t33 -80t-23.5 -80.5t-77.5 -87.5l-131 -116h240l6 -33h-297v37l156 142q49 45 65.5 77t16.5 55q0 28 -21 58.5t-72 30.5q-38 0 -70.5 -16.5
t-33.5 -17.5l-17 31q1 0 36.5 19t86.5 19z" />
    <glyph glyph-name="threequarters" unicode="&#xbe;" horiz-adv-x="803" 
d="M568 498l-290 -502l-45 4l290 501zM175 771q75 0 110 -35.5t35 -84.5q0 -41 -23 -71.5t-57 -41.5q43 -10 66 -42.5t23 -79.5q0 -58 -43.5 -98t-122.5 -40q-42 0 -79.5 12.5t-63.5 27.5l24 32q26 -16 53 -24.5t70 -8.5q45 0 81 26t36 72q0 49 -29 76.5t-107 27.5h-25
l-7 33h37q62 0 91.5 27.5t29.5 70.5q0 34 -27 59.5t-73 25.5q-43 0 -73.5 -13t-49.5 -25l-22 30q30 19 65 31.5t81 12.5zM769 -65h-81v-98h-44v98h-233l-4 34l253 352h28v-352h85zM454 -31h190v269z" />
    <glyph glyph-name="questiondown" unicode="&#xbf;" horiz-adv-x="392" 
d="M238 622q17 0 27.5 -11t10.5 -27t-10.5 -27t-27.5 -11q-16 0 -27.5 11t-11.5 27t11.5 27t27.5 11zM206 -80q-89 0 -132.5 46t-43.5 118q0 57 45 113t128 93l10 195l33 -21l7 -205q-78 -25 -124 -71t-46 -103q0 -60 34 -92t91 -32q54 0 90.5 16.5t75.5 44.5l8 -41
q-26 -23 -71.5 -42t-104.5 -19z" />
    <glyph glyph-name="Agrave" unicode="&#xc0;" horiz-adv-x="592" 
d="M205 892h61l61 -153h-37zM291 614l-131 -362h267zM313 680l259 -669l-50 -11l-81 213h-295l-77 -213h-49l247 680h46z" />
    <glyph glyph-name="Aacute" unicode="&#xc1;" horiz-adv-x="592" 
d="M310 892h62l-86 -153h-36zM291 614l-131 -362h267zM313 680l259 -669l-50 -11l-81 213h-295l-77 -213h-49l247 680h46z" />
    <glyph glyph-name="Acircumflex" unicode="&#xc2;" horiz-adv-x="592" 
d="M205 740h-50l115 153h40l116 -153h-52l-83 118zM291 614l-131 -362h267zM313 680l259 -669l-50 -11l-81 213h-295l-77 -213h-49l247 680h46z" />
    <glyph glyph-name="Atilde" unicode="&#xc3;" horiz-adv-x="592" 
d="M428 849q0 -47 -24.5 -69t-58.5 -22t-60.5 28.5t-51.5 28.5q-22 0 -32.5 -15t-12.5 -38h-39q0 47 24.5 69t58.5 22q42 0 64.5 -28.5t48.5 -28.5q21 0 32 15t13 38h38zM291 614l-131 -362h267zM313 680l259 -669l-50 -11l-81 213h-295l-77 -213h-49l247 680h46z" />
    <glyph glyph-name="Adieresis" unicode="&#xc4;" horiz-adv-x="592" 
d="M370 768q-17 0 -27 10.5t-10 26.5t10 26t27 10q15 0 26 -10t11 -26t-11 -26.5t-26 -10.5zM211 768q-17 0 -27 10.5t-10 26.5t10 26t27 10q15 0 26 -10t11 -26t-11 -26.5t-26 -10.5zM291 614l-131 -362h267zM313 680l259 -669l-50 -11l-81 213h-295l-77 -213h-49l247 680
h46z" />
    <glyph glyph-name="Aring" unicode="&#xc5;" horiz-adv-x="592" 
d="M290 909q36 0 62 -24t26 -60q0 -35 -26 -58t-62 -23t-62.5 23t-26.5 58q0 36 26.5 60t62.5 24zM290 774q22 0 35.5 14.5t13.5 36.5q0 23 -13.5 38t-35.5 15t-36 -15t-14 -38q0 -22 14 -36.5t36 -14.5zM291 614l-131 -362h267zM313 680l259 -669l-50 -11l-81 213h-295
l-77 -213h-49l247 680h46z" />
    <glyph glyph-name="AE" unicode="&#xc6;" horiz-adv-x="849" 
d="M434 213h-244l-130 -213l-50 10l416 670h355l5 -39h-303v-273h200l5 -39h-205v-290h320l6 -39h-375v213zM214 252h220v359z" />
    <glyph glyph-name="Ccedilla" unicode="&#xc7;" horiz-adv-x="569" 
d="M499 621q-31 13 -61 21.5t-84 8.5q-107 -1 -170 -85.5t-63 -228.5q0 -122 54 -215t170 -93q54 0 88.5 9t61.5 21l24 -36q-25 -13 -67.5 -23.5t-82.5 -12.5l-14 -38q45 -8 68 -33.5t23 -51.5q0 -38 -30 -61.5t-79 -23.5q-18 0 -41 5.5t-36 13.5l15 31q9 -4 26 -9t33 -5
q31 0 50.5 14t19.5 33q0 21 -25.5 41t-73.5 20l24 64q-144 7 -203.5 111t-59.5 238q0 149 71.5 253.5t218.5 104.5q31 0 83 -9t80 -28z" />
    <glyph glyph-name="Egrave" unicode="&#xc8;" horiz-adv-x="515" 
d="M179 892h61l61 -153h-37zM100 0v680h347l5 -39h-303v-273h200l5 -39h-205v-290h320l6 -39h-375z" />
    <glyph glyph-name="Eacute" unicode="&#xc9;" horiz-adv-x="515" 
d="M284 892h62l-86 -153h-36zM100 0v680h347l5 -39h-303v-273h200l5 -39h-205v-290h320l6 -39h-375z" />
    <glyph glyph-name="Ecircumflex" unicode="&#xca;" horiz-adv-x="515" 
d="M179 740h-50l115 153h40l116 -153h-52l-83 118zM100 0v680h347l5 -39h-303v-273h200l5 -39h-205v-290h320l6 -39h-375z" />
    <glyph glyph-name="Edieresis" unicode="&#xcb;" horiz-adv-x="515" 
d="M344 768q-17 0 -27 10.5t-10 26.5t10 26t27 10q15 0 26 -10t11 -26t-11 -26.5t-26 -10.5zM185 768q-17 0 -27 10.5t-10 26.5t10 26t27 10q15 0 26 -10t11 -26t-11 -26.5t-26 -10.5zM100 0v680h347l5 -39h-303v-273h200l5 -39h-205v-290h320l6 -39h-375z" />
    <glyph glyph-name="Igrave" unicode="&#xcc;" horiz-adv-x="249" 
d="M33 892h61l61 -153h-37zM100 0v680h49v-680h-49z" />
    <glyph glyph-name="Iacute" unicode="&#xcd;" horiz-adv-x="249" 
d="M161 892h62l-86 -153h-36zM100 0v680h49v-680h-49z" />
    <glyph glyph-name="Icircumflex" unicode="&#xce;" horiz-adv-x="249" 
d="M39 740h-50l115 153h40l116 -153h-52l-83 118zM100 0v680h49v-680h-49z" />
    <glyph glyph-name="Idieresis" unicode="&#xcf;" horiz-adv-x="249" 
d="M204 768q-17 0 -27 10.5t-10 26.5t10 26t27 10q15 0 26 -10t11 -26t-11 -26.5t-26 -10.5zM45 768q-17 0 -27 10.5t-10 26.5t10 26t27 10q15 0 26 -10t11 -26t-11 -26.5t-26 -10.5zM100 0v680h49v-680h-49z" />
    <glyph glyph-name="Eth" unicode="&#xd0;" horiz-adv-x="658" 
d="M100 0v314h-80l-10 39h90v327h204q157 0 222.5 -98.5t65.5 -237.5q0 -142 -71 -243t-220 -101h-201zM258 353l10 -39h-119v-275h153q107 0 173 86.5t66 217.5q0 121 -56.5 209.5t-172.5 88.5h-163v-288h109z" />
    <glyph glyph-name="Ntilde" unicode="&#xd1;" horiz-adv-x="658" 
d="M468 849q0 -47 -24.5 -69t-58.5 -22t-60.5 28.5t-51.5 28.5q-22 0 -32.5 -15t-12.5 -38h-39q0 47 24.5 69t58.5 22q42 0 64.5 -28.5t48.5 -28.5q21 0 32 15t13 38h38zM100 0v680h28l347 -510l34 -59v569h49v-680h-27l-368 545l-14 29v-574h-49z" />
    <glyph glyph-name="Ograve" unicode="&#xd2;" horiz-adv-x="699" 
d="M268 892h61l61 -153h-37zM353 696q148 0 214 -106t66 -245q0 -141 -72.5 -250t-213.5 -109q-149 0 -215 106.5t-66 244.5q0 149 74 254t213 105zM121 338q0 -122 54 -216.5t170 -94.5q107 0 170 92.5t63 224.5q0 122 -53.5 216t-170.5 94q-107 0 -170 -92.5t-63 -223.5z
" />
    <glyph glyph-name="Oacute" unicode="&#xd3;" horiz-adv-x="699" 
d="M373 892h62l-86 -153h-36zM353 696q148 0 214 -106t66 -245q0 -141 -72.5 -250t-213.5 -109q-149 0 -215 106.5t-66 244.5q0 149 74 254t213 105zM121 338q0 -122 54 -216.5t170 -94.5q107 0 170 92.5t63 224.5q0 122 -53.5 216t-170.5 94q-107 0 -170 -92.5t-63 -223.5z
" />
    <glyph glyph-name="Ocircumflex" unicode="&#xd4;" horiz-adv-x="699" 
d="M268 740h-50l115 153h40l116 -153h-52l-83 118zM353 696q148 0 214 -106t66 -245q0 -141 -72.5 -250t-213.5 -109q-149 0 -215 106.5t-66 244.5q0 149 74 254t213 105zM121 338q0 -122 54 -216.5t170 -94.5q107 0 170 92.5t63 224.5q0 122 -53.5 216t-170.5 94
q-107 0 -170 -92.5t-63 -223.5z" />
    <glyph glyph-name="Otilde" unicode="&#xd5;" horiz-adv-x="699" 
d="M491 849q0 -47 -24.5 -69t-58.5 -22t-60.5 28.5t-51.5 28.5q-22 0 -32.5 -15t-12.5 -38h-39q0 47 24.5 69t58.5 22q42 0 64.5 -28.5t48.5 -28.5q21 0 32 15t13 38h38zM353 696q148 0 214 -106t66 -245q0 -141 -72.5 -250t-213.5 -109q-149 0 -215 106.5t-66 244.5
q0 149 74 254t213 105zM121 338q0 -122 54 -216.5t170 -94.5q107 0 170 92.5t63 224.5q0 122 -53.5 216t-170.5 94q-107 0 -170 -92.5t-63 -223.5z" />
    <glyph glyph-name="Odieresis" unicode="&#xd6;" horiz-adv-x="699" 
d="M433 768q-17 0 -27 10.5t-10 26.5t10 26t27 10q15 0 26 -10t11 -26t-11 -26.5t-26 -10.5zM274 768q-17 0 -27 10.5t-10 26.5t10 26t27 10q15 0 26 -10t11 -26t-11 -26.5t-26 -10.5zM353 696q148 0 214 -106t66 -245q0 -141 -72.5 -250t-213.5 -109q-149 0 -215 106.5
t-66 244.5q0 149 74 254t213 105zM121 338q0 -122 54 -216.5t170 -94.5q107 0 170 92.5t63 224.5q0 122 -53.5 216t-170.5 94q-107 0 -170 -92.5t-63 -223.5z" />
    <glyph glyph-name="multiply" unicode="&#xd7;" horiz-adv-x="470" 
d="M30 41l169 206l-167 207l45 10l152 -191l160 191h51l-183 -224l166 -209h-49l-150 182l-149 -182z" />
    <glyph glyph-name="Oslash" unicode="&#xd8;" horiz-adv-x="699" 
d="M353 696q148 0 214 -106t66 -245q0 -141 -72.5 -250t-213.5 -109q-149 0 -215 106.5t-66 244.5q0 149 74 254t213 105zM354 652q-107 0 -170 -91.5t-63 -222.5q0 -81 22.5 -151t71.5 -112l236 554q-21 11 -45 17t-52 6zM256 48q19 -10 41.5 -14.5t47.5 -4.5
q107 0 170 91.5t63 223.5q0 78 -21 146.5t-67 110.5z" />
    <glyph glyph-name="Ugrave" unicode="&#xd9;" horiz-adv-x="650" 
d="M240 892h61l61 -153h-37zM139 236q0 -87 50 -147t136 -60q89 0 137.5 60t48.5 147v444h49v-441q0 -109 -59.5 -180t-175.5 -71q-115 0 -175 71t-60 180v441h49v-444z" />
    <glyph glyph-name="Uacute" unicode="&#xda;" horiz-adv-x="650" 
d="M345 892h62l-86 -153h-36zM139 236q0 -87 50 -147t136 -60q89 0 137.5 60t48.5 147v444h49v-441q0 -109 -59.5 -180t-175.5 -71q-115 0 -175 71t-60 180v441h49v-444z" />
    <glyph glyph-name="Ucircumflex" unicode="&#xdb;" horiz-adv-x="650" 
d="M240 740h-50l115 153h40l116 -153h-52l-83 118zM139 236q0 -87 50 -147t136 -60q89 0 137.5 60t48.5 147v444h49v-441q0 -109 -59.5 -180t-175.5 -71q-115 0 -175 71t-60 180v441h49v-444z" />
    <glyph glyph-name="Udieresis" unicode="&#xdc;" horiz-adv-x="650" 
d="M411 768q-17 0 -27 10.5t-10 26.5t10 26t27 10q15 0 26 -10t11 -26t-11 -26.5t-26 -10.5zM252 768q-17 0 -27 10.5t-10 26.5t10 26t27 10q15 0 26 -10t11 -26t-11 -26.5t-26 -10.5zM139 236q0 -87 50 -147t136 -60q89 0 137.5 60t48.5 147v444h49v-441q0 -109 -59.5 -180
t-175.5 -71q-115 0 -175 71t-60 180v441h49v-444z" />
    <glyph glyph-name="Yacute" unicode="&#xdd;" horiz-adv-x="536" 
d="M286 892h62l-86 -153h-36zM241 0v269l-231 400l55 11l200 -359l204 359h57l-236 -406v-274h-49z" />
    <glyph glyph-name="Thorn" unicode="&#xde;" horiz-adv-x="562" 
d="M149 680v-118h114q106 0 175.5 -47t69.5 -158q0 -110 -75 -160.5t-181 -50.5h-103v-146h-49v680h49zM275 522h-126v-337h115q80 0 137 43t57 128q0 88 -50.5 127t-132.5 39z" />
    <glyph glyph-name="germandbls" unicode="&#xdf;" horiz-adv-x="569" 
d="M90 473q0 97 51.5 152t144.5 55q78 0 133.5 -45t55.5 -132q0 -53 -25.5 -90.5t-70.5 -56.5q54 -15 92 -59t38 -109q0 -107 -75 -147.5t-181 -40.5h-38v39h51q80 0 135.5 34t55.5 113q0 76 -49.5 111.5t-131.5 35.5h-45v39h27q90 0 127.5 33.5t37.5 96.5q0 66 -40 101.5
t-94 35.5q-74 0 -111.5 -49t-37.5 -117v-473h-50v473z" />
    <glyph glyph-name="agrave" unicode="&#xe0;" horiz-adv-x="481" 
d="M158 742h61l61 -153h-37zM103 136q0 -45 31 -76.5t85 -31.5q47 0 82.5 23.5t58.5 57.5v135h-131q-66 0 -96 -31.5t-30 -76.5zM86 456q28 19 76.5 30.5t78.5 11.5q83 0 125.5 -43.5t42.5 -114.5v-340h-28l-18 52q-25 -28 -63.5 -46.5t-84.5 -18.5q-82 0 -122.5 43
t-40.5 106q0 69 48.5 107t124.5 38h135v60q0 50 -28.5 83t-87.5 33q-49 0 -79 -10t-60 -24z" />
    <glyph glyph-name="aacute" unicode="&#xe1;" horiz-adv-x="481" 
d="M263 742h62l-86 -153h-36zM103 136q0 -45 31 -76.5t85 -31.5q47 0 82.5 23.5t58.5 57.5v135h-131q-66 0 -96 -31.5t-30 -76.5zM86 456q28 19 76.5 30.5t78.5 11.5q83 0 125.5 -43.5t42.5 -114.5v-340h-28l-18 52q-25 -28 -63.5 -46.5t-84.5 -18.5q-82 0 -122.5 43
t-40.5 106q0 69 48.5 107t124.5 38h135v60q0 50 -28.5 83t-87.5 33q-49 0 -79 -10t-60 -24z" />
    <glyph glyph-name="acircumflex" unicode="&#xe2;" horiz-adv-x="481" 
d="M158 589h-50l115 153h40l116 -153h-52l-83 118zM103 136q0 -45 31 -76.5t85 -31.5q47 0 82.5 23.5t58.5 57.5v135h-131q-66 0 -96 -31.5t-30 -76.5zM86 456q28 19 76.5 30.5t78.5 11.5q83 0 125.5 -43.5t42.5 -114.5v-340h-28l-18 52q-25 -28 -63.5 -46.5t-84.5 -18.5
q-82 0 -122.5 43t-40.5 106q0 69 48.5 107t124.5 38h135v60q0 50 -28.5 83t-87.5 33q-49 0 -79 -10t-60 -24z" />
    <glyph glyph-name="atilde" unicode="&#xe3;" horiz-adv-x="481" 
d="M381 699q0 -47 -24.5 -69t-58.5 -22t-60.5 28.5t-51.5 28.5q-22 0 -32.5 -15t-12.5 -38h-39q0 47 24.5 69t58.5 22q42 0 64.5 -28.5t48.5 -28.5q21 0 32 15t13 38h38zM103 136q0 -45 31 -76.5t85 -31.5q47 0 82.5 23.5t58.5 57.5v135h-131q-66 0 -96 -31.5t-30 -76.5z
M86 456q28 19 76.5 30.5t78.5 11.5q83 0 125.5 -43.5t42.5 -114.5v-340h-28l-18 52q-25 -28 -63.5 -46.5t-84.5 -18.5q-82 0 -122.5 43t-40.5 106q0 69 48.5 107t124.5 38h135v60q0 50 -28.5 83t-87.5 33q-49 0 -79 -10t-60 -24z" />
    <glyph glyph-name="adieresis" unicode="&#xe4;" horiz-adv-x="481" 
d="M323 618q-17 0 -27 10.5t-10 26.5t10 26t27 10q15 0 26 -10t11 -26t-11 -26.5t-26 -10.5zM164 618q-17 0 -27 10.5t-10 26.5t10 26t27 10q15 0 26 -10t11 -26t-11 -26.5t-26 -10.5zM103 136q0 -45 31 -76.5t85 -31.5q47 0 82.5 23.5t58.5 57.5v135h-131q-66 0 -96 -31.5
t-30 -76.5zM86 456q28 19 76.5 30.5t78.5 11.5q83 0 125.5 -43.5t42.5 -114.5v-340h-28l-18 52q-25 -28 -63.5 -46.5t-84.5 -18.5q-82 0 -122.5 43t-40.5 106q0 69 48.5 107t124.5 38h135v60q0 50 -28.5 83t-87.5 33q-49 0 -79 -10t-60 -24z" />
    <glyph glyph-name="aring" unicode="&#xe5;" horiz-adv-x="481" 
d="M243 759q36 0 62 -24t26 -60q0 -35 -26 -58t-62 -23t-62.5 23t-26.5 58q0 36 26.5 60t62.5 24zM243 624q22 0 35.5 14.5t13.5 36.5q0 23 -13.5 38t-35.5 15t-36 -15t-14 -38q0 -22 14 -36.5t36 -14.5zM103 136q0 -45 31 -76.5t85 -31.5q47 0 82.5 23.5t58.5 57.5v135
h-131q-66 0 -96 -31.5t-30 -76.5zM86 456q28 19 76.5 30.5t78.5 11.5q83 0 125.5 -43.5t42.5 -114.5v-340h-28l-18 52q-25 -28 -63.5 -46.5t-84.5 -18.5q-82 0 -122.5 43t-40.5 106q0 69 48.5 107t124.5 38h135v60q0 50 -28.5 83t-87.5 33q-49 0 -79 -10t-60 -24z" />
    <glyph glyph-name="ae" unicode="&#xe6;" horiz-adv-x="809" 
d="M761 242h-349q1 -87 41 -150.5t130 -63.5q53 0 85.5 10.5t57.5 23.5l20 -37q-30 -19 -75 -28.5t-74 -9.5q-71 0 -120.5 27t-77.5 73q-22 -33 -70 -66.5t-114 -33.5q-82 0 -122.5 43t-40.5 106q0 69 48.5 107t124.5 38h135v60q0 50 -28.5 83t-87.5 33q-49 0 -79 -10
t-60 -24l-19 33q28 19 76.5 30.5t78.5 11.5q63 0 102.5 -25.5t55.5 -69.5q26 44 71 69.5t107 25.5q87 0 135.5 -72.5t48.5 -183.5zM709 279q-7 71 -39 124.5t-104 53.5t-108.5 -53.5t-43.5 -124.5h295zM219 28q60 0 98.5 32t61.5 71q-9 25 -13.5 53.5t-5.5 59.5h-131
q-66 0 -96 -31.5t-30 -76.5t31 -76.5t85 -31.5z" />
    <glyph glyph-name="ccedilla" unicode="&#xe7;" horiz-adv-x="449" 
d="M376 62l20 -34q-29 -18 -66 -29t-68 -12l-15 -38q45 -8 68 -33.5t23 -51.5q0 -38 -30 -61.5t-79 -23.5q-18 0 -41 5.5t-36 13.5l15 31q9 -4 26 -9t33 -5q31 0 50.5 14t19.5 33q0 21 -25.5 41t-73.5 20l25 67q-89 12 -131.5 82t-42.5 173q0 109 54.5 181t161.5 72
q29 0 68.5 -11.5t68.5 -30.5l-20 -33q-25 12 -49 23t-70 11q-80 0 -121.5 -63t-41.5 -148q0 -89 38 -153.5t120 -64.5q50 0 71.5 10.5t47.5 23.5z" />
    <glyph glyph-name="egrave" unicode="&#xe8;" horiz-adv-x="496" 
d="M170 742h61l61 -153h-37zM448 242h-349q1 -87 41 -150.5t130 -63.5q53 0 85.5 10.5t57.5 23.5l20 -37q-30 -19 -78 -28.5t-77 -9.5q-119 0 -174.5 72.5t-55.5 185.5q0 109 52.5 181t159.5 72q84 0 136 -72.5t52 -183.5zM396 279q-7 71 -39 124.5t-104 53.5t-108.5 -53.5
t-43.5 -124.5h295z" />
    <glyph glyph-name="eacute" unicode="&#xe9;" horiz-adv-x="496" 
d="M275 742h62l-86 -153h-36zM448 242h-349q1 -87 41 -150.5t130 -63.5q53 0 85.5 10.5t57.5 23.5l20 -37q-30 -19 -78 -28.5t-77 -9.5q-119 0 -174.5 72.5t-55.5 185.5q0 109 52.5 181t159.5 72q84 0 136 -72.5t52 -183.5zM396 279q-7 71 -39 124.5t-104 53.5t-108.5 -53.5
t-43.5 -124.5h295z" />
    <glyph glyph-name="ecircumflex" unicode="&#xea;" horiz-adv-x="496" 
d="M170 589h-50l115 153h40l116 -153h-52l-83 118zM448 242h-349q1 -87 41 -150.5t130 -63.5q53 0 85.5 10.5t57.5 23.5l20 -37q-30 -19 -78 -28.5t-77 -9.5q-119 0 -174.5 72.5t-55.5 185.5q0 109 52.5 181t159.5 72q84 0 136 -72.5t52 -183.5zM396 279q-7 71 -39 124.5
t-104 53.5t-108.5 -53.5t-43.5 -124.5h295z" />
    <glyph glyph-name="edieresis" unicode="&#xeb;" horiz-adv-x="496" 
d="M335 618q-17 0 -27 10.5t-10 26.5t10 26t27 10q15 0 26 -10t11 -26t-11 -26.5t-26 -10.5zM176 618q-17 0 -27 10.5t-10 26.5t10 26t27 10q15 0 26 -10t11 -26t-11 -26.5t-26 -10.5zM448 242h-349q1 -87 41 -150.5t130 -63.5q53 0 85.5 10.5t57.5 23.5l20 -37
q-30 -19 -78 -28.5t-77 -9.5q-119 0 -174.5 72.5t-55.5 185.5q0 109 52.5 181t159.5 72q84 0 136 -72.5t52 -183.5zM396 279q-7 71 -39 124.5t-104 53.5t-108.5 -53.5t-43.5 -124.5h295z" />
    <glyph glyph-name="igrave" unicode="&#xec;" horiz-adv-x="209" 
d="M9 742h61l61 -153h-37zM80 0v485h49v-485h-49z" />
    <glyph glyph-name="iacute" unicode="&#xed;" horiz-adv-x="209" 
d="M137 742h62l-86 -153h-36zM80 0v485h49v-485h-49z" />
    <glyph glyph-name="icircumflex" unicode="&#xee;" horiz-adv-x="209" 
d="M19 589h-50l115 153h40l116 -153h-52l-83 118zM80 0v485h49v-485h-49z" />
    <glyph glyph-name="idieresis" unicode="&#xef;" horiz-adv-x="209" 
d="M184 618q-17 0 -27 10.5t-10 26.5t10 26t27 10q15 0 26 -10t11 -26t-11 -26.5t-26 -10.5zM25 618q-17 0 -27 10.5t-10 26.5t10 26t27 10q15 0 26 -10t11 -26t-11 -26.5t-26 -10.5zM80 0v485h49v-485h-49z" />
    <glyph glyph-name="eth" unicode="&#xf0;" horiz-adv-x="515" 
d="M96 669l22 29q40 -13 78.5 -33.5t73.5 -47.5l75 67l23 -30l-69 -61q72 -63 117 -149t45 -183q0 -133 -59 -203.5t-156 -70.5q-89 0 -143.5 62.5t-54.5 140.5q0 76 52 136.5t145 60.5q45 0 93.5 -22.5t71.5 -62.5q-7 72 -44 141.5t-97 123.5l-113 -100l-24 29l108 95
q-31 25 -67.5 45t-76.5 33zM408 248q-22 35 -64 66.5t-97 31.5q-70 0 -109 -47t-39 -114q0 -57 39 -107t110 -50q80 0 119.5 63t40.5 157z" />
    <glyph glyph-name="ntilde" unicode="&#xf1;" horiz-adv-x="516" 
d="M398 699q0 -47 -24.5 -69t-58.5 -22t-60.5 28.5t-51.5 28.5q-22 0 -32.5 -15t-12.5 -38h-39q0 47 24.5 69t58.5 22q42 0 64.5 -28.5t48.5 -28.5q21 0 32 15t13 38h38zM80 0v485h28l20 -76q31 36 79 62.5t93 26.5q78 0 111 -45.5t33 -115.5v-337h-49v337q0 50 -24.5 84.5
t-77.5 35.5q-32 0 -81 -25t-83 -68v-364h-49z" />
    <glyph glyph-name="ograve" unicode="&#xf2;" horiz-adv-x="497" 
d="M165 742h61l61 -153h-37zM241 -13q-105 0 -149 74t-44 184q1 107 50 180t153 73q107 0 152.5 -73.5t45.5 -185.5q0 -110 -51.5 -181t-156.5 -71zM398 239q0 87 -31.5 153.5t-113.5 66.5q-80 0 -117 -64t-37 -149q0 -89 31 -154.5t112 -65.5t118.5 63t37.5 150z" />
    <glyph glyph-name="oacute" unicode="&#xf3;" horiz-adv-x="497" 
d="M270 742h62l-86 -153h-36zM241 -13q-105 0 -149 74t-44 184q1 107 50 180t153 73q107 0 152.5 -73.5t45.5 -185.5q0 -110 -51.5 -181t-156.5 -71zM398 239q0 87 -31.5 153.5t-113.5 66.5q-80 0 -117 -64t-37 -149q0 -89 31 -154.5t112 -65.5t118.5 63t37.5 150z" />
    <glyph glyph-name="ocircumflex" unicode="&#xf4;" horiz-adv-x="497" 
d="M165 589h-50l115 153h40l116 -153h-52l-83 118zM241 -13q-105 0 -149 74t-44 184q1 107 50 180t153 73q107 0 152.5 -73.5t45.5 -185.5q0 -110 -51.5 -181t-156.5 -71zM398 239q0 87 -31.5 153.5t-113.5 66.5q-80 0 -117 -64t-37 -149q0 -89 31 -154.5t112 -65.5
t118.5 63t37.5 150z" />
    <glyph glyph-name="otilde" unicode="&#xf5;" horiz-adv-x="497" 
d="M388 699q0 -47 -24.5 -69t-58.5 -22t-60.5 28.5t-51.5 28.5q-22 0 -32.5 -15t-12.5 -38h-39q0 47 24.5 69t58.5 22q42 0 64.5 -28.5t48.5 -28.5q21 0 32 15t13 38h38zM241 -13q-105 0 -149 74t-44 184q1 107 50 180t153 73q107 0 152.5 -73.5t45.5 -185.5
q0 -110 -51.5 -181t-156.5 -71zM398 239q0 87 -31.5 153.5t-113.5 66.5q-80 0 -117 -64t-37 -149q0 -89 31 -154.5t112 -65.5t118.5 63t37.5 150z" />
    <glyph glyph-name="odieresis" unicode="&#xf6;" horiz-adv-x="497" 
d="M340 618q-17 0 -27 10.5t-10 26.5t10 26t27 10q15 0 26 -10t11 -26t-11 -26.5t-26 -10.5zM181 618q-17 0 -27 10.5t-10 26.5t10 26t27 10q15 0 26 -10t11 -26t-11 -26.5t-26 -10.5zM241 -13q-105 0 -149 74t-44 184q1 107 50 180t153 73q107 0 152.5 -73.5t45.5 -185.5
q0 -110 -51.5 -181t-156.5 -71zM398 239q0 87 -31.5 153.5t-113.5 66.5q-80 0 -117 -64t-37 -149q0 -89 31 -154.5t112 -65.5t118.5 63t37.5 150z" />
    <glyph glyph-name="divide" unicode="&#xf7;" horiz-adv-x="497" 
d="M248 377q-17 0 -27.5 11t-10.5 27t10.5 27t27.5 11q16 0 27.5 -11t11.5 -27t-11.5 -27t-27.5 -11zM467 255h-429l-8 37h427zM251 74q-17 0 -27.5 11t-10.5 27t10.5 27t27.5 11q16 0 27.5 -11t11.5 -27t-11.5 -27t-27.5 -11z" />
    <glyph glyph-name="oslash" unicode="&#xf8;" horiz-adv-x="497" 
d="M241 -13q-105 0 -149 74t-44 184q1 107 50 180t153 73q107 0 152.5 -73.5t45.5 -185.5q0 -110 -51.5 -181t-156.5 -71zM329 434q-15 11 -34 17t-42 6q-80 0 -117 -63t-37 -148q0 -52 9.5 -97.5t33.5 -75.5zM242 28q81 0 118.5 62t37.5 149q0 46 -8.5 88t-27.5 73
l-185 -357q13 -7 29.5 -11t35.5 -4z" />
    <glyph glyph-name="ugrave" unicode="&#xf9;" horiz-adv-x="496" 
d="M158 742h61l61 -153h-37zM416 485v-485h-29l-19 55q-31 -28 -71.5 -47.5t-79.5 -19.5q-80 0 -112.5 45t-32.5 117v335h49v-338q0 -49 25 -83.5t76 -34.5q28 0 69 18.5t76 51.5v386h49z" />
    <glyph glyph-name="uacute" unicode="&#xfa;" horiz-adv-x="496" 
d="M263 742h62l-86 -153h-36zM416 485v-485h-29l-19 55q-31 -28 -71.5 -47.5t-79.5 -19.5q-80 0 -112.5 45t-32.5 117v335h49v-338q0 -49 25 -83.5t76 -34.5q28 0 69 18.5t76 51.5v386h49z" />
    <glyph glyph-name="ucircumflex" unicode="&#xfb;" horiz-adv-x="496" 
d="M168 589h-50l115 153h40l116 -153h-52l-83 118zM416 485v-485h-29l-19 55q-31 -28 -71.5 -47.5t-79.5 -19.5q-80 0 -112.5 45t-32.5 117v335h49v-338q0 -49 25 -83.5t76 -34.5q28 0 69 18.5t76 51.5v386h49z" />
    <glyph glyph-name="udieresis" unicode="&#xfc;" horiz-adv-x="496" 
d="M333 618q-17 0 -27 10.5t-10 26.5t10 26t27 10q15 0 26 -10t11 -26t-11 -26.5t-26 -10.5zM174 618q-17 0 -27 10.5t-10 26.5t10 26t27 10q15 0 26 -10t11 -26t-11 -26.5t-26 -10.5zM416 485v-485h-29l-19 55q-31 -28 -71.5 -47.5t-79.5 -19.5q-80 0 -112.5 45t-32.5 117
v335h49v-338q0 -49 25 -83.5t76 -34.5q28 0 69 18.5t76 51.5v386h49z" />
    <glyph glyph-name="yacute" unicode="&#xfd;" horiz-adv-x="436" 
d="M244 742h62l-86 -153h-36zM199 0l-189 475l52 10l160 -429l154 429h50l-219 -597q-15 -41 -50 -69t-83 -38l-5 38q38 13 62 31t37 52z" />
    <glyph glyph-name="thorn" unicode="&#xfe;" horiz-adv-x="520" 
d="M129 86q31 -29 69 -43.5t68 -14.5q82 0 118.5 62.5t36.5 150.5q0 89 -36.5 152.5t-118.5 63.5q-30 0 -68 -15t-69 -44v-312zM80 -219v915l49 10v-261q30 22 65.5 37.5t69.5 15.5q107 0 157.5 -72.5t50.5 -183.5t-50.5 -183t-157.5 -72q-34 0 -69.5 14.5t-65.5 38.5v-248z
" />
    <glyph glyph-name="ydieresis" unicode="&#xff;" horiz-adv-x="436" 
d="M304 618q-17 0 -27 10.5t-10 26.5t10 26t27 10q15 0 26 -10t11 -26t-11 -26.5t-26 -10.5zM145 618q-17 0 -27 10.5t-10 26.5t10 26t27 10q15 0 26 -10t11 -26t-11 -26.5t-26 -10.5zM199 0l-189 475l52 10l160 -429l154 429h50l-219 -597q-15 -41 -50 -69t-83 -38l-5 38
q38 13 62 31t37 52z" />
    <glyph glyph-name="Amacron" unicode="&#x100;" horiz-adv-x="592" 
d="M170 827h241v-37h-241v37zM291 614l-131 -362h267zM313 680l259 -669l-50 -11l-81 213h-295l-77 -213h-49l247 680h46z" />
    <glyph glyph-name="amacron" unicode="&#x101;" horiz-adv-x="481" 
d="M123 677h241v-37h-241v37zM103 136q0 -45 31 -76.5t85 -31.5q47 0 82.5 23.5t58.5 57.5v135h-131q-66 0 -96 -31.5t-30 -76.5zM86 456q28 19 76.5 30.5t78.5 11.5q83 0 125.5 -43.5t42.5 -114.5v-340h-28l-18 52q-25 -28 -63.5 -46.5t-84.5 -18.5q-82 0 -122.5 43
t-40.5 106q0 69 48.5 107t124.5 38h135v60q0 50 -28.5 83t-87.5 33q-49 0 -79 -10t-60 -24z" />
    <glyph glyph-name="Abreve" unicode="&#x102;" horiz-adv-x="592" 
d="M420 881q0 -50 -32.5 -90t-97.5 -40q-63 0 -96.5 40t-33.5 90h41q0 -35 23.5 -63t65.5 -28t65.5 27t23.5 64h41zM291 614l-131 -362h267zM313 680l259 -669l-50 -11l-81 213h-295l-77 -213h-49l247 680h46z" />
    <glyph glyph-name="abreve" unicode="&#x103;" horiz-adv-x="481" 
d="M373 731q0 -50 -32.5 -90t-97.5 -40q-63 0 -96.5 40t-33.5 90h41q0 -35 23.5 -63t65.5 -28t65.5 27t23.5 64h41zM103 136q0 -45 31 -76.5t85 -31.5q47 0 82.5 23.5t58.5 57.5v135h-131q-66 0 -96 -31.5t-30 -76.5zM86 456q28 19 76.5 30.5t78.5 11.5q83 0 125.5 -43.5
t42.5 -114.5v-340h-28l-18 52q-25 -28 -63.5 -46.5t-84.5 -18.5q-82 0 -122.5 43t-40.5 106q0 69 48.5 107t124.5 38h135v60q0 50 -28.5 83t-87.5 33q-49 0 -79 -10t-60 -24z" />
    <glyph glyph-name="Aogonek" unicode="&#x104;" horiz-adv-x="592" 
d="M313 680l259 -669q-30 -27 -47.5 -55t-17.5 -68q0 -30 21.5 -44.5t40.5 -14.5q16 0 29.5 5.5t25.5 15.5l22 -27q-13 -13 -34 -21.5t-46 -8.5q-45 0 -75 26.5t-30 69.5q0 29 17.5 61t42.5 52l-80 211h-295l-77 -213h-49l247 680h46zM291 614l-131 -362h267z" />
    <glyph glyph-name="aogonek" unicode="&#x105;" horiz-adv-x="481" 
d="M86 456q28 19 76.5 30.5t78.5 11.5q83 0 125.5 -43.5t42.5 -114.5v-340q-22 -20 -37 -46t-15 -63q0 -30 21.5 -46t40.5 -16q16 0 29.5 5.5t25.5 15.5l22 -27q-13 -13 -34 -21.5t-46 -8.5q-45 0 -75 26.5t-30 69.5q0 35 19.5 70t44.5 56l-12 37q-25 -28 -63.5 -46.5
t-84.5 -18.5q-82 0 -122.5 43t-40.5 106q0 69 48.5 107t124.5 38h135v60q0 50 -28.5 83t-87.5 33q-49 0 -79 -10t-60 -24zM103 136q0 -45 31 -76.5t85 -31.5q47 0 82.5 23.5t58.5 57.5v135h-131q-66 0 -96 -31.5t-30 -76.5z" />
    <glyph glyph-name="Cacute" unicode="&#x106;" horiz-adv-x="569" 
d="M373 892h62l-86 -153h-36zM499 621q-31 13 -61 21.5t-84 8.5q-107 -1 -170 -85.5t-63 -228.5q0 -122 54 -215t170 -93q54 0 88.5 9t61.5 21l24 -36q-28 -15 -77 -26t-92 -11q-156 0 -220 105.5t-64 244.5q0 149 71.5 253.5t218.5 104.5q31 0 83 -9t80 -28z" />
    <glyph glyph-name="cacute" unicode="&#x107;" horiz-adv-x="449" 
d="M275 742h62l-86 -153h-36zM396 28q-30 -19 -69 -30t-70 -11q-107 0 -158 72.5t-51 185.5q0 109 54.5 181t161.5 72q29 0 68.5 -11.5t68.5 -30.5l-20 -33q-25 12 -49 23t-70 11q-80 0 -121.5 -63t-41.5 -148q0 -89 38 -153.5t120 -64.5q50 0 71.5 10.5t47.5 23.5z" />
    <glyph glyph-name="Ccaron" unicode="&#x10c;" horiz-adv-x="569" 
d="M437 892h50l-115 -153h-40l-116 153h52l83 -119zM499 621q-31 13 -61 21.5t-84 8.5q-107 -1 -170 -85.5t-63 -228.5q0 -122 54 -215t170 -93q54 0 88.5 9t61.5 21l24 -36q-28 -15 -77 -26t-92 -11q-156 0 -220 105.5t-64 244.5q0 149 71.5 253.5t218.5 104.5q31 0 83 -9
t80 -28z" />
    <glyph glyph-name="ccaron" unicode="&#x10d;" horiz-adv-x="449" 
d="M349 742h50l-115 -153h-40l-116 153h52l83 -119zM396 28q-30 -19 -69 -30t-70 -11q-107 0 -158 72.5t-51 185.5q0 109 54.5 181t161.5 72q29 0 68.5 -11.5t68.5 -30.5l-20 -33q-25 12 -49 23t-70 11q-80 0 -121.5 -63t-41.5 -148q0 -89 38 -153.5t120 -64.5
q50 0 71.5 10.5t47.5 23.5z" />
    <glyph glyph-name="Dcaron" unicode="&#x10e;" horiz-adv-x="658" 
d="M371 891h50l-115 -153h-40l-116 153h52l83 -119zM100 0v680h204q157 0 222.5 -98.5t65.5 -237.5q0 -142 -71 -243t-220 -101h-201zM312 641h-163v-602h153q107 0 173 86.5t66 217.5q0 121 -56.5 209.5t-172.5 88.5z" />
    <glyph glyph-name="dcaron" unicode="&#x10f;" horiz-adv-x="672" 
d="M603 702q18 0 28.5 -14t10.5 -29q0 -46 -22 -83.5t-64 -57.5l-16 25q26 14 43 34.5t18 47.5q-18 0 -27 14t-9 24q0 15 9.5 27t28.5 12zM391 399q-31 29 -69 43.5t-68 14.5q-82 0 -118.5 -62.5t-36.5 -150.5q0 -89 36.5 -152.5t118.5 -63.5q30 0 68 15t69 44v312zM440 705
v-705h-27l-16 43q-31 -25 -68.5 -40.5t-72.5 -15.5q-106 0 -157 71.5t-51 182.5q0 112 51 184.5t157 72.5q33 0 69.5 -15.5t65.5 -38.5v252z" />
    <glyph glyph-name="Dcroat" unicode="&#x110;" horiz-adv-x="658" 
d="M100 0v314h-80l-10 39h90v327h204q157 0 222.5 -98.5t65.5 -237.5q0 -142 -71 -243t-220 -101h-201zM258 353l10 -39h-119v-275h153q107 0 173 86.5t66 217.5q0 121 -56.5 209.5t-172.5 88.5h-163v-288h109z" />
    <glyph glyph-name="dcroat" unicode="&#x111;" horiz-adv-x="520" 
d="M391 399q-31 29 -69 43.5t-68 14.5q-82 0 -118.5 -62.5t-36.5 -150.5q0 -89 36.5 -152.5t118.5 -63.5q30 0 68 15t69 44v312zM490 615l10 -35h-60v-580h-27l-16 43q-31 -25 -68.5 -40.5t-72.5 -15.5q-106 0 -157 71.5t-51 182.5q0 112 51 184.5t157 72.5q33 0 69.5 -15.5
t65.5 -38.5v136h-139l-10 35h149v81l49 9v-90h50z" />
    <glyph glyph-name="Emacron" unicode="&#x112;" horiz-adv-x="515" 
d="M144 827h241v-37h-241v37zM100 0v680h347l5 -39h-303v-273h200l5 -39h-205v-290h320l6 -39h-375z" />
    <glyph glyph-name="emacron" unicode="&#x113;" horiz-adv-x="496" 
d="M135 677h241v-37h-241v37zM448 242h-349q1 -87 41 -150.5t130 -63.5q53 0 85.5 10.5t57.5 23.5l20 -37q-30 -19 -78 -28.5t-77 -9.5q-119 0 -174.5 72.5t-55.5 185.5q0 109 52.5 181t159.5 72q84 0 136 -72.5t52 -183.5zM396 279q-7 71 -39 124.5t-104 53.5t-108.5 -53.5
t-43.5 -124.5h295z" />
    <glyph glyph-name="Edotaccent" unicode="&#x116;" horiz-adv-x="515" 
d="M264 768q-17 0 -27.5 11t-10.5 27t10.5 27t27.5 11q16 0 27.5 -11t11.5 -27t-11.5 -27t-27.5 -11zM100 0v680h347l5 -39h-303v-273h200l5 -39h-205v-290h320l6 -39h-375z" />
    <glyph glyph-name="edotaccent" unicode="&#x117;" horiz-adv-x="496" 
d="M255 618q-17 0 -27.5 11t-10.5 27t10.5 27t27.5 11q16 0 27.5 -11t11.5 -27t-11.5 -27t-27.5 -11zM448 242h-349q1 -87 41 -150.5t130 -63.5q53 0 85.5 10.5t57.5 23.5l20 -37q-30 -19 -78 -28.5t-77 -9.5q-119 0 -174.5 72.5t-55.5 185.5q0 109 52.5 181t159.5 72
q84 0 136 -72.5t52 -183.5zM396 279q-7 71 -39 124.5t-104 53.5t-108.5 -53.5t-43.5 -124.5h295z" />
    <glyph glyph-name="Eogonek" unicode="&#x118;" horiz-adv-x="515" 
d="M100 0v680h347l5 -39h-303v-273h200l5 -39h-205v-290h320l6 -39h-81q-25 -18 -43.5 -46t-18.5 -66q0 -30 21.5 -44.5t40.5 -14.5q16 0 29.5 5.5t25.5 15.5l22 -27q-13 -13 -34 -21.5t-46 -8.5q-45 0 -75 26.5t-30 69.5q0 28 16.5 59t40.5 52h-243z" />
    <glyph glyph-name="eogonek" unicode="&#x119;" horiz-adv-x="496" 
d="M448 242h-349q1 -87 41 -150.5t130 -63.5q53 0 85.5 10.5t57.5 23.5l20 -37q-19 -12 -47.5 -20.5t-55.5 -12.5q-22 -18 -36.5 -44t-14.5 -60q0 -30 21.5 -44.5t40.5 -14.5q16 0 29.5 5.5t25.5 15.5l22 -27q-13 -13 -34 -21.5t-46 -8.5q-45 0 -75 26.5t-30 69.5
q0 25 12.5 51t31.5 47q-119 1 -174 73t-55 185q0 109 52.5 181t159.5 72q84 0 136 -72.5t52 -183.5zM396 279q-7 71 -39 124.5t-104 53.5t-108.5 -53.5t-43.5 -124.5h295z" />
    <glyph glyph-name="Ecaron" unicode="&#x11a;" horiz-adv-x="515" 
d="M348 892h50l-115 -153h-40l-116 153h52l83 -119zM100 0v680h347l5 -39h-303v-273h200l5 -39h-205v-290h320l6 -39h-375z" />
    <glyph glyph-name="ecaron" unicode="&#x11b;" horiz-adv-x="496" 
d="M345 742h50l-115 -153h-40l-116 153h52l83 -119zM448 242h-349q1 -87 41 -150.5t130 -63.5q53 0 85.5 10.5t57.5 23.5l20 -37q-30 -19 -78 -28.5t-77 -9.5q-119 0 -174.5 72.5t-55.5 185.5q0 109 52.5 181t159.5 72q84 0 136 -72.5t52 -183.5zM396 279q-7 71 -39 124.5
t-104 53.5t-108.5 -53.5t-43.5 -124.5h295z" />
    <glyph glyph-name="Gbreve" unicode="&#x11e;" horiz-adv-x="630" 
d="M514 881q0 -50 -32.5 -90t-97.5 -40q-63 0 -96.5 40t-33.5 90h41q0 -35 23.5 -63t65.5 -28t65.5 27t23.5 64h41zM352 342h196v-311q-28 -19 -77.5 -32t-92.5 -13q-155 0 -233.5 100.5t-78.5 249.5q0 156 86 257t232 101q31 0 84.5 -9t81.5 -28l-19 -33q-31 13 -61.5 21
t-83.5 8q-126 0 -195.5 -91.5t-69.5 -236.5q0 -137 70 -216.5t186 -79.5q36 0 66.5 7t55.5 16v251h-153z" />
    <glyph glyph-name="gbreve" unicode="&#x11f;" horiz-adv-x="520" 
d="M386 731q0 -50 -32.5 -90t-97.5 -40q-63 0 -96.5 40t-33.5 90h41q0 -35 23.5 -63t65.5 -28t65.5 27t23.5 64h41zM391 399q-31 29 -69 43.5t-68 14.5q-82 0 -118.5 -62.5t-36.5 -150.5q0 -89 36.5 -152.5t118.5 -63.5q30 0 68 15t69 44v312zM440 -53q0 -72 -43.5 -120
t-138.5 -48q-29 0 -78 11t-77 30l19 35q34 -15 61 -25t73 -10q61 0 98 28.5t37 88.5v103q-29 -24 -65.5 -38.5t-69.5 -14.5q-106 0 -157 71.5t-51 182.5q0 112 51 184.5t157 72.5q35 0 72.5 -16.5t67.5 -41.5l17 45h27v-538z" />
    <glyph glyph-name="Gcedilla" unicode="&#x122;" horiz-adv-x="630" 
d="M352 342h196v-311q-25 -16 -68 -28.5t-83 -15.5l-14 -38q45 -8 68 -33.5t23 -51.5q0 -38 -30 -61.5t-79 -23.5q-18 0 -41 5.5t-36 13.5l15 31q9 -4 26 -9t33 -5q31 0 50.5 14t19.5 33q0 21 -25.5 41t-73.5 20l24 64q-145 7 -218 106t-73 243q0 156 86 257t232 101
q31 0 84.5 -9t81.5 -28l-19 -33q-31 13 -61.5 21t-83.5 8q-126 0 -195.5 -91.5t-69.5 -236.5q0 -137 70 -216.5t186 -79.5q36 0 66.5 7t55.5 16v251h-153z" />
    <glyph glyph-name="gcedilla" unicode="&#x123;" horiz-adv-x="520" 
d="M256 575q-18 0 -28.5 14t-10.5 29q0 46 22 83.5t64 57.5l16 -25q-26 -14 -43 -34.5t-18 -47.5q18 0 27 -14t9 -24q0 -15 -9.5 -27t-28.5 -12zM391 399q-31 29 -69 43.5t-68 14.5q-82 0 -118.5 -62.5t-36.5 -150.5q0 -89 36.5 -152.5t118.5 -63.5q30 0 68 15t69 44v312z
M440 -53q0 -72 -43.5 -120t-138.5 -48q-29 0 -78 11t-77 30l19 35q34 -15 61 -25t73 -10q61 0 98 28.5t37 88.5v103q-29 -24 -65.5 -38.5t-69.5 -14.5q-106 0 -157 71.5t-51 182.5q0 112 51 184.5t157 72.5q35 0 72.5 -16.5t67.5 -41.5l17 45h27v-538z" />
    <glyph glyph-name="Imacron" unicode="&#x12a;" horiz-adv-x="249" 
d="M4 827h241v-37h-241v37zM100 0v680h49v-680h-49z" />
    <glyph glyph-name="imacron" unicode="&#x12b;" horiz-adv-x="209" 
d="M-16 677h241v-37h-241v37zM80 0v485h49v-485h-49z" />
    <glyph glyph-name="Iogonek" unicode="&#x12e;" horiz-adv-x="249" 
d="M149 680v-680q-27 -18 -45.5 -45t-18.5 -67q0 -30 21.5 -44.5t40.5 -14.5q16 0 29.5 5.5t25.5 15.5l22 -27q-13 -13 -34 -21.5t-46 -8.5q-45 0 -75 26.5t-30 69.5q0 30 17.5 61.5t43.5 52.5v677h49z" />
    <glyph glyph-name="iogonek" unicode="&#x12f;" horiz-adv-x="217" 
d="M108 600q-17 0 -27.5 11t-10.5 27t10.5 27t27.5 11q16 0 27.5 -11t11.5 -27t-11.5 -27t-27.5 -11zM84 4v481h49v-485q-27 -18 -46 -46.5t-19 -65.5q0 -30 21.5 -44.5t40.5 -14.5q16 0 29.5 5.5t25.5 15.5l22 -27q-13 -13 -34 -21.5t-46 -8.5q-45 0 -75 26.5t-30 69.5
q0 30 18 62t44 53z" />
    <glyph glyph-name="Idotaccent" unicode="&#x130;" horiz-adv-x="249" 
d="M124 768q-17 0 -27.5 11t-10.5 27t10.5 27t27.5 11q16 0 27.5 -11t11.5 -27t-11.5 -27t-27.5 -11zM100 0v680h49v-680h-49z" />
    <glyph glyph-name="dotlessi" unicode="&#x131;" horiz-adv-x="209" 
d="M80 0v485h49v-485h-49z" />
    <glyph glyph-name="Kcedilla" unicode="&#x136;" horiz-adv-x="580" 
d="M519 663l-250 -266l301 -397h-62l-272 362l-87 -93v-269h-49v680h49v-355l336 370zM323 -21q18 0 28.5 -14t10.5 -29q0 -46 -22 -83.5t-64 -57.5l-16 25q26 14 43 34.5t18 47.5q-18 0 -27 14t-9 24q0 15 9.5 27t28.5 12z" />
    <glyph glyph-name="kcedilla" unicode="&#x137;" horiz-adv-x="453" 
d="M80 0v696l49 10v-442l225 234l37 -31l-155 -154l213 -313h-59l-187 280l-74 -74v-206h-49zM247 -21q18 0 28.5 -14t10.5 -29q0 -46 -22 -83.5t-64 -57.5l-16 25q26 14 43 34.5t18 47.5q-18 0 -27 14t-9 24q0 15 9.5 27t28.5 12z" />
    <glyph glyph-name="Lacute" unicode="&#x139;" horiz-adv-x="491" 
d="M182 892h62l-86 -153h-36zM471 0h-371v680h49v-641h317z" />
    <glyph glyph-name="lacute" unicode="&#x13a;" horiz-adv-x="209" 
d="M152 865h62l-86 -153h-36zM80 0v674l49 10v-684h-49z" />
    <glyph glyph-name="Lcedilla" unicode="&#x13b;" horiz-adv-x="491" 
d="M471 0h-371v680h49v-641h317zM302 -21q18 0 28.5 -14t10.5 -29q0 -46 -22 -83.5t-64 -57.5l-16 25q26 14 43 34.5t18 47.5q-18 0 -27 14t-9 24q0 15 9.5 27t28.5 12z" />
    <glyph glyph-name="lcedilla" unicode="&#x13c;" horiz-adv-x="209" 
d="M80 0v696l49 10v-706h-49zM106 -21q18 0 28.5 -14t10.5 -29q0 -46 -22 -83.5t-64 -57.5l-16 25q26 14 43 34.5t18 47.5q-18 0 -27 14t-9 24q0 15 9.5 27t28.5 12z" />
    <glyph glyph-name="Lcaron" unicode="&#x13d;" horiz-adv-x="491" 
d="M363 702q18 0 28.5 -14t10.5 -29q0 -46 -22 -83.5t-64 -57.5l-16 25q26 14 43 34.5t18 47.5q-18 0 -27 14t-9 24q0 15 9.5 27t28.5 12zM471 0h-371v680h49v-641h317z" />
    <glyph glyph-name="lcaron" unicode="&#x13e;" horiz-adv-x="361" 
d="M80 0v696l49 10v-706h-49zM292 702q18 0 28.5 -14t10.5 -29q0 -46 -22 -83.5t-64 -57.5l-16 25q26 14 43 34.5t18 47.5q-18 0 -27 14t-9 24q0 15 9.5 27t28.5 12z" />
    <glyph glyph-name="Lslash" unicode="&#x141;" horiz-adv-x="492" 
d="M472 0h-371v281l-71 -62l-22 36l93 81v344h49v-302l107 94l22 -34l-129 -114v-285h317z" />
    <glyph glyph-name="lslash" unicode="&#x142;" horiz-adv-x="271" 
d="M271 438l-111 -98v-340h-49v297l-89 -78l-22 36l111 96v345l49 10v-312l89 78z" />
    <glyph glyph-name="Nacute" unicode="&#x143;" horiz-adv-x="658" 
d="M357 892h62l-86 -153h-36zM100 0v680h28l347 -510l34 -59v569h49v-680h-27l-368 545l-14 29v-574h-49z" />
    <glyph glyph-name="nacute" unicode="&#x144;" horiz-adv-x="516" 
d="M310 742h62l-86 -153h-36zM80 0v485h28l20 -76q31 36 79 62.5t93 26.5q78 0 111 -45.5t33 -115.5v-337h-49v337q0 50 -24.5 84.5t-77.5 35.5q-32 0 -81 -25t-83 -68v-364h-49z" />
    <glyph glyph-name="Ncedilla" unicode="&#x145;" horiz-adv-x="658" 
d="M100 0v680h28l347 -510l34 -59v569h49v-680h-27l-368 545l-14 29v-574h-49zM333 -21q18 0 28.5 -14t10.5 -29q0 -46 -22 -83.5t-64 -57.5l-16 25q26 14 43 34.5t18 47.5q-18 0 -27 14t-9 24q0 15 9.5 27t28.5 12z" />
    <glyph glyph-name="ncedilla" unicode="&#x146;" horiz-adv-x="516" 
d="M80 0v485h28l20 -76q31 36 79 62.5t93 26.5q78 0 111 -45.5t33 -115.5v-337h-49v337q0 50 -24.5 84.5t-77.5 35.5q-32 0 -81 -25t-83 -68v-364h-49zM268 -21q18 0 28.5 -14t10.5 -29q0 -46 -22 -83.5t-64 -57.5l-16 25q26 14 43 34.5t18 47.5q-18 0 -27 14t-9 24
q0 15 9.5 27t28.5 12z" />
    <glyph glyph-name="Ncaron" unicode="&#x147;" horiz-adv-x="658" 
d="M411 892h50l-115 -153h-40l-116 153h52l83 -119zM100 0v680h28l347 -510l34 -59v569h49v-680h-27l-368 545l-14 29v-574h-49z" />
    <glyph glyph-name="ncaron" unicode="&#x148;" horiz-adv-x="516" 
d="M354 742h50l-115 -153h-40l-116 153h52l83 -119zM80 0v485h28l20 -76q31 36 79 62.5t93 26.5q78 0 111 -45.5t33 -115.5v-337h-49v337q0 50 -24.5 84.5t-77.5 35.5q-32 0 -81 -25t-83 -68v-364h-49z" />
    <glyph glyph-name="Omacron" unicode="&#x14c;" horiz-adv-x="699" 
d="M223 827h241v-37h-241v37zM353 696q148 0 214 -106t66 -245q0 -141 -72.5 -250t-213.5 -109q-149 0 -215 106.5t-66 244.5q0 149 74 254t213 105zM121 338q0 -122 54 -216.5t170 -94.5q107 0 170 92.5t63 224.5q0 122 -53.5 216t-170.5 94q-107 0 -170 -92.5t-63 -223.5z
" />
    <glyph glyph-name="omacron" unicode="&#x14d;" horiz-adv-x="497" 
d="M130 677h241v-37h-241v37zM241 -13q-105 0 -149 74t-44 184q1 107 50 180t153 73q107 0 152.5 -73.5t45.5 -185.5q0 -110 -51.5 -181t-156.5 -71zM398 239q0 87 -31.5 153.5t-113.5 66.5q-80 0 -117 -64t-37 -149q0 -89 31 -154.5t112 -65.5t118.5 63t37.5 150z" />
    <glyph glyph-name="Ohungarumlaut" unicode="&#x150;" horiz-adv-x="699" 
d="M440 892h62l-84 -153h-37zM317 892h61l-86 -153h-35zM353 696q148 0 214 -106t66 -245q0 -141 -72.5 -250t-213.5 -109q-149 0 -215 106.5t-66 244.5q0 149 74 254t213 105zM121 338q0 -122 54 -216.5t170 -94.5q107 0 170 92.5t63 224.5q0 122 -53.5 216t-170.5 94
q-107 0 -170 -92.5t-63 -223.5z" />
    <glyph glyph-name="ohungarumlaut" unicode="&#x151;" horiz-adv-x="497" 
d="M337 742h62l-84 -153h-37zM214 742h62l-86 -153h-36zM241 -13q-105 0 -149 74t-44 184q1 107 50 180t153 73q107 0 152.5 -73.5t45.5 -185.5q0 -110 -51.5 -181t-156.5 -71zM398 239q0 87 -31.5 153.5t-113.5 66.5q-80 0 -117 -64t-37 -149q0 -89 31 -154.5t112 -65.5
t118.5 63t37.5 150z" />
    <glyph glyph-name="OE" unicode="&#x152;" horiz-adv-x="920" 
d="M505 617q-27 13 -60 23.5t-84 10.5q-107 -1 -173.5 -85.5t-66.5 -228.5q0 -122 58.5 -215t174.5 -93q54 0 92 12.5t59 25.5v550zM505 0v18q-29 -13 -70.5 -22.5t-75.5 -9.5q-156 0 -224.5 105.5t-68.5 244.5q0 149 75 253.5t222 104.5q25 0 67 -8t75 -22v16h347l5 -39
h-303v-273h200l5 -39h-205v-290h320l6 -39h-375z" />
    <glyph glyph-name="oe" unicode="&#x153;" horiz-adv-x="796" 
d="M748 242h-349q1 -87 41 -150.5t130 -63.5q53 0 85.5 10.5t57.5 23.5l20 -37q-30 -19 -75 -28.5t-74 -9.5q-51 0 -91 14t-68 39q-27 -19 -68 -36t-90 -17q-107 0 -163 69.5t-56 188.5q0 109 59.5 181t166.5 72q48 0 85.5 -14.5t64.5 -34.5q26 23 61.5 36t78.5 13
q87 0 135.5 -72.5t48.5 -183.5zM696 279q-7 71 -39 124.5t-104 53.5t-108.5 -53.5t-43.5 -124.5h295zM99 246q0 -89 43 -153.5t125 -64.5q40 0 71.5 11t59.5 30q-25 34 -37.5 79t-12.5 97q0 51 12 95t35 77q-20 15 -47.5 27.5t-75.5 12.5q-80 0 -126.5 -63t-46.5 -148z" />
    <glyph glyph-name="Racute" unicode="&#x154;" horiz-adv-x="592" 
d="M293 892h62l-86 -153h-36zM265 640h-116v-315h105q76 0 140 37t64 122q0 87 -57.5 121.5t-135.5 34.5zM263 680q106 0 175.5 -43.5t69.5 -150.5q0 -69 -34.5 -112.5t-88.5 -64.5l177 -309h-55l-164 296q-22 -5 -45 -7.5t-46 -2.5h-103v-286h-49v680h163z" />
    <glyph glyph-name="racute" unicode="&#x155;" horiz-adv-x="310" 
d="M191 742h62l-86 -153h-36zM80 0v485h28l18 -67q26 22 68.5 44.5t80.5 22.5l17 -38q-46 0 -90.5 -24.5t-72.5 -55.5v-367h-49z" />
    <glyph glyph-name="Rcedilla" unicode="&#x156;" horiz-adv-x="592" 
d="M265 640h-116v-315h105q76 0 140 37t64 122q0 87 -57.5 121.5t-135.5 34.5zM263 680q106 0 175.5 -43.5t69.5 -150.5q0 -69 -34.5 -112.5t-88.5 -64.5l177 -309h-55l-164 296q-22 -5 -45 -7.5t-46 -2.5h-103v-286h-49v680h163zM317 -21q18 0 28.5 -14t10.5 -29
q0 -46 -22 -83.5t-64 -57.5l-16 25q26 14 43 34.5t18 47.5q-18 0 -27 14t-9 24q0 15 9.5 27t28.5 12z" />
    <glyph glyph-name="rcedilla" unicode="&#x157;" horiz-adv-x="310" 
d="M80 0v485h28l18 -67q26 22 68.5 44.5t80.5 22.5l17 -38q-46 0 -90.5 -24.5t-72.5 -55.5v-367h-49zM104 -21q18 0 28.5 -14t10.5 -29q0 -46 -22 -83.5t-64 -57.5l-16 25q26 14 43 34.5t18 47.5q-18 0 -27 14t-9 24q0 15 9.5 27t28.5 12z" />
    <glyph glyph-name="Rcaron" unicode="&#x158;" horiz-adv-x="592" 
d="M357 892h50l-115 -153h-40l-116 153h52l83 -119zM265 640h-116v-315h105q76 0 140 37t64 122q0 87 -57.5 121.5t-135.5 34.5zM263 680q106 0 175.5 -43.5t69.5 -150.5q0 -69 -34.5 -112.5t-88.5 -64.5l177 -309h-55l-164 296q-22 -5 -45 -7.5t-46 -2.5h-103v-286h-49v680
h163z" />
    <glyph glyph-name="rcaron" unicode="&#x159;" horiz-adv-x="310" 
d="M241 742h50l-115 -153h-40l-116 153h52l83 -119zM80 0v485h28l18 -67q26 22 68.5 44.5t80.5 22.5l17 -38q-46 0 -90.5 -24.5t-72.5 -55.5v-367h-49z" />
    <glyph glyph-name="Sacute" unicode="&#x15a;" horiz-adv-x="534" 
d="M302 892h62l-86 -153h-36zM86 68q26 -13 71 -26t95 -13q86 0 131.5 39.5t45.5 91.5q0 110 -181.5 170t-181.5 205q0 69 55 115t151 46q50 0 94 -12t74 -27l-22 -36q-26 12 -59 23t-85 11q-72 0 -114 -36.5t-42 -88.5q0 -114 181 -175.5t181 -197.5q0 -75 -58 -122.5
t-169 -47.5q-43 0 -104 13.5t-78 28.5z" />
    <glyph glyph-name="sacute" unicode="&#x15b;" horiz-adv-x="428" 
d="M246 742h62l-86 -153h-36zM74 66q26 -13 59.5 -25.5t71.5 -12.5q60 0 94 25t34 66q0 35 -37 62t-91 48q-56 22 -98.5 55t-42.5 80q0 57 42.5 95.5t124.5 38.5q31 0 71.5 -11t65.5 -29l-20 -35q-20 10 -49.5 22t-74.5 12q-51 0 -82 -27t-31 -62q0 -34 36 -58t86 -44
q59 -24 103 -58t44 -85q0 -64 -42 -100t-135 -36q-30 0 -74.5 9.5t-72.5 28.5z" />
    <glyph glyph-name="Scedilla" unicode="&#x15e;" horiz-adv-x="534" 
d="M86 68q26 -13 71 -26t95 -13q86 0 131.5 39.5t45.5 91.5q0 110 -181.5 170t-181.5 205q0 69 55 115t151 46q50 0 94 -12t74 -27l-22 -36q-26 12 -59 23t-85 11q-72 0 -114 -36.5t-42 -88.5q0 -114 181 -175.5t181 -197.5q0 -69 -49.5 -115.5t-145.5 -53.5l-15 -39
q45 -8 68 -33.5t23 -51.5q0 -38 -30 -61.5t-79 -23.5q-18 0 -41 5.5t-36 13.5l15 31q9 -4 26 -9t33 -5q31 0 50.5 14t19.5 33q0 21 -25.5 41t-73.5 20l24 64q-44 1 -100.5 14.5t-72.5 27.5z" />
    <glyph glyph-name="scedilla" unicode="&#x15f;" horiz-adv-x="428" 
d="M74 66q26 -13 59.5 -25.5t71.5 -12.5q60 0 94 25t34 66q0 35 -37 62t-91 48q-56 22 -98.5 55t-42.5 80q0 57 42.5 95.5t124.5 38.5q31 0 71.5 -11t65.5 -29l-20 -35q-20 10 -49.5 22t-74.5 12q-51 0 -82 -27t-31 -62q0 -34 36 -58t86 -44q59 -24 103 -58t44 -85
q0 -60 -36.5 -95.5t-117.5 -39.5l-15 -39q45 -8 68 -33.5t23 -51.5q0 -38 -30 -61.5t-79 -23.5q-18 0 -41 5.5t-36 13.5l15 31q9 -4 26 -9t33 -5q31 0 50.5 14t19.5 33q0 21 -25.5 41t-73.5 20l24 65q-30 2 -67 11.5t-62 25.5z" />
    <glyph glyph-name="Scaron" unicode="&#x160;" horiz-adv-x="534" 
d="M356 892h50l-115 -153h-40l-116 153h52l83 -119zM86 68q26 -13 71 -26t95 -13q86 0 131.5 39.5t45.5 91.5q0 110 -181.5 170t-181.5 205q0 69 55 115t151 46q50 0 94 -12t74 -27l-22 -36q-26 12 -59 23t-85 11q-72 0 -114 -36.5t-42 -88.5q0 -114 181 -175.5t181 -197.5
q0 -75 -58 -122.5t-169 -47.5q-43 0 -104 13.5t-78 28.5z" />
    <glyph glyph-name="scaron" unicode="&#x161;" horiz-adv-x="428" 
d="M310 742h50l-115 -153h-40l-116 153h52l83 -119zM74 66q26 -13 59.5 -25.5t71.5 -12.5q60 0 94 25t34 66q0 35 -37 62t-91 48q-56 22 -98.5 55t-42.5 80q0 57 42.5 95.5t124.5 38.5q31 0 71.5 -11t65.5 -29l-20 -35q-20 10 -49.5 22t-74.5 12q-51 0 -82 -27t-31 -62
q0 -34 36 -58t86 -44q59 -24 103 -58t44 -85q0 -64 -42 -100t-135 -36q-30 0 -74.5 9.5t-72.5 28.5z" />
    <glyph glyph-name="Tcedilla" unicode="&#x162;" horiz-adv-x="514" 
d="M494 641h-213v-641h-6l-20 -51q45 -8 68 -33.5t23 -51.5q0 -38 -30 -61.5t-79 -23.5q-18 0 -41 5.5t-36 13.5l15 31q9 -4 26 -9t33 -5q31 0 50.5 14t19.5 33q0 21 -25.5 41t-73.5 20l27 77v641h-212v39h469z" />
    <glyph glyph-name="tcedilla" unicode="&#x163;" horiz-adv-x="288" 
d="M248 433h-109v-310q0 -36 15.5 -65.5t52.5 -29.5q11 0 23.5 3.5t17.5 5.5l12 -38q-9 -2 -25.5 -6.5t-35.5 -5.5l-15 -38q45 -8 68 -33.5t23 -51.5q0 -38 -30 -61.5t-79 -23.5q-18 0 -41 5.5t-36 13.5l15 31q9 -4 26 -9t33 -5q31 0 50.5 14t19.5 33q0 21 -25.5 41
t-73.5 20l26 69q-33 10 -51.5 41.5t-18.5 82.5v317h-72v37h72v131l49 22v-153h88z" />
    <glyph glyph-name="Tcaron" unicode="&#x164;" horiz-adv-x="514" 
d="M341 892h50l-115 -153h-40l-116 153h52l83 -119zM494 641h-213v-641h-49v641h-212v39h469z" />
    <glyph glyph-name="tcaron" unicode="&#x165;" horiz-adv-x="440" 
d="M371 702q18 0 28.5 -14t10.5 -29q0 -46 -22 -83.5t-64 -57.5l-16 25q26 14 43 34.5t18 47.5q-18 0 -27 14t-9 24q0 15 9.5 27t28.5 12zM248 433h-109v-310q0 -36 15.5 -65.5t52.5 -29.5q11 0 23.5 3.5t17.5 5.5l12 -38q-10 -2 -27.5 -7t-38.5 -5q-47 0 -75.5 33t-28.5 96
v317h-72v37h72v131l49 22v-153h88z" />
    <glyph glyph-name="Umacron" unicode="&#x16a;" horiz-adv-x="650" 
d="M205 827h241v-37h-241v37zM139 236q0 -87 50 -147t136 -60q89 0 137.5 60t48.5 147v444h49v-441q0 -109 -59.5 -180t-175.5 -71q-115 0 -175 71t-60 180v441h49v-444z" />
    <glyph glyph-name="umacron" unicode="&#x16b;" horiz-adv-x="496" 
d="M123 677h241v-37h-241v37zM416 485v-485h-29l-19 55q-31 -28 -71.5 -47.5t-79.5 -19.5q-80 0 -112.5 45t-32.5 117v335h49v-338q0 -49 25 -83.5t76 -34.5q28 0 69 18.5t76 51.5v386h49z" />
    <glyph glyph-name="Uring" unicode="&#x16e;" horiz-adv-x="650" 
d="M325 909q36 0 62 -24t26 -60q0 -35 -26 -58t-62 -23t-62.5 23t-26.5 58q0 36 26.5 60t62.5 24zM325 774q22 0 35.5 14.5t13.5 36.5q0 23 -13.5 38t-35.5 15t-36 -15t-14 -38q0 -22 14 -36.5t36 -14.5zM139 236q0 -87 50 -147t136 -60q89 0 137.5 60t48.5 147v444h49v-441
q0 -109 -59.5 -180t-175.5 -71q-115 0 -175 71t-60 180v441h49v-444z" />
    <glyph glyph-name="uring" unicode="&#x16f;" horiz-adv-x="496" 
d="M246 759q36 0 62 -24t26 -60q0 -35 -26 -58t-62 -23t-62.5 23t-26.5 58q0 36 26.5 60t62.5 24zM246 624q22 0 35.5 14.5t13.5 36.5q0 23 -13.5 38t-35.5 15t-36 -15t-14 -38q0 -22 14 -36.5t36 -14.5zM416 485v-485h-29l-19 55q-31 -28 -71.5 -47.5t-79.5 -19.5
q-80 0 -112.5 45t-32.5 117v335h49v-338q0 -49 25 -83.5t76 -34.5q28 0 69 18.5t76 51.5v386h49z" />
    <glyph glyph-name="Uhungarumlaut" unicode="&#x170;" horiz-adv-x="650" 
d="M402 892h62l-84 -153h-37zM279 892h61l-86 -153h-35zM139 236q0 -87 50 -147t136 -60q89 0 137.5 60t48.5 147v444h49v-441q0 -109 -59.5 -180t-175.5 -71q-115 0 -175 71t-60 180v441h49v-444z" />
    <glyph glyph-name="uhungarumlaut" unicode="&#x171;" horiz-adv-x="496" 
d="M330 742h62l-84 -153h-37zM207 742h62l-86 -153h-36zM416 485v-485h-29l-19 55q-31 -28 -71.5 -47.5t-79.5 -19.5q-80 0 -112.5 45t-32.5 117v335h49v-338q0 -49 25 -83.5t76 -34.5q28 0 69 18.5t76 51.5v386h49z" />
    <glyph glyph-name="Uogonek" unicode="&#x172;" horiz-adv-x="650" 
d="M139 236q0 -87 50 -147t136 -60q89 0 137.5 60t48.5 147v444h49v-441q0 -96 -46.5 -164t-137.5 -83q-22 -18 -37 -44t-15 -60q0 -30 21.5 -44.5t40.5 -14.5q16 0 29.5 5.5t25.5 15.5l22 -27q-13 -13 -34 -21.5t-46 -8.5q-45 0 -75 26.5t-30 69.5q0 25 12.5 51.5
t32.5 47.5q-114 1 -173.5 71.5t-59.5 179.5v441h49v-444z" />
    <glyph glyph-name="uogonek" unicode="&#x173;" horiz-adv-x="496" 
d="M416 485v-485q-25 -23 -41 -47.5t-16 -64.5q0 -30 21.5 -44.5t40.5 -14.5q16 0 29.5 5.5t25.5 15.5l22 -27q-13 -13 -34 -21.5t-46 -8.5q-45 0 -75 26.5t-30 69.5q0 37 17.5 70.5t50.5 57.5l-13 38q-31 -28 -71.5 -47.5t-79.5 -19.5q-80 0 -112.5 45t-32.5 117v335h49
v-338q0 -49 25 -83.5t76 -34.5q28 0 69 18.5t76 51.5v386h49z" />
    <glyph glyph-name="Ydieresis" unicode="&#x178;" horiz-adv-x="536" 
d="M346 768q-17 0 -27 10.5t-10 26.5t10 26t27 10q15 0 26 -10t11 -26t-11 -26.5t-26 -10.5zM187 768q-17 0 -27 10.5t-10 26.5t10 26t27 10q15 0 26 -10t11 -26t-11 -26.5t-26 -10.5zM241 0v269l-231 400l55 11l200 -359l204 359h57l-236 -406v-274h-49z" />
    <glyph glyph-name="Zacute" unicode="&#x179;" horiz-adv-x="519" 
d="M305 892h62l-86 -153h-36zM474 0h-438l-6 50l413 591h-376l-10 39h427l5 -49l-410 -592h390z" />
    <glyph glyph-name="zacute" unicode="&#x17a;" horiz-adv-x="438" 
d="M255 742h62l-86 -153h-36zM408 453l-319 -416h303l10 -37h-362l-8 31l316 417h-271l-16 37h344z" />
    <glyph glyph-name="Zdotaccent" unicode="&#x17b;" horiz-adv-x="519" 
d="M285 768q-17 0 -27.5 11t-10.5 27t10.5 27t27.5 11q16 0 27.5 -11t11.5 -27t-11.5 -27t-27.5 -11zM474 0h-438l-6 50l413 591h-376l-10 39h427l5 -49l-410 -592h390z" />
    <glyph glyph-name="zdotaccent" unicode="&#x17c;" horiz-adv-x="438" 
d="M235 618q-17 0 -27.5 11t-10.5 27t10.5 27t27.5 11q16 0 27.5 -11t11.5 -27t-11.5 -27t-27.5 -11zM408 453l-319 -416h303l10 -37h-362l-8 31l316 417h-271l-16 37h344z" />
    <glyph glyph-name="Zcaron" unicode="&#x17d;" horiz-adv-x="519" 
d="M359 892h50l-115 -153h-40l-116 153h52l83 -119zM474 0h-438l-6 50l413 591h-376l-10 39h427l5 -49l-410 -592h390z" />
    <glyph glyph-name="zcaron" unicode="&#x17e;" horiz-adv-x="438" 
d="M319 742h50l-115 -153h-40l-116 153h52l83 -119zM408 453l-319 -416h303l10 -37h-362l-8 31l316 417h-271l-16 37h344z" />
    <glyph glyph-name="florin" unicode="&#x192;" horiz-adv-x="293" 
d="M49 470h73v93q0 63 25.5 101t79.5 38q20 0 38 -4.5t28 -8.5l-12 -37q-6 3 -18.5 6t-22.5 3q-38 0 -53.5 -23t-15.5 -59v-109h88l21 -37h-109v-360q0 -63 -25.5 -101t-79.5 -38q-20 0 -38 4.5t-28 8.5l12 37q6 -3 18.5 -6t22.5 -3q38 0 53.5 23t15.5 59v376h-73v37z" />
    <glyph glyph-name="Scommaaccent" unicode="&#x218;" horiz-adv-x="534" 
d="M86 68q26 -13 71 -26t95 -13q86 0 131.5 39.5t45.5 91.5q0 110 -181.5 170t-181.5 205q0 69 55 115t151 46q50 0 94 -12t74 -27l-22 -36q-26 12 -59 23t-85 11q-72 0 -114 -36.5t-42 -88.5q0 -114 181 -175.5t181 -197.5q0 -75 -58 -122.5t-169 -47.5q-43 0 -104 13.5
t-78 28.5zM257 -21q18 0 28.5 -14t10.5 -29q0 -46 -22 -83.5t-64 -57.5l-16 25q26 14 43 34.5t18 47.5q-18 0 -27 14t-9 24q0 15 9.5 27t28.5 12z" />
    <glyph glyph-name="scommaaccent" unicode="&#x219;" horiz-adv-x="428" 
d="M74 66q26 -13 59.5 -25.5t71.5 -12.5q60 0 94 25t34 66q0 35 -37 62t-91 48q-56 22 -98.5 55t-42.5 80q0 57 42.5 95.5t124.5 38.5q31 0 71.5 -11t65.5 -29l-20 -35q-20 10 -49.5 22t-74.5 12q-51 0 -82 -27t-31 -62q0 -34 36 -58t86 -44q59 -24 103 -58t44 -85
q0 -64 -42 -100t-135 -36q-30 0 -74.5 9.5t-72.5 28.5zM203 -21q18 0 28.5 -14t10.5 -29q0 -46 -22 -83.5t-64 -57.5l-16 25q26 14 43 34.5t18 47.5q-18 0 -27 14t-9 24q0 15 9.5 27t28.5 12z" />
    <glyph glyph-name="uni021A" unicode="&#x21a;" horiz-adv-x="514" 
d="M494 641h-213v-641h-49v641h-212v39h469zM257 -21q18 0 28.5 -14t10.5 -29q0 -46 -22 -83.5t-64 -57.5l-16 25q26 14 43 34.5t18 47.5q-18 0 -27 14t-9 24q0 15 9.5 27t28.5 12z" />
    <glyph glyph-name="uni021B" unicode="&#x21b;" horiz-adv-x="288" 
d="M248 433h-109v-310q0 -36 15.5 -65.5t52.5 -29.5q11 0 23.5 3.5t17.5 5.5l12 -38q-10 -2 -27.5 -7t-38.5 -5q-47 0 -75.5 33t-28.5 96v317h-72v37h72v131l49 22v-153h88zM181 -21q18 0 28.5 -14t10.5 -29q0 -46 -22 -83.5t-64 -57.5l-16 25q26 14 43 34.5t18 47.5
q-18 0 -27 14t-9 24q0 15 9.5 27t28.5 12z" />
    <glyph glyph-name="circumflex" unicode="&#x2c6;" horiz-adv-x="291" 
d="M60 589h-50l115 153h40l116 -153h-52l-83 118z" />
    <glyph glyph-name="caron" unicode="&#x2c7;" horiz-adv-x="291" 
d="M231 742h50l-115 -153h-40l-116 153h52l83 -119z" />
    <glyph glyph-name="uni02C9" unicode="&#x2c9;" horiz-adv-x="261" 
d="M10 689h241v-39h-241v39z" />
    <glyph glyph-name="breve" unicode="&#x2d8;" horiz-adv-x="280" 
d="M270 731q0 -50 -32.5 -90t-97.5 -40q-63 0 -96.5 40t-33.5 90h41q0 -35 23.5 -63t65.5 -28t65.5 27t23.5 64h41z" />
    <glyph glyph-name="dotaccent" unicode="&#x2d9;" horiz-adv-x="97" 
d="M48 618q-17 0 -27.5 11t-10.5 27t10.5 27t27.5 11q16 0 27.5 -11t11.5 -27t-11.5 -27t-27.5 -11z" />
    <glyph glyph-name="ring" unicode="&#x2da;" horiz-adv-x="197" 
d="M99 759q36 0 62 -24t26 -60q0 -35 -26 -58t-62 -23t-62.5 23t-26.5 58q0 36 26.5 60t62.5 24zM99 624q22 0 35.5 14.5t13.5 36.5q0 23 -13.5 38t-35.5 15t-36 -15t-14 -38q0 -22 14 -36.5t36 -14.5z" />
    <glyph glyph-name="ogonek" unicode="&#x2db;" horiz-adv-x="205" 
d="M72 4h52q-27 -18 -47.5 -47t-20.5 -69q0 -30 21.5 -44.5t40.5 -14.5q16 0 29.5 5.5t25.5 15.5l22 -27q-13 -13 -34 -21.5t-46 -8.5q-45 0 -75 26.5t-30 69.5q0 30 18 62t44 53z" />
    <glyph glyph-name="tilde" unicode="&#x2dc;" horiz-adv-x="299" 
d="M289 699q0 -47 -24.5 -69t-58.5 -22t-60.5 28.5t-51.5 28.5q-22 0 -32.5 -15t-12.5 -38h-39q0 47 24.5 69t58.5 22q42 0 64.5 -28.5t48.5 -28.5q21 0 32 15t13 38h38z" />
    <glyph glyph-name="hungarumlaut" unicode="&#x2dd;" horiz-adv-x="265" 
d="M193 742h62l-84 -153h-37zM70 742h62l-86 -153h-36z" />
    <glyph glyph-name="pi" unicode="&#x3c0;" horiz-adv-x="561" 
d="M119 0v446h-99v39h521v-39h-100v-446h-49v446h-224v-446h-49z" />
    <glyph glyph-name="dv_CandrabinduInverted" unicode="&#x900;" horiz-adv-x="0" 
d="M55 827l-35 18q34 66 84 99.5t115 33.5q66 0 116.5 -33.5t84.5 -99.5l-35 -18q-28 56 -72.5 84t-93.5 28q-48 0 -91.5 -28t-72.5 -84zM221 842q16 0 26.5 -10.5t10.5 -25.5q0 -16 -10.5 -26.5t-26.5 -10.5t-27 10.5t-11 26.5q0 15 11 25.5t27 10.5z" />
    <glyph glyph-name="dv_Candrabindu" unicode="&#x901;" horiz-adv-x="0" 
d="M219 905q-16 0 -26.5 10.5t-10.5 25.5q0 16 10.5 26.5t26.5 10.5t27 -10.5t11 -26.5q0 -15 -11 -25.5t-27 -10.5zM385 920l35 -18q-34 -66 -84 -99.5t-115 -33.5q-66 0 -116.5 33.5t-84.5 99.5l35 18q28 -56 72.5 -84t93.5 -28q48 0 91.5 28t72.5 84z" />
    <glyph glyph-name="dv_Anusvara" unicode="&#x902;" horiz-adv-x="0" 
d="M68 749q-16 0 -26.5 10.5t-10.5 25.5q0 16 10.5 26.5t26.5 10.5t27 -10.5t11 -26.5q0 -15 -11 -25.5t-27 -10.5z" />
    <glyph glyph-name="dv_Visarga" unicode="&#x903;" horiz-adv-x="131" 
d="M65 419q-16 0 -26.5 10.5t-10.5 25.5q0 16 10.5 26.5t26.5 10.5t27 -10.5t11 -26.5q0 -15 -11 -25.5t-27 -10.5zM65 104q-16 0 -26.5 10.5t-10.5 25.5q0 16 10.5 26.5t26.5 10.5t27 -10.5t11 -26.5q0 -15 -11 -25.5t-27 -10.5z" />
    <glyph glyph-name="dv_ShortA" unicode="&#x904;" horiz-adv-x="863" 
d="M688 0v331h-284q37 -28 60 -71.5t23 -80.5q0 -87 -58 -141t-171 -54q-57 0 -107 17.5t-81 39.5l12 43q37 -25 82 -42t97 -17q78 0 126.5 42.5t48.5 109.5q0 66 -44 111t-100 45h-120l-14 35h136q59 0 92.5 46t33.5 100q0 59 -38 99t-110 40q-51 0 -97 -18.5t-84 -48.5
l-9 43q32 26 79 45.5t110 19.5q104 0 152.5 -55.5t48.5 -129.5q0 -37 -20 -75t-59 -64h295v271h-124l-14 39h137v17q0 38 -31.5 67t-87.5 29q-72 0 -123 38.5t-51 94.5v15l48 -15q0 -38 33 -65t86 -27q79 -1 126.5 -41.5t47.5 -95.5v-17h123l16 -39h-138v-657z" />
    <glyph glyph-name="dv_A" unicode="&#x905;" horiz-adv-x="863" 
d="M688 0v331h-284q37 -28 60 -71.5t23 -80.5q0 -87 -58 -141t-171 -54q-57 0 -107 17.5t-81 39.5l12 43q37 -25 82 -42t97 -17q78 0 126.5 42.5t48.5 109.5q0 64 -42.5 108.5t-96.5 47.5h-125l-14 35h136q59 0 92.5 46t33.5 100q0 59 -38 99t-110 40q-51 0 -97 -18.5
t-84 -48.5l-9 43q32 26 79 45.5t110 19.5q104 0 152.5 -55.5t48.5 -129.5q0 -37 -20 -75t-59 -64h295v271h-124l-14 39h308l16 -39h-138v-657z" />
    <glyph glyph-name="dv_Aa" unicode="&#x906;" horiz-adv-x="1150" 
d="M688 0v331h-284q37 -28 60 -71.5t23 -80.5q0 -87 -58 -141t-171 -54q-57 0 -107 17.5t-81 39.5l12 43q37 -25 82 -42t97 -17q78 0 126.5 42.5t48.5 109.5q0 64 -42.5 108.5t-96.5 47.5h-125l-14 35h136q59 0 92.5 46t33.5 100q0 59 -38 99t-110 40q-51 0 -97 -18.5
t-84 -48.5l-9 43q32 26 79 45.5t110 19.5q104 0 152.5 -55.5t48.5 -129.5q0 -37 -20 -75t-59 -64h295v271h-124l-14 39h595l16 -39h-138v-657l-48 16v641h-239v-657z" />
    <glyph glyph-name="dv_I" unicode="&#x907;" horiz-adv-x="535" 
d="M169 40q27 -8 55 -13t56 -6q79 0 122.5 35t43.5 91q0 48 -34 86.5t-103 38.5h-108q-58 0 -100 33.5t-42 88.5q0 60 42 91t106 31h173v125h-377l-14 39h541l16 -39h-118v-164h-234q-39 0 -62 -26t-23 -57q0 -33 24 -58t63 -25h104q83 0 139 -41.5t56 -116.5
q0 -66 -52.5 -119t-162.5 -53q-22 0 -44 3t-44 7l102 -127l-31 -20l-128 164q-28 12 -56 35.5t-28 51.5q0 9 6 19.5t20 10.5q22 0 46 -15.5t46 -69.5z" />
    <glyph glyph-name="dv_Ii" unicode="&#x908;" horiz-adv-x="535" 
d="M169 40q27 -8 55 -13t56 -6q79 0 122.5 35t43.5 91q0 48 -34 86.5t-103 38.5h-108q-58 0 -100 33.5t-42 88.5q0 60 42 91t106 31h173v125h-377l-14 39h389q-27 22 -47 66t-20 79q0 53 31 93.5t97 40.5q31 0 57.5 -9.5t47.5 -23.5l-17 -27q-17 7 -37.5 15.5t-45.5 8.5
q-34 0 -61 -21.5t-27 -72.5q0 -40 22.5 -85t47.5 -64h104l16 -39h-118v-164h-234q-39 0 -62 -26t-23 -57q0 -33 24 -58t63 -25h104q83 0 139 -41.5t56 -116.5q0 -66 -52.5 -119t-162.5 -53q-22 0 -44 3t-44 7l102 -127l-31 -20l-128 164q-28 12 -56 35.5t-28 51.5
q0 9 6 19.5t20 10.5q22 0 46 -15.5t46 -69.5z" />
    <glyph glyph-name="dv_U" unicode="&#x909;" horiz-adv-x="533" 
d="M544 641h-149q25 -25 37.5 -60t12.5 -72q0 -44 -25 -88.5t-79 -67.5q54 -18 86.5 -72t32.5 -102q0 -87 -58 -141t-171 -54q-57 0 -107 17.5t-81 39.5l12 43q37 -25 82 -42t97 -17q78 0 126.5 42.5t48.5 109.5q0 66 -44 111t-100 45h-120l-14 35h130q62 0 97 45.5
t35 100.5q0 43 -17.5 77t-51.5 50h-321l-14 39h539z" />
    <glyph glyph-name="dv_Uu" unicode="&#x90a;" horiz-adv-x="814" 
d="M825 641h-430q25 -25 37.5 -60t12.5 -72q0 -44 -25 -88.5t-79 -67.5q19 -6 35 -17.5t29 -25.5q25 26 70.5 51.5t108.5 25.5q99 0 157.5 -61t58.5 -143q0 -95 -73.5 -149t-133.5 -54l-18 36q63 0 118.5 47.5t55.5 120.5q0 65 -46 113.5t-117 48.5q-53 0 -94 -21t-64 -46
q15 -24 23.5 -50.5t8.5 -49.5q0 -87 -58 -141t-171 -54q-57 0 -107 17.5t-81 39.5l12 43q37 -25 82 -42t97 -17q78 0 126.5 42.5t48.5 109.5q0 66 -44 111t-100 45h-120l-14 35h136q59 0 92.5 46t33.5 100q0 43 -17.5 77t-51.5 50h-321l-14 39h820z" />
    <glyph glyph-name="dv_VocalicR" unicode="&#x90b;" horiz-adv-x="822" 
d="M372 0v256l-277 -150l-26 38l303 163q-69 83 -126.5 107.5t-100.5 24.5q-19 0 -44.5 -9t-47.5 -19l-25 43q22 8 55.5 18t51.5 10q43 0 105 -17.5t132 -96.5v273h-369l-14 39h828l16 -39h-413v-317h20q81 0 128 28t62 53q-10 12 -18.5 23.5t-8.5 29.5q0 19 11.5 32.5
t29.5 13.5q30 0 48.5 -19t18.5 -35q0 -12 -5 -26t-20 -27q30 -26 61.5 -84.5t31.5 -111.5q0 -70 -37 -116.5t-113 -46.5q-29 0 -49 3t-45 12l15 35q22 -7 38 -9t41 -2q51 0 76 33.5t25 93.5q0 47 -26 96.5t-51 68.5q-21 -29 -73 -56.5t-121 -27.5h-39v-301z" />
    <glyph glyph-name="dv_VocalicL" unicode="&#x90c;" horiz-adv-x="809" 
d="M538 1q0 -48 29 -74t77 -26q16 0 31 2.5t29 6.5l7 -37q-17 -5 -37.5 -8t-40.5 -3q-56 0 -99.5 37t-43.5 102t45.5 102t97.5 37h11v201q-7 35 -34.5 67.5t-76.5 32.5q-54 0 -86.5 -42.5t-32.5 -108.5v-134l-48 16v118q0 66 -34.5 107.5t-97.5 41.5q-64 0 -99 -39t-35 -94
q0 -79 31 -142.5t80 -162.5l-42 -19q-45 88 -82 166t-37 165q0 67 46.5 117t137.5 50q50 0 90 -21t64 -58q23 38 61 58.5t85 20.5q40 0 70 -18t40 -32v211h-641l-14 39h815l16 -39h-128v-540h-48q-43 0 -74.5 -26t-31.5 -74z" />
    <glyph glyph-name="dv_CandraE" unicode="&#x90d;" horiz-adv-x="635" 
d="M487 920l35 -18q-34 -66 -84 -99.5t-115 -33.5q-66 0 -116.5 33.5t-84.5 99.5l35 18q28 -56 72.5 -84t93.5 -28q48 0 91.5 28t72.5 84zM466 250v391h-295v-522q0 -40 12.5 -70.5t46.5 -51.5l242 -150l-22 -33l-252 150q-44 26 -59.5 65.5t-15.5 105.5v506h-120l-14 39
h641l16 -39h-132v-396q0 -67 -24 -105.5t-102 -63.5l-27 33q56 20 80.5 48t24.5 93z" />
    <glyph glyph-name="dv_ShortE" unicode="&#x90e;" horiz-adv-x="635" 
d="M466 250v391h-295v-522q0 -40 12.5 -70.5t46.5 -51.5l242 -150l-22 -33l-252 150q-44 26 -59.5 65.5t-15.5 105.5v506h-120l-14 39h477v17q0 38 -31.5 67t-87.5 29h-50q-67 0 -120.5 38.5t-53.5 94.5v15l48 -15q0 -38 33 -66t86 -28h50q75 -1 124.5 -40.5t49.5 -94.5v-17
h116l16 -39h-132v-396q0 -67 -24 -105.5t-102 -63.5l-27 33q56 20 80.5 48t24.5 93z" />
    <glyph glyph-name="dv_E" unicode="&#x90f;" horiz-adv-x="635" 
d="M466 250v391h-295v-522q0 -40 12.5 -70.5t46.5 -51.5l242 -150l-22 -33l-252 150q-44 26 -59.5 65.5t-15.5 105.5v506h-120l-14 39h641l16 -39h-132v-396q0 -67 -24 -105.5t-102 -63.5l-27 33q56 20 80.5 48t24.5 93z" />
    <glyph glyph-name="dv_Ai" unicode="&#x910;" horiz-adv-x="635" 
d="M466 250v391h-295v-522q0 -40 12.5 -70.5t46.5 -51.5l242 -150l-22 -33l-252 150q-44 26 -59.5 65.5t-15.5 105.5v506h-120l-14 39h469l-244 224l32 31l264 -255h120l16 -39h-132v-396q0 -67 -24 -105.5t-102 -63.5l-27 33q56 20 80.5 48t24.5 93z" />
    <glyph glyph-name="dv_CandraO" unicode="&#x911;" horiz-adv-x="1150" 
d="M1024 920l35 -18q-34 -66 -84 -99.5t-115 -33.5q-66 0 -116.5 33.5t-84.5 99.5l35 18q28 -56 72.5 -84t93.5 -28q48 0 91.5 28t72.5 84zM688 0v331h-284q37 -28 60 -71.5t23 -80.5q0 -87 -58 -141t-171 -54q-57 0 -107 17.5t-81 39.5l12 43q37 -25 82 -42t97 -17
q78 0 126.5 42.5t48.5 109.5q0 66 -44 111t-100 45h-120l-14 35h136q59 0 92.5 46t33.5 100q0 59 -38 99t-110 40q-51 0 -97 -18.5t-84 -48.5l-9 43q32 26 79 45.5t110 19.5q104 0 152.5 -55.5t48.5 -129.5q0 -37 -20 -75t-59 -64h295v271h-124l-14 39h595l16 -39h-138v-657
l-48 16v641h-239v-657z" />
    <glyph glyph-name="dv_ShortO" unicode="&#x912;" horiz-adv-x="1150" 
d="M688 0v331h-284q37 -28 60 -71.5t23 -80.5q0 -87 -58 -141t-171 -54q-57 0 -107 17.5t-81 39.5l12 43q37 -25 82 -42t97 -17q78 0 126.5 42.5t48.5 109.5q0 64 -42.5 108.5t-96.5 47.5h-125l-14 35h136q59 0 92.5 46t33.5 100q0 59 -38 99t-110 40q-51 0 -97 -18.5
t-84 -48.5l-9 43q32 26 79 45.5t110 19.5q104 0 152.5 -55.5t48.5 -129.5q0 -37 -20 -75t-59 -64h295v271h-124l-14 39h426v17q0 38 -31.5 67t-87.5 29q-72 0 -123 38.5t-51 94.5v15l48 -15q0 -38 33 -65t86 -27q79 -1 126.5 -41.5t47.5 -95.5v-17h121l16 -39h-138v-657
l-48 16v641h-239v-657z" />
    <glyph glyph-name="dv_O" unicode="&#x913;" horiz-adv-x="1150" 
d="M688 0v331h-284q37 -28 60 -71.5t23 -80.5q0 -87 -58 -141t-171 -54q-57 0 -107 17.5t-81 39.5l12 43q37 -25 82 -42t97 -17q78 0 126.5 42.5t48.5 109.5q0 64 -42.5 108.5t-96.5 47.5h-125l-14 35h136q59 0 92.5 46t33.5 100q0 59 -38 99t-110 40q-51 0 -97 -18.5
t-84 -48.5l-9 43q32 26 79 45.5t110 19.5q104 0 152.5 -55.5t48.5 -129.5q0 -37 -20 -75t-59 -64h295v271h-124l-14 39h415l-244 224l32 31l264 -255h128l16 -39h-138v-657l-48 16v641h-239v-657z" />
    <glyph glyph-name="dv_Au" unicode="&#x914;" horiz-adv-x="1150" 
d="M688 0v331h-284q37 -28 60 -71.5t23 -80.5q0 -87 -58 -141t-171 -54q-57 0 -107 17.5t-81 39.5l12 43q37 -25 82 -42t97 -17q78 0 126.5 42.5t48.5 109.5q0 66 -44 111t-100 45h-120l-14 35h130q62 0 97 45.5t35 100.5q0 59 -38 99t-110 40q-51 0 -97 -18.5t-84 -48.5
l-9 43q32 26 79 45.5t110 19.5q104 0 152.5 -55.5t48.5 -129.5q0 -37 -20 -75t-59 -64h295v271h-124l-14 39h424l-42 45q-51 57 -89 69t-81 12h-85l-13 39h95q56 0 102.5 -15t101.5 -84l-74 247l45 24l84 -337h127l16 -39h-138v-657l-48 16v641h-239v-657z" />
    <glyph glyph-name="dv_Ka" unicode="&#x915;" horiz-adv-x="853" 
d="M404 239v138q-16 33 -52 63t-98 30q-69 0 -117.5 -46.5t-48.5 -115.5t48.5 -115.5t117.5 -46.5q62 0 98 30t52 63zM404 446v195h-401l-14 39h859l16 -39h-412v-195q22 24 59.5 44.5t87.5 20.5q91 0 156 -52t65 -151q0 -94 -62.5 -148.5t-143.5 -54.5l-12 37
q79 0 122.5 50.5t43.5 115.5q0 69 -48.5 115.5t-117.5 46.5q-62 0 -98 -30t-52 -63v-393l-48 16v166q-22 -24 -59.5 -42.5t-87.5 -18.5q-91 0 -156 52t-65 151t65 151t156 52q50 0 87.5 -20.5t59.5 -44.5z" />
    <glyph glyph-name="dv_Kha" unicode="&#x916;" horiz-adv-x="908" 
d="M594 154q-86 0 -140.5 54.5t-54.5 128.5t54.5 128.5t140.5 54.5q46 0 80.5 -18.5t58.5 -45.5v185h-443q25 -31 36.5 -74t11.5 -79q0 -74 -46 -138.5t-135 -79.5q7 -84 86 -166t198 -82q116 0 191.5 63t100.5 125v8q-25 -26 -59 -45t-80 -19zM733 337v5q-2 54 -38.5 95.5
t-101.5 41.5q-66 -1 -104 -44t-38 -98q0 -56 38 -99t104 -43t103 43t37 99zM733 0v126q-31 -49 -106 -96t-186 -47q-147 0 -236.5 92.5t-95.5 194.5h-24q-11 0 -20.5 7t-9.5 18q0 31 20 57.5t49 26.5q13 0 22.5 -10t14.5 -26l7 -23q50 14 85 62t35 106q0 44 -15 87t-42 66
h-228l-14 39h914l16 -39h-138v-657z" />
    <glyph glyph-name="dv_Ga" unicode="&#x917;" horiz-adv-x="587" 
d="M179 641v-416q0 -21 -7.5 -33t-21.5 -12q-34 0 -60.5 27t-26.5 57q0 13 10 21t23 8h35v348h-128l-14 39h593l16 -39h-138v-657l-48 16v641h-233z" />
    <glyph glyph-name="dv_Gha" unicode="&#x918;" horiz-adv-x="699" 
d="M524 0v223q-26 -57 -89 -96.5t-152 -39.5q-96 0 -155.5 46t-59.5 123q0 46 24.5 87.5t73.5 61.5q-40 13 -64 50t-24 83q0 29 10.5 55.5t29.5 47.5h-115l-14 39h705l16 -39h-138v-657zM196 641q-31 -15 -49 -43.5t-18 -60.5q0 -49 33.5 -81.5t104.5 -32.5h36l16 -39h-47
q-89 0 -121.5 -40t-32.5 -89q0 -65 55 -94t113 -29q99 0 168.5 66.5t69.5 215.5v227h-328z" />
    <glyph glyph-name="dv_Nga" unicode="&#x919;" horiz-adv-x="556" 
d="M523 358q-16 0 -26.5 10.5t-10.5 25.5q0 16 10.5 26.5t26.5 10.5t27 -10.5t11 -26.5q0 -15 -11 -25.5t-27 -10.5zM79 83q36 -25 90 -43t107 -19q79 0 122.5 35t43.5 91q0 48 -34 86.5t-103 38.5h-100q-58 0 -100 33.5t-42 88.5q0 60 42 91t106 31h165v125h-373l-14 39
h562l16 -39h-143v-164h-226q-39 0 -62 -26t-23 -57q0 -33 24 -58t63 -25h96q83 0 139 -41.5t56 -116.5q0 -73 -49.5 -122.5t-165.5 -49.5q-61 0 -120.5 18t-88.5 39z" />
    <glyph glyph-name="dv_Ca" unicode="&#x91a;" horiz-adv-x="668" 
d="M410 424h-96q-70 0 -114.5 -40.5t-44.5 -101.5q0 -67 43 -110t121 -43q66 0 110.5 29.5t63.5 70.5v412h-490l-14 39h674l16 -39h-138v-657l-48 16v159q-23 -25 -67.5 -49t-106.5 -24q-85 0 -149.5 49t-64.5 147q0 46 23.5 86.5t54.5 55.5h-161l-17 39h386z" />
    <glyph glyph-name="dv_Cha" unicode="&#x91b;" horiz-adv-x="712" 
d="M181 353q-54 23 -81.5 67.5t-27.5 88.5q0 37 12 72t37 60h-118l-14 39h718l16 -39h-142v-83q60 -10 89.5 -59t29.5 -92q0 -110 -105 -266.5t-309 -156.5q-113 0 -171 54t-58 141q0 48 35.5 102t88.5 72zM346 333h-94q-56 0 -100 -45t-44 -111q0 -67 48.5 -109.5
t126.5 -42.5q103 0 190 63.5t134 150.5q-63 6 -130.5 53t-67.5 125q0 60 36.5 99t94.5 43v82h-347q-34 -16 -51.5 -50t-17.5 -77q0 -55 35 -100.5t97 -45.5h76zM554 520q-48 0 -73 -31.5t-25 -71.5q0 -64 59.5 -100t108.5 -43q13 32 20.5 65t7.5 64q0 38 -20.5 77.5
t-77.5 39.5z" />
    <glyph glyph-name="dv_Ja" unicode="&#x91c;" horiz-adv-x="732" 
d="M422 275q0 -93 -59 -144.5t-157 -51.5q-60 0 -108.5 17.5t-80.5 39.5l13 45q35 -27 80 -43t96 -16q79 0 121.5 43t42.5 110q0 61 -44.5 101.5t-114.5 40.5h-83l-17 39h446v185h-554l-14 39h738l16 -39h-138v-657l-48 16v417h-214q37 -14 58 -55t21 -87z" />
    <glyph glyph-name="dv_Jha" unicode="&#x91d;" horiz-adv-x="826" 
d="M651 641h-223v-164h-234q-39 0 -62 -26t-23 -57q0 -33 24 -58t63 -25h104q48 0 88.5 -14.5t66.5 -41.5h196v386zM169 40q27 -8 55 -13t56 -6q79 0 122.5 35t43.5 91q0 48 -34 86.5t-103 38.5h-108q-58 0 -100 33.5t-42 88.5q0 60 42 91t106 31h173v125h-377l-14 39h832
l16 -39h-138v-657l-48 16v220h-171q7 -15 11 -31.5t4 -35.5q0 -66 -52.5 -119t-162.5 -53q-22 0 -44 3t-44 7l102 -127l-31 -20l-128 164q-28 12 -56 35.5t-28 51.5q0 9 6 19.5t20 10.5q22 0 46 -15.5t46 -69.5z" />
    <glyph glyph-name="dv_Nya" unicode="&#x91e;" horiz-adv-x="745" 
d="M430 279q-8 -94 -70.5 -140t-142.5 -46q-60 0 -108.5 17.5t-80.5 39.5l13 45q35 -27 80 -43t96 -16q78 0 121 46.5t43 119.5t-37.5 119.5t-126.5 46.5q-25 0 -52 -4.5t-49 -11.5l-14 40q25 8 54.5 13t60.5 5q83 0 146 -42.5t68 -149.5h139v323h-567l-14 39h751l16 -39
h-138v-657l-48 16v279h-140z" />
    <glyph glyph-name="dv_Tta" unicode="&#x91f;" horiz-adv-x="598" 
d="M109 227q0 -109 69 -157.5t179 -48.5q55 0 104.5 15t95.5 48l8 -43q-38 -29 -93 -44t-115 -15q-115 0 -207.5 52t-92.5 193q0 124 90.5 186t221.5 62h77v166h-443l-14 39h604l16 -39h-115v-205h-125q-121 0 -190.5 -56.5t-69.5 -152.5z" />
    <glyph glyph-name="dv_Ttha" unicode="&#x920;" horiz-adv-x="696" 
d="M356 -18q-120 0 -209.5 58.5t-89.5 186.5q0 110 78 175t197 71v168h-329l-14 39h702l16 -39h-327v-168q112 -5 193.5 -64t81.5 -180q0 -116 -85.5 -181.5t-213.5 -65.5zM356 23q108 0 178 55t70 151q0 105 -69.5 154.5t-178.5 49.5q-108 0 -178 -55t-70 -151
q0 -105 69.5 -154.5t178.5 -49.5z" />
    <glyph glyph-name="dv_Dda" unicode="&#x921;" horiz-adv-x="531" 
d="M79 83q36 -25 90 -43t107 -19q79 0 122.5 35t43.5 91q0 48 -34 86.5t-103 38.5h-100q-58 0 -100 33.5t-42 88.5q0 60 42 91t106 31h165v125h-373l-14 39h537l16 -39h-118v-164h-226q-39 0 -62 -26t-23 -57q0 -33 24 -58t63 -25h96q83 0 139 -41.5t56 -116.5
q0 -73 -49.5 -122.5t-165.5 -49.5q-61 0 -120.5 18t-88.5 39z" />
    <glyph glyph-name="dv_Ddha" unicode="&#x922;" horiz-adv-x="626" 
d="M356 21h14q-38 20 -55.5 59.5t-17.5 67.5q0 58 42 99t103 41q67 0 107 -39.5t40 -94.5q0 -72 -68 -122t-165 -50q-115 0 -207.5 54.5t-92.5 195.5q0 124 90.5 188.5t221.5 64.5h77v156h-442l-14 39h632l16 -39h-144v-195h-125q-121 0 -190.5 -59t-69.5 -155
q0 -109 69 -160t179 -51zM447 245q-50 0 -75 -30t-25 -70q0 -42 21.5 -70.5t55.5 -44.5q55 15 84.5 49.5t29.5 72.5q0 32 -21 62.5t-70 30.5z" />
    <glyph glyph-name="dv_Nna" unicode="&#x923;" horiz-adv-x="841" 
d="M666 0v641h-202v-264q0 -99 -49 -149t-134 -50q-84 0 -133.5 50t-49.5 149v264h-95l-14 39h847l16 -39h-138v-657zM145 367q0 -68 37 -109t101 -42q61 2 97.5 43t36.5 108v274h-272v-274z" />
    <glyph glyph-name="dv_Ta" unicode="&#x924;" horiz-adv-x="635" 
d="M460 0v409h-191q-83 0 -120 -34.5t-37 -86.5q0 -58 44.5 -131t91.5 -140q3 -4 5.5 -7.5t4.5 -7.5l-42 -20q-50 72 -101 155.5t-51 154.5q0 66 45 111t125 45h226v193h-457l-14 39h641l16 -39h-138v-657z" />
    <glyph glyph-name="dv_Tha" unicode="&#x925;" horiz-adv-x="629" 
d="M454 345v296h-124l-14 39h308l16 -39h-138v-657l-48 16v239q-18 -31 -62.5 -46t-90.5 -15q-88 0 -149.5 56.5t-61.5 128.5l12 14q46 15 90 48t44 92v11t-1 11q-14 -19 -41.5 -32.5t-53.5 -13.5q-43 0 -77.5 26.5t-34.5 69.5q0 42 30.5 73.5t81.5 31.5q61 0 101 -51
t40 -113q0 -81 -45.5 -122.5t-99.5 -63.5q18 -61 63.5 -91.5t101.5 -33.5q63 0 107 32t46 94zM77 592q0 -23 18.5 -41.5t47.5 -18.5q28 0 49 18t30 39q-12 29 -33 47.5t-48 18.5q-30 0 -47 -18.5t-17 -44.5z" />
    <glyph glyph-name="dv_Da" unicode="&#x926;" horiz-adv-x="564" 
d="M524 -21l-39 -22l-73 135q-21 -5 -44.5 -7t-47.5 -2q-104 0 -183 55t-79 170q0 92 73.5 152t199.5 60h72v121h-400l-14 39h570l16 -39h-124v-160h-113q-105 0 -167.5 -49t-62.5 -124q0 -80 56 -131.5t156 -51.5q19 0 38 2t34 5q-8 17 -12 28t-4 18q0 21 13 29.5t28 8.5
q22 0 46.5 -12.5t24.5 -34.5q0 -14 -10 -30t-29 -31z" />
    <glyph glyph-name="dv_Dha" unicode="&#x927;" horiz-adv-x="703" 
d="M528 0v223q-26 -57 -89 -96.5t-152 -39.5q-96 0 -155.5 46t-59.5 123q0 46 24.5 87.5t73.5 61.5q-40 13 -64 50t-24 83q0 63 47 109.5t128 46.5q47 0 84.5 -18.5t48.5 -34.5l-30 -26q-15 16 -42.5 26.5t-61.5 10.5q-56 0 -89.5 -35t-33.5 -80q0 -49 33.5 -81.5
t104.5 -32.5h36l16 -39h-47q-89 0 -121.5 -40t-32.5 -89q0 -65 55 -94t113 -29q96 0 167 63.5t71 203.5v242h-93l-14 39h277l16 -39h-138v-657z" />
    <glyph glyph-name="dv_Na" unicode="&#x928;" horiz-adv-x="586" 
d="M411 0v332h-250v-29q0 -21 -7.5 -33t-21.5 -12q-34 0 -60.5 27t-26.5 57q0 13 10 21t23 8h333v270h-408l-14 39h592l16 -39h-138v-657z" />
    <glyph glyph-name="dv_Nnna" unicode="&#x929;" horiz-adv-x="586" 
d="M411 0v332h-250v-29q0 -21 -7.5 -33t-21.5 -12q-34 0 -60.5 27t-26.5 57q0 13 10 21t23 8h333v270h-408l-14 39h592l16 -39h-138v-657zM130 -22q-16 0 -26.5 10.5t-10.5 25.5q0 16 10.5 26.5t26.5 10.5t27 -10.5t11 -26.5q0 -15 -11 -25.5t-27 -10.5z" />
    <glyph glyph-name="dv_Pa" unicode="&#x92a;" horiz-adv-x="621" 
d="M446 0v237q-18 -25 -58 -42t-86 -17q-102 0 -157 55t-55 154v254h-87l-14 39h627l16 -39h-138v-657zM446 343v298h-308v-267q0 -69 44 -111.5t120 -42.5q63 0 102.5 35t41.5 88z" />
    <glyph glyph-name="dv_Pha" unicode="&#x92b;" horiz-adv-x="895" 
d="M138 374q0 -69 44 -111.5t120 -42.5q65 0 104.5 37t39.5 92v292h-308v-267zM446 0v237q-18 -25 -58 -42t-86 -17q-102 0 -157 55t-55 154v254h-87l-14 39h901l16 -39h-412v-195q22 24 59.5 44.5t87.5 20.5q91 0 156 -52t65 -151q0 -94 -62.5 -148.5t-143.5 -54.5l-12 37
q79 0 122.5 50.5t43.5 115.5q0 69 -48.5 115.5t-117.5 46.5q-62 0 -98 -30t-52 -63v-393z" />
    <glyph glyph-name="dv_Ba" unicode="&#x92c;" horiz-adv-x="579" 
d="M404 0v166q-22 -24 -59.5 -42.5t-87.5 -18.5q-91 0 -156 52t-65 151t65 151t156 52q50 0 87.5 -18.5t59.5 -42.5v191h-401l-14 39h585l16 -39h-138v-657zM404 239v138q-16 33 -52 63t-98 30q-28 0 -52.5 -8t-44.5 -22l220 -241q9 10 15.5 20t11.5 20zM88 308
q0 -69 48.5 -115.5t117.5 -46.5q29 0 53 7.5t42 20.5l-221 240q-19 -21 -29.5 -48t-10.5 -58z" />
    <glyph glyph-name="dv_Bha" unicode="&#x92d;" horiz-adv-x="696" 
d="M521 0v261h-262v-29q0 -21 -7.5 -33t-21.5 -12q-34 0 -60.5 27t-26.5 57q0 13 10 21t23 8h36v206q-12 -12 -31 -18.5t-41 -6.5q-51 0 -81.5 29.5t-30.5 74.5q0 46 31.5 77.5t80.5 31.5q60 0 90 -39.5t30 -98.5v-256h261v341h-124l-14 39h308l16 -39h-138v-657zM73 586
q0 -23 17 -46t54 -23q25 0 42.5 12.5t25.5 25.5q-1 37 -15 68.5t-54 31.5q-34 0 -52 -22t-18 -47z" />
    <glyph glyph-name="dv_Ma" unicode="&#x92e;" horiz-adv-x="621" 
d="M446 0v261h-293v-29q0 -21 -7.5 -33t-21.5 -12q-34 0 -60.5 27t-26.5 57q0 13 10 21t23 8h36v341h-103l-14 39h627l16 -39h-138v-657zM446 641h-292v-341h292v341z" />
    <glyph glyph-name="dv_Ya" unicode="&#x92f;" horiz-adv-x="606" 
d="M431 0v239q-18 -31 -62.5 -46t-90.5 -15q-88 0 -149.5 56.5t-61.5 128.5l12 14q31 9 56.5 46.5t25.5 92.5q0 42 -17.5 77t-51.5 48h-89l-14 39h612l16 -39h-138v-657zM113 344q18 -61 63.5 -91t101.5 -33q63 0 108 28t45 89v304h-278q20 -13 38 -50t18 -81
q0 -48 -24.5 -95t-71.5 -71z" />
    <glyph glyph-name="dv_Ra" unicode="&#x930;" horiz-adv-x="423" 
d="M124 270h-39q-11 0 -20.5 6.5t-9.5 18.5q0 32 20 58t49 26q13 0 22.5 -10t14.5 -26l7 -23q50 14 85 62t35 106q0 44 -15 87t-42 66h-228l-14 39h429l16 -39h-144q25 -31 36.5 -74t11.5 -79q0 -74 -43.5 -133t-121.5 -81l171 -274l-49 -18z" />
    <glyph glyph-name="dv_Rra" unicode="&#x931;" horiz-adv-x="423" 
d="M124 270h-39q-11 0 -20.5 7t-9.5 18q0 32 20 58t49 26q13 0 22.5 -10t14.5 -26l7 -23q50 14 85 62t35 106q0 44 -15 87t-42 66h-228l-14 39h429l16 -39h-144q25 -31 36.5 -74t11.5 -79q0 -74 -43.5 -133t-121.5 -81l171 -274l-49 -18zM101 -18q-16 0 -26.5 10.5
t-10.5 25.5q0 16 10.5 26.5t26.5 10.5t27 -10.5t11 -26.5q0 -15 -11 -25.5t-27 -10.5z" />
    <glyph glyph-name="dv_La" unicode="&#x932;" horiz-adv-x="819" 
d="M644 0v341q-7 35 -34.5 67.5t-76.5 32.5q-54 0 -86.5 -42.5t-32.5 -108.5v-134l-48 16v118q0 66 -34.5 107.5t-97.5 41.5q-64 0 -99 -39t-35 -94q0 -79 31 -142.5t80 -162.5l-42 -19q-45 88 -82 166t-37 165q0 67 46.5 117t137.5 50q50 0 90 -21t64 -58q23 38 61 58.5
t85 20.5q40 0 70 -18t40 -32v211h-641l-14 39h825l16 -39h-138v-657z" />
    <glyph glyph-name="dv_Lla" unicode="&#x933;" horiz-adv-x="888" 
d="M848 281q0 -95 -57.5 -162t-153.5 -67q-59 0 -115 41.5t-85 95.5q-25 -51 -71.5 -94t-103.5 -43q-98 0 -153.5 60.5t-55.5 156.5q0 95 57.5 162t153.5 67q59 0 115 -41.5t85 -95.5q23 48 65 88.5t93 47.5v144h-619l-14 39h894l16 -39h-229v-145q84 -10 131 -68.5
t47 -146.5zM635 455q-58 0 -101 -63t-60 -120q-4 -10 -6.5 -19.5t-6.5 -19.5q28 -51 72 -94.5t102 -43.5q72 0 118 52t46 136q0 77 -46 124.5t-118 47.5zM266 95q58 0 101 63t60 120q4 10 6.5 19.5t6.5 19.5q-28 51 -72 94.5t-102 43.5q-72 0 -118 -52t-46 -136
q0 -77 46 -124.5t118 -47.5z" />
    <glyph glyph-name="dv_Llla" unicode="&#x934;" horiz-adv-x="888" 
d="M848 281q0 -95 -57.5 -162t-153.5 -67q-59 0 -115 41.5t-85 95.5q-25 -51 -71.5 -94t-103.5 -43q-98 0 -153.5 60.5t-55.5 156.5q0 95 57.5 162t153.5 67q59 0 115 -41.5t85 -95.5q23 48 65 88.5t93 47.5v144h-619l-14 39h894l16 -39h-229v-145q84 -10 131 -68.5
t47 -146.5zM635 455q-58 0 -101 -63t-60 -120q-4 -10 -6.5 -19.5t-6.5 -19.5q28 -51 72 -94.5t102 -43.5q72 0 118 52t46 136q0 77 -46 124.5t-118 47.5zM266 95q58 0 101 63t60 120q4 10 6.5 19.5t6.5 19.5q-28 51 -72 94.5t-102 43.5q-72 0 -118 -52t-46 -136
q0 -77 46 -124.5t118 -47.5zM436 -74q-16 0 -26.5 10.5t-10.5 25.5q0 16 10.5 26.5t26.5 10.5t27 -10.5t11 -26.5q0 -15 -11 -25.5t-27 -10.5z" />
    <glyph glyph-name="dv_Va" unicode="&#x935;" horiz-adv-x="579" 
d="M404 450v191h-401l-14 39h585l16 -39h-138v-657l-48 16v166q-22 -24 -59.5 -42.5t-87.5 -18.5q-91 0 -156 52t-65 151t65 151t156 52q50 0 87.5 -18.5t59.5 -42.5zM88 308q0 -69 48.5 -115.5t117.5 -46.5q62 0 98 30t52 63v138q-16 33 -52 63t-98 30q-69 0 -117.5 -46.5
t-48.5 -115.5z" />
    <glyph glyph-name="dv_Sha" unicode="&#x936;" horiz-adv-x="736" 
d="M561 0v641h-124l-14 39h308l16 -39h-138v-657zM102 586q0 -23 21 -42t56 -19q31 0 60 24t46 53q-18 22 -43 37t-56 15q-34 0 -59 -18t-25 -50zM189 694q81 0 135 -61.5t54 -150.5q0 -74 -44.5 -130t-122.5 -78l171 -274l-47 -18l-171 288h-39q-11 0 -20.5 6t-9.5 19
q0 32 20 58t49 26q13 0 22.5 -10t14.5 -26l7 -23q50 14 85 60t35 104q0 18 -6 40.5t-17 44.5q-17 -31 -49.5 -57t-79.5 -26q-51 0 -86.5 26.5t-35.5 69.5q0 46 36 79t99 33z" />
    <glyph glyph-name="dv_Ssa" unicode="&#x937;" horiz-adv-x="621" 
d="M446 0v237q-18 -25 -58 -42t-86 -17q-102 0 -157 55t-55 154v254h-87l-14 39h627l16 -39h-138v-657zM446 343v298h-291l288 -319q1 5 1.5 10.5t1.5 10.5zM138 374q0 -69 44 -111.5t120 -42.5q43 0 76 17t50 46l-290 319v-228z" />
    <glyph glyph-name="dv_Sa" unicode="&#x938;" horiz-adv-x="733" 
d="M558 641h-268q25 -31 36.5 -74t11.5 -79q0 -44 -16 -84t-45 -70h281v307zM124 270h-39q-11 0 -20.5 7.5t-9.5 17.5q0 34 20 59t49 25q13 0 22.5 -10t14.5 -26l7 -23q50 14 85 62t35 106q0 44 -15 87t-42 66h-228l-14 39h739l16 -39h-138v-657l-48 16v299h-326
q-13 -8 -28 -14.5t-31 -10.5l171 -274l-49 -18z" />
    <glyph glyph-name="dv_Ha" unicode="&#x939;" horiz-adv-x="526" 
d="M437 236q0 50 -43.5 80.5t-112.5 30.5q-72 0 -114 -41t-42 -101q0 -90 80 -133.5t162 -48.5l-15 -39q-106 6 -191 64t-85 157q0 41 15 76t45 60q-22 13 -38.5 38.5t-16.5 53.5q1 54 35.5 79t98.5 25h166v104h-378l-14 39h532l16 -39h-108v-143h-230q-32 0 -51 -19
t-19 -45q0 -27 13.5 -43.5t32.5 -25.5q22 10 49 15.5t59 5.5q94 0 145.5 -44.5t51.5 -103.5q0 -29 -13.5 -60.5t-36.5 -49.5l-29 30q20 18 28 37t8 41z" />
    <glyph glyph-name="dv_MatraOe" unicode="&#x93a;" horiz-adv-x="0" 
d="M-44 881v-201h-48v217z" />
    <glyph glyph-name="dv_MatraOoe" unicode="&#x93b;" 
d="M175 881v-201h122l16 -39h-138v-657l-48 16v641h-124l-14 39h138v217z" />
    <glyph glyph-name="dv_Nukta" unicode="&#x93c;" horiz-adv-x="0" 
d="M69 -125q-16 0 -26.5 10.5t-10.5 25.5q0 16 10.5 26.5t26.5 10.5t27 -10.5t11 -26.5q0 -15 -11 -25.5t-27 -10.5z" />
    <glyph glyph-name="dv_Avagraha" unicode="&#x93d;" horiz-adv-x="511" 
d="M458 159q0 -75 -57 -126.5t-164 -51.5q-61 0 -120.5 18t-88.5 39l12 45q36 -25 90 -43.5t107 -18.5q78 0 124 39.5t46 98.5q0 57 -53.5 129.5t-107.5 136.5l-180 212v43h385l12 -39h-350l152 -172q60 -68 126.5 -154.5t66.5 -155.5z" />
    <glyph glyph-name="dv_MatraAa" unicode="&#x93e;" 
d="M127 0v641h-124l-14 39h308l16 -39h-138v-657z" />
    <glyph glyph-name="dv_MatraI" unicode="&#x93f;" 
d="M709 716q-75 51 -193 118t-222 67q-80 0 -117 -36t-37 -90q0 -34 11.5 -59.5t21.5 -35.5h124l16 -39h-138v-657l-48 16v641h-124l-14 39h134q-13 16 -23 43t-10 55q0 74 53 118.5t149 44.5q113 0 247.5 -75.5t194.5 -122.5z" />
    <glyph glyph-name="dv_MatraIi" unicode="&#x940;" 
d="M-145 731l-34 -23q-14 20 -24.5 47t-10.5 57q0 55 37.5 92t97.5 37q108 0 166 -93t81 -168h129l16 -39h-138v-657l-48 16v641h-124l-14 39h132q-13 43 -62 132.5t-134 89.5q-41 0 -68 -24t-27 -67q0 -19 6 -40.5t19 -39.5z" />
    <glyph glyph-name="dv_MatraU" unicode="&#x941;" horiz-adv-x="0" 
d="M-350 -115q46 -60 97.5 -101t112.5 -41q54 0 80 31t26 69t-28.5 69t-77.5 31h-48v39h54q57 0 102.5 -37t45.5 -102t-46 -102t-109 -37q-69 0 -131.5 42.5t-110.5 117.5z" />
    <glyph glyph-name="dv_MatraUu" unicode="&#x942;" horiz-adv-x="0" 
d="M72 -199q-46 60 -97.5 101t-112.5 41q-54 0 -80 -31t-26 -69t28.5 -69t77.5 -31h48v-39h-54q-57 0 -102.5 37t-45.5 102t46 102t109 37q69 0 131.5 -42.5t110.5 -117.5z" />
    <glyph glyph-name="dv_MatraVocalicR" unicode="&#x943;" horiz-adv-x="0" 
d="M-273 -157q0 -48 29 -74t77 -26q16 0 31 2.5t29 6.5l7 -37q-17 -5 -37.5 -8t-40.5 -3q-56 0 -99.5 37t-43.5 102t45.5 102t97.5 37h59v-39h-48q-43 0 -74.5 -26t-31.5 -74z" />
    <glyph glyph-name="dv_MatraVocalicRr" unicode="&#x944;" horiz-adv-x="0" 
d="M-223 -156q-12 4 -26 20.5t-14 35.5q0 46 32.5 64t67.5 18h40v-37h-42q-24 0 -40 -11.5t-16 -30.5q0 -18 15.5 -29.5t40.5 -11.5h39l-29 -35q-34 0 -50 -12.5t-16 -28.5q0 -18 13 -30t48 -12h37l-22 -37h-18q-35 0 -67.5 17.5t-32.5 61.5q0 19 12 35t28 23z" />
    <glyph glyph-name="dv_MatraCandraE" unicode="&#x945;" horiz-adv-x="0" 
d="M382 920l35 -18q-34 -66 -84 -99.5t-115 -33.5q-66 0 -116.5 33.5t-84.5 99.5l35 18q28 -56 72.5 -84t93.5 -28q48 0 91.5 28t72.5 84z" />
    <glyph glyph-name="dv_MatraShortE" unicode="&#x946;" horiz-adv-x="0" 
d="M-411 926q0 -38 33 -65t86 -27q79 -1 126.5 -41.5t47.5 -95.5v-35h-48v35q0 38 -31.5 67t-87.5 29q-72 0 -123 38.5t-51 94.5v15z" />
    <glyph glyph-name="dv_MatraE" unicode="&#x947;" horiz-adv-x="0" 
d="M-121 666h-52l-260 238l32 31z" />
    <glyph glyph-name="dv_MatraAi" unicode="&#x948;" horiz-adv-x="0" 
d="M-134 680h-44l-42 45q-51 57 -89 69t-81 12h-85l-13 39h95q56 0 102.5 -15t101.5 -84l-74 247l45 24z" />
    <glyph glyph-name="dv_MatraCandraO" unicode="&#x949;" 
d="M316 920l35 -18q-34 -66 -84 -99.5t-115 -33.5q-66 0 -116.5 33.5t-84.5 99.5l35 18q28 -56 72.5 -84t93.5 -28q48 0 91.5 28t72.5 84zM127 0v641h-124l-14 39h308l16 -39h-138v-657z" />
    <glyph glyph-name="dv_MatraShortO" unicode="&#x94a;" 
d="M127 0v641h-124l-14 39h138v17q0 38 -31.5 67t-87.5 29q-72 0 -123 38.5t-51 94.5v15l48 -15q0 -38 33 -65t86 -27q79 -1 126.5 -41.5t47.5 -95.5v-17h122l16 -39h-138v-657z" />
    <glyph glyph-name="dv_MatraO" unicode="&#x94b;" 
d="M127 0v641h-124l-14 39h130l-244 224l32 31l264 -255h126l16 -39h-138v-657z" />
    <glyph glyph-name="dv_MatraAu" unicode="&#x94c;" 
d="M127 0v641h-124l-14 39h137l-42 45q-51 57 -89 69t-81 12h-85l-13 39h95q56 0 102.5 -15t101.5 -84l-74 247l45 24l84 -337h127l16 -39h-138v-657z" />
    <glyph glyph-name="dv_Halant" unicode="&#x94d;" horiz-adv-x="0" 
d="M13 -288l-204 183l29 36l196 -192z" />
    <glyph glyph-name="dv_PrishtaMatraE" unicode="&#x94e;" 
d="M127 0v680h170l16 -39h-138v-657z" />
    <glyph glyph-name="dv_MatraAw" unicode="&#x94f;" 
d="M-35 778h93q21 0 37.5 -2t29.5 -5q-4 20 -16 37.5t-35 23.5q-60 16 -88 51t-28 75v15l48 -15q0 -37 19 -56t50 -29q55 -17 77.5 -52.5t22.5 -91.5v-49h122l16 -39h-138v-657l-48 16v641h-124l-14 39h139q0 27 -11.5 43t-34.5 16h-111q-78 0 -120 38t-42 89v14l48 -14
q0 -38 32 -63t76 -25z" />
    <glyph glyph-name="dv_Om" unicode="&#x950;" horiz-adv-x="841" 
d="M612 789q-16 0 -26.5 10.5t-10.5 25.5q0 16 10.5 26.5t26.5 10.5t27 -10.5t11 -26.5q0 -15 -11 -25.5t-27 -10.5zM778 804l35 -18q-34 -66 -84 -99.5t-115 -33.5q-66 0 -116.5 33.5t-84.5 99.5l35 18q28 -56 72.5 -84t93.5 -28q48 0 91.5 28t72.5 84zM271 694
q104 0 152.5 -55.5t48.5 -129.5q0 -44 -28 -88.5t-82 -67.5q19 -7 36.5 -18.5t31.5 -26.5q24 27 70.5 53t110.5 26q99 0 157.5 -61t58.5 -143q0 -95 -73.5 -149t-133.5 -54l-18 36q63 0 118.5 47.5t55.5 120.5q0 65 -46 113.5t-117 48.5q-54 0 -95.5 -22t-63.5 -47
q15 -23 24 -49t9 -49q0 -87 -58 -141t-171 -54q-57 0 -107 17.5t-81 39.5l12 43q37 -25 82 -42t97 -17q78 0 126.5 42.5t48.5 109.5q0 66 -44 111t-100 45h-120l-14 35h136q59 0 92.5 46t33.5 100q0 59 -42.5 99t-105.5 40q-51 0 -97 -18.5t-84 -48.5l-9 43q32 26 79 45.5
t110 19.5z" />
    <glyph glyph-name="dv_Udatta" unicode="&#x951;" horiz-adv-x="0" 
d="M64 759h-28l-7 180h43z" />
    <glyph glyph-name="dv_Anudatta" unicode="&#x952;" horiz-adv-x="0" 
d="M511 -126h-480l-14 39h478z" />
    <glyph glyph-name="dv_Graveaccent" unicode="&#x953;" horiz-adv-x="0" 
d="M144 759h-34l-83 180h54z" />
    <glyph glyph-name="dv_Acuteaccent" unicode="&#x954;" horiz-adv-x="0" 
d="M61 759h-34l63 180h54z" />
    <glyph glyph-name="dv_MatraCandraLongE" unicode="&#x955;" horiz-adv-x="0" 
d="M385 956l35 -18q-34 -66 -84 -99.5t-115 -33.5q-66 0 -116.5 33.5t-84.5 99.5l35 18q28 -56 72.5 -84t93.5 -28q48 0 91.5 28t72.5 84zM436 726h-405l-14 39h403z" />
    <glyph glyph-name="dv_MatraUe" unicode="&#x956;" horiz-adv-x="0" 
d="M382 -47l35 -18q-34 -66 -84 -99.5t-115 -33.5q-66 0 -116.5 33.5t-84.5 99.5l35 18q28 -56 72.5 -84t93.5 -28q48 0 91.5 28t72.5 84z" />
    <glyph glyph-name="dv_MatraUue" unicode="&#x957;" horiz-adv-x="0" 
d="M462 -67q-35 -58 -85 -85t-116 -27t-116 27t-85 85l35 18q30 -50 73.5 -70.5t92.5 -20.5t92.5 20.5t73.5 70.5zM509 -157q-40 -57 -107 -86t-139 -29t-139 29t-107 86l35 18q28 -39 89.5 -66.5t121.5 -27.5t121.5 27.5t89.5 66.5z" />
    <glyph glyph-name="dv_Qa" unicode="&#x958;" horiz-adv-x="853" 
d="M404 239v138q-16 33 -52 63t-98 30q-69 0 -117.5 -46.5t-48.5 -115.5t48.5 -115.5t117.5 -46.5q62 0 98 30t52 63zM404 446v195h-401l-14 39h859l16 -39h-412v-195q22 24 59.5 44.5t87.5 20.5q91 0 156 -52t65 -151q0 -94 -62.5 -148.5t-143.5 -54.5l-12 37
q79 0 122.5 50.5t43.5 115.5q0 69 -48.5 115.5t-117.5 46.5q-62 0 -98 -30t-52 -63v-393l-48 16v166q-22 -24 -59.5 -42.5t-87.5 -18.5q-91 0 -156 52t-65 151t65 151t156 52q50 0 87.5 -20.5t59.5 -44.5zM144 -58q-16 0 -26.5 10.5t-10.5 25.5q0 16 10.5 26.5t26.5 10.5
t27 -10.5t11 -26.5q0 -15 -11 -25.5t-27 -10.5z" />
    <glyph glyph-name="dv_Khha" unicode="&#x959;" horiz-adv-x="908" 
d="M594 154q-86 0 -140.5 54.5t-54.5 128.5t54.5 128.5t140.5 54.5q46 0 80.5 -18.5t58.5 -45.5v185h-443q25 -31 36.5 -74t11.5 -79q0 -74 -46 -138.5t-135 -79.5q7 -84 86 -166t198 -82q116 0 191.5 63t100.5 125v8q-25 -26 -59 -45t-80 -19zM733 337v5q-2 54 -38.5 95.5
t-101.5 41.5q-67 0 -104.5 -43.5t-37.5 -98.5q0 -56 38 -99t104 -43t103 43t37 99zM733 0v126q-31 -49 -106 -96t-186 -47q-147 0 -236.5 92.5t-95.5 194.5h-24q-11 0 -20.5 7.5t-9.5 17.5q0 31 20 57.5t49 26.5q13 0 22.5 -10t14.5 -26l7 -23q50 14 85 62t35 106
q0 44 -15 87t-42 66h-228l-14 39h914l16 -39h-138v-657zM88 -20q-16 0 -26.5 10.5t-10.5 25.5q0 16 10.5 26.5t26.5 10.5t27 -10.5t11 -26.5q0 -15 -11 -25.5t-27 -10.5z" />
    <glyph glyph-name="dv_Ghha" unicode="&#x95a;" horiz-adv-x="587" 
d="M179 641v-416q0 -21 -7.5 -33t-21.5 -12q-34 0 -60.5 27t-26.5 57q0 13 10 21t23 8h35v348h-128l-14 39h593l16 -39h-138v-657l-48 16v641h-233zM153 -22q-16 0 -26.5 10.5t-10.5 25.5q0 16 10.5 26.5t26.5 10.5t27 -10.5t11 -26.5q0 -15 -11 -25.5t-27 -10.5z" />
    <glyph glyph-name="dv_Za" unicode="&#x95b;" horiz-adv-x="732" 
d="M422 275q0 -93 -59 -144.5t-157 -51.5q-60 0 -108.5 17.5t-80.5 39.5l13 45q35 -27 80 -43t96 -16q79 0 121.5 43t42.5 110q0 61 -44.5 101.5t-114.5 40.5h-83l-17 39h446v185h-554l-14 39h738l16 -39h-138v-657l-48 16v417h-214q37 -14 58 -55t21 -87zM210 -58
q-16 0 -26.5 10.5t-10.5 25.5q0 16 10.5 26.5t26.5 10.5t27 -10.5t11 -26.5q0 -15 -11 -25.5t-27 -10.5z" />
    <glyph glyph-name="dv_Dddha" unicode="&#x95c;" horiz-adv-x="531" 
d="M79 83q36 -25 90 -43t107 -19q79 0 122.5 35t43.5 91q0 48 -34 86.5t-103 38.5h-100q-58 0 -100 33.5t-42 88.5q0 60 42 91t106 31h165v125h-373l-14 39h537l16 -39h-118v-164h-226q-39 0 -62 -26t-23 -57q0 -33 24 -58t63 -25h96q83 0 139 -41.5t56 -116.5
q0 -73 -49.5 -122.5t-165.5 -49.5q-61 0 -120.5 18t-88.5 39zM274 -143q-16 0 -26.5 10.5t-10.5 25.5q0 16 10.5 26.5t26.5 10.5t27 -10.5t11 -26.5q0 -15 -11 -25.5t-27 -10.5z" />
    <glyph glyph-name="dv_Rha" unicode="&#x95d;" horiz-adv-x="626" 
d="M356 21h14q-38 20 -55.5 59.5t-17.5 67.5q0 58 42 99t103 41q67 0 107 -39.5t40 -94.5q0 -72 -68 -122t-165 -50q-115 0 -207.5 54.5t-92.5 195.5q0 124 90.5 188.5t221.5 64.5h77v156h-442l-14 39h632l16 -39h-144v-195h-125q-121 0 -190.5 -59t-69.5 -155
q0 -109 69 -160t179 -51zM447 245q-50 0 -75 -30t-25 -70q0 -42 21.5 -70.5t55.5 -44.5q55 15 84.5 49.5t29.5 72.5q0 32 -21 62.5t-70 30.5zM356 -143q-16 0 -26.5 10.5t-10.5 25.5q0 16 10.5 26.5t26.5 10.5t27 -10.5t11 -26.5q0 -15 -11 -25.5t-27 -10.5z" />
    <glyph glyph-name="dv_Fa" unicode="&#x95e;" horiz-adv-x="895" 
d="M138 374q0 -69 44 -111.5t120 -42.5q65 0 104.5 37t39.5 92v292h-308v-267zM446 0v237q-18 -25 -58 -42t-86 -17q-102 0 -157 55t-55 154v254h-87l-14 39h901l16 -39h-412v-195q22 24 59.5 44.5t87.5 20.5q91 0 156 -52t65 -151q0 -94 -62.5 -148.5t-143.5 -54.5l-12 37
q79 0 122.5 50.5t43.5 115.5q0 69 -48.5 115.5t-117.5 46.5q-62 0 -98 -30t-52 -63v-393zM171 -58q-16 0 -26.5 10.5t-10.5 25.5q0 16 10.5 26.5t26.5 10.5t27 -10.5t11 -26.5q0 -15 -11 -25.5t-27 -10.5z" />
    <glyph glyph-name="dv_Yya" unicode="&#x95f;" horiz-adv-x="606" 
d="M431 0v239q-18 -31 -62.5 -46t-90.5 -15q-88 0 -149.5 56.5t-61.5 128.5l12 14q31 9 56.5 46.5t25.5 92.5q0 42 -17.5 77t-51.5 48h-89l-14 39h612l16 -39h-138v-657zM113 344q18 -61 63.5 -91t101.5 -33q63 0 108 28t45 89v304h-278q20 -13 38 -50t18 -81
q0 -48 -24.5 -95t-71.5 -71zM140 -20q-16 0 -26.5 10.5t-10.5 25.5q0 16 10.5 26.5t26.5 10.5t27 -10.5t11 -26.5q0 -15 -11 -25.5t-27 -10.5z" />
    <glyph glyph-name="dv_VocalicRr" unicode="&#x960;" horiz-adv-x="808" 
d="M372 0v256l-277 -150l-26 38l303 163q-69 83 -126.5 107.5t-100.5 24.5q-19 0 -44.5 -9t-47.5 -19l-25 43q22 8 55.5 18t51.5 10q43 0 105 -17.5t132 -96.5v273h-369l-14 39h814l16 -39h-399v-317h20q81 0 128 28t62 53q-10 12 -18.5 23.5t-8.5 29.5q0 19 11.5 32.5
t29.5 13.5q30 0 48.5 -19t18.5 -35q0 -12 -5 -26t-20 -27q30 -26 55 -66t25 -93q0 -61 -66.5 -103.5t-66.5 -75.5q0 -18 15.5 -26.5t40.5 -8.5h39l-29 -35q-34 0 -50 -12.5t-16 -28.5q0 -18 13 -30t48 -12h37l-22 -37h-18q-35 0 -67.5 17.5t-32.5 61.5q0 19 8.5 35t24.5 23
q-12 4 -22.5 20.5t-10.5 35.5q0 54 63 92t63 87q0 47 -21 78t-43 50q-21 -29 -73 -56.5t-121 -27.5h-39v-301z" />
    <glyph glyph-name="dv_VocalicLl" unicode="&#x961;" horiz-adv-x="809" 
d="M592 -7q-12 4 -26 20.5t-14 35.5q0 43 29 61.5t63 20.5v210q-7 35 -34.5 67.5t-76.5 32.5q-54 0 -86.5 -42.5t-32.5 -108.5v-134l-48 16v118q0 66 -34.5 107.5t-97.5 41.5q-64 0 -99 -39t-35 -94q0 -79 31 -142.5t80 -162.5l-42 -19q-45 88 -82 166t-37 165
q0 67 46.5 117t137.5 50q50 0 90 -21t64 -58q23 38 61 58.5t85 20.5q40 0 70 -18t40 -32v211h-641l-14 39h815l16 -39h-128v-547h-42q-24 0 -40 -11.5t-16 -30.5q0 -18 15.5 -29.5t40.5 -11.5h39l-29 -35q-34 0 -50 -12.5t-16 -28.5q0 -18 13 -30t48 -12h37l-22 -37h-18
q-35 0 -67.5 17.5t-32.5 61.5q0 19 12 35t28 23z" />
    <glyph glyph-name="dv_MatraVocalicL" unicode="&#x962;" horiz-adv-x="0" 
d="M238 -138v-66l-44 13v53q0 40 -21.5 59.5t-49.5 19.5q-25 0 -41.5 -18t-16.5 -41q0 -40 18.5 -80t44.5 -94l-43 -13q-29 50 -48.5 95.5t-19.5 94.5q0 40 30 68.5t76 28.5q28 0 56 -17t36 -41q10 22 35 40t56 18q47 0 77.5 -28.5t30.5 -68.5q0 -41 -25 -73.5t-25 -57.5
q0 -14 10 -17.5t23 -3.5h9l-11 -38h-13q-20 0 -42 13t-22 38q0 39 24.5 70t24.5 66q0 24 -16.5 41.5t-44.5 17.5q-26 0 -47 -21.5t-21 -57.5z" />
    <glyph glyph-name="dv_MatraVocalicLl" unicode="&#x963;" horiz-adv-x="0" 
d="M238 -138v-66l-44 13v53q0 40 -21.5 59.5t-49.5 19.5q-25 0 -41.5 -18t-16.5 -41q0 -40 18.5 -80t44.5 -94l-43 -13q-28 50 -48 95.5t-20 94.5q0 40 30 68.5t76 28.5q28 0 56 -17t36 -41q10 22 35 40t56 18q47 0 77.5 -28.5t30.5 -68.5q0 -41 -25 -73.5t-25 -57.5
q0 -14 10 -17.5t23 -3.5h9l-11 -38h-17q-13 0 -23.5 -6t-10.5 -18q0 -16 14 -22.5t30 -6.5h18l-17 -36h-9q-27 0 -54.5 14.5t-27.5 50.5q0 16 8 28.5t21 19.5q-4 6 -6.5 13t-2.5 14q0 39 24.5 70t24.5 66q0 24 -16.5 41.5t-44.5 17.5q-26 0 -47 -21.5t-21 -57.5z" />
    <glyph glyph-name="dv_Danda" unicode="&#x964;" horiz-adv-x="328" 
d="M188 754v-770l-48 16v770z" />
    <glyph glyph-name="dv_DoubleDanda" unicode="&#x965;" horiz-adv-x="599" 
d="M459 754v-770l-48 16v770zM188 754v-770l-48 16v770z" />
    <glyph glyph-name="dv_Zero" unicode="&#x966;" horiz-adv-x="692" 
d="M64 339q0 117 80 200t202 83q121 0 201.5 -83t80.5 -200q0 -116 -80.5 -199t-201.5 -83q-122 0 -202 83t-80 199zM114 339q0 -97 64.5 -169t167.5 -72t167.5 72t64.5 169q0 98 -63 170t-169 72q-103 0 -167.5 -72t-64.5 -170z" />
    <glyph glyph-name="dv_One" unicode="&#x967;" horiz-adv-x="365" 
d="M55 312l124 98q-43 18 -77 55t-34 88q0 60 37 100.5t93 40.5q63 0 99 -39t36 -95q0 -46 -31 -87.5t-96 -96.5l-101 -86l-1 -5l193 -285l-49 -18l-194 304zM200 654q-37 0 -60 -30.5t-23 -70.5q0 -46 30.5 -73t65.5 -40q38 35 54 63.5t16 51.5q0 48 -23 73.5t-60 25.5z
" />
    <glyph glyph-name="dv_Two" unicode="&#x968;" horiz-adv-x="473" 
d="M224 694q107 0 154 -65t47 -134q0 -74 -51.5 -139.5t-159.5 -81.5l171 -274l-49 -18l-173 288h-37q-11 0 -20.5 8.5t-9.5 16.5q0 32 20 58t49 26q13 0 22.5 -10t14.5 -26l7 -23q78 7 122 60.5t44 111.5q0 63 -38.5 113t-110.5 50q-49 0 -88 -20.5t-56 -32.5l-22 34
q1 0 45.5 29t118.5 29z" />
    <glyph glyph-name="dv_Three" unicode="&#x969;" horiz-adv-x="495" 
d="M73 634q32 26 78 43t103 17q84 0 129 -44.5t45 -107.5q0 -47 -33 -84t-72 -49q49 -13 83.5 -55t34.5 -96q0 -79 -60.5 -125t-156.5 -46q-7 0 -16 0.5t-19 2.5l102 -127l-31 -20l-128 164q-28 12 -56 35.5t-28 51.5q0 9 6 19.5t20 10.5q23 0 47 -16t47 -73q16 -4 32 -5
t26 -1q82 0 124 37.5t42 91.5q0 49 -44 91t-134 42h-78l-14 39h98q71 0 115 30.5t44 79.5q0 45 -34 80t-94 35q-51 0 -91 -15t-78 -45z" />
    <glyph glyph-name="dv_Four" unicode="&#x96a;" horiz-adv-x="636" 
d="M61 694q52 -54 123 -131t134 -149q63 72 134 149t123 131l37 -26q-57 -55 -128.5 -136.5t-133.5 -150.5q57 -67 94.5 -130t37.5 -117q0 -68 -43.5 -110t-120.5 -42t-120.5 42t-43.5 110q0 54 37.5 117t94.5 130q-62 69 -133.5 150.5t-128.5 136.5zM432 134
q0 47 -36.5 105.5t-77.5 112.5q-41 -54 -77.5 -112.5t-36.5 -105.5q0 -45 33 -78.5t81 -33.5t81 33.5t33 78.5z" />
    <glyph glyph-name="dv_Five" unicode="&#x96b;" horiz-adv-x="454" 
d="M211 34q22 -7 38 -9t41 -2q43 0 72 22t29 72q0 45 -20.5 92t-36.5 68q-13 -3 -26.5 -5t-27.5 -2q-102 0 -157 55t-55 154v201h48v-214q0 -69 44 -111.5t120 -42.5h12.5t12.5 1q-7 10 -11 20.5t-4 20.5q0 19 11.5 32.5t29.5 13.5q30 0 48.5 -19t18.5 -35q0 -12 -5 -26
t-20 -27q24 -30 45.5 -78t21.5 -101q0 -59 -37 -94.5t-113 -35.5q-29 0 -49 3t-45 12z" />
    <glyph glyph-name="dv_Six" unicode="&#x96c;" horiz-adv-x="531" 
d="M86 542q0 63 45 107.5t129 44.5q57 0 103 -17t78 -43l-9 -39q-38 30 -78 45t-91 15q-60 0 -94 -35t-34 -80q0 -49 44 -79.5t115 -30.5h84l13 -39h-91q-90 0 -134 -42t-44 -91q0 -54 42 -91.5t124 -37.5q12 0 32 1.5t38 7.5q-7 14 -10 23.5t-3 16.5q0 21 13 29.5t28 8.5
q22 0 46.5 -12.5t24.5 -34.5q0 -14 -10 -30t-29 -31l75 -129l-39 -22l-78 146q-16 -6 -37 -11t-49 -5q-96 0 -156.5 46t-60.5 125q0 54 34.5 96t83.5 55q-39 12 -72 49t-33 84z" />
    <glyph glyph-name="dv_Seven" unicode="&#x96d;" horiz-adv-x="690" 
d="M271 459q0 -48 33 -88.5t102 -40.5q54 0 97 35t60 78q-16 60 -53 103.5t-103 43.5q-61 0 -98.5 -41t-37.5 -90zM334 22q97 0 171.5 82t74.5 199q0 19 -1.5 38.5t-3.5 38.5q-22 -31 -68 -60t-106 -29q-80 0 -129 46.5t-49 115.5q0 75 51.5 125.5t135.5 50.5
q107 0 162.5 -93.5t55.5 -230.5q0 -128 -86 -225.5t-209 -97.5q-134 0 -211.5 81t-77.5 223h48q0 -119 63 -191.5t179 -72.5z" />
    <glyph glyph-name="dv_Eight" unicode="&#x96e;" horiz-adv-x="537" 
d="M103 202q0 -82 53 -131.5t129 -49.5q46 0 104 39.5t60 152.5l40 -12q0 -65 -42.5 -142t-170.5 -77q-108 0 -165 65t-57 150q0 122 87 259t194 238l30 -32q-109 -100 -185.5 -230.5t-76.5 -229.5z" />
    <glyph glyph-name="dv_Nine" unicode="&#x96f;" horiz-adv-x="448" 
d="M228 655q-59 0 -98.5 -42.5t-39.5 -101.5q0 -11 2.5 -29t13.5 -45q31 -22 64 -31.5t62 -9.5q65 0 97.5 40.5t32.5 89.5q0 47 -32.5 88t-101.5 41zM410 531q0 -69 -50.5 -122t-128.5 -53q-28 0 -54.5 9.5t-47.5 23.5q12 -21 29 -46t40 -55q65 -85 98.5 -123.5t33.5 -87.5
q0 -42 -28.5 -68t-71.5 -35l-10 36q32 10 46.5 29.5t14.5 35.5q0 33 -24.5 68t-105.5 139q-54 69 -78.5 123.5t-24.5 105.5q0 74 48.5 128.5t133.5 54.5q81 0 130.5 -47t49.5 -116z" />
    <glyph glyph-name="dv_Abbreviation" unicode="&#x970;" horiz-adv-x="552" 
d="M277 514q94 0 160.5 -67.5t66.5 -165.5q0 -96 -66.5 -163t-161.5 -67q-96 0 -162 68t-66 168q0 96 66 161.5t163 65.5zM276 92q81 0 129.5 58.5t48.5 132.5q0 73 -49 131.5t-129 58.5t-129 -58.5t-49 -131.5q0 -74 48.5 -132.5t129.5 -58.5z" />
    <glyph glyph-name="dv_Highspacedot" unicode="&#x971;" horiz-adv-x="131" 
d="M65 260q-16 0 -26.5 10.5t-10.5 25.5q0 16 10.5 26.5t26.5 10.5t27 -10.5t11 -26.5q0 -15 -11 -25.5t-27 -10.5z" />
    <glyph glyph-name="dv_CandraA" unicode="&#x972;" horiz-adv-x="863" 
d="M877 920l35 -18q-34 -66 -84 -99.5t-115 -33.5q-66 0 -116.5 33.5t-84.5 99.5l35 18q28 -56 72.5 -84t93.5 -28q48 0 91.5 28t72.5 84zM688 0v331h-284q37 -28 60 -71.5t23 -80.5q0 -87 -58 -141t-171 -54q-57 0 -107 17.5t-81 39.5l12 43q37 -25 82 -42t97 -17
q78 0 126.5 42.5t48.5 109.5q0 64 -42.5 108.5t-96.5 47.5h-125l-14 35h130q62 0 97 45.5t35 100.5q0 59 -38 99t-110 40q-51 0 -97 -18.5t-84 -48.5l-9 43q32 26 79 45.5t110 19.5q104 0 152.5 -55.5t48.5 -129.5q0 -37 -20 -75t-59 -64h295v271h-124l-14 39h308l16 -39
h-138v-657z" />
    <glyph glyph-name="dv_Oe" unicode="&#x973;" horiz-adv-x="863" 
d="M688 0v331h-284q37 -28 60 -71.5t23 -80.5q0 -87 -58 -141t-171 -54q-57 0 -107 17.5t-81 39.5l12 43q37 -25 82 -42t97 -17q78 0 126.5 42.5t48.5 109.5q0 64 -42.5 108.5t-96.5 47.5h-125l-14 35h136q59 0 92.5 46t33.5 100q0 59 -38 99t-110 40q-51 0 -97 -18.5
t-84 -48.5l-9 43q32 26 79 45.5t110 19.5q104 0 152.5 -55.5t48.5 -129.5q0 -37 -20 -75t-59 -64h295v271h-124l-14 39h137v217l48 -16v-201h123l16 -39h-138v-657z" />
    <glyph glyph-name="dv_Ooe" unicode="&#x974;" horiz-adv-x="1150" 
d="M688 0v331h-284q37 -28 60 -71.5t23 -80.5q0 -87 -58 -141t-171 -54q-57 0 -107 17.5t-81 39.5l12 43q37 -25 82 -42t97 -17q78 0 126.5 42.5t48.5 109.5q0 64 -42.5 108.5t-96.5 47.5h-125l-14 35h136q59 0 92.5 46t33.5 100q0 59 -38 99t-110 40q-51 0 -97 -18.5
t-84 -48.5l-9 43q32 26 79 45.5t110 19.5q104 0 152.5 -55.5t48.5 -129.5q0 -37 -20 -75t-59 -64h295v271h-124l-14 39h426v217l48 -16v-201h121l16 -39h-138v-657l-48 16v641h-239v-657z" />
    <glyph glyph-name="dv_Aw" unicode="&#x975;" horiz-adv-x="1150" 
d="M688 0v331h-284q37 -28 60 -71.5t23 -80.5q0 -87 -58 -141t-171 -54q-57 0 -107 17.5t-81 39.5l12 43q37 -25 82 -42t97 -17q78 0 126.5 42.5t48.5 109.5q0 64 -42.5 108.5t-96.5 47.5h-125l-14 35h136q59 0 92.5 46t33.5 100q0 59 -38 99t-110 40q-51 0 -97 -18.5
t-84 -48.5l-9 43q32 26 79 45.5t110 19.5q104 0 152.5 -55.5t48.5 -129.5q0 -37 -20 -75t-59 -64h295v271h-124l-14 39h425q0 27 -11.5 43t-34.5 16h-111q-78 0 -120 38t-42 89v14l48 -14q0 -38 32 -63t76 -25h93q21 0 37.5 -2t29.5 -5q-4 20 -16 37.5t-35 23.5
q-60 16 -88 51t-28 75v15l48 -15q0 -37 19 -56t50 -29q55 -17 77.5 -52.5t22.5 -91.5v-49h123l16 -39h-138v-657l-48 16v641h-239v-657z" />
    <glyph glyph-name="dv_Ue" unicode="&#x976;" horiz-adv-x="863" 
d="M688 0v331h-284q37 -28 60 -71.5t23 -80.5q0 -87 -58 -141t-171 -54q-57 0 -107 17.5t-81 39.5l12 43q37 -25 82 -42t97 -17q78 0 126.5 42.5t48.5 109.5q0 66 -44 111t-100 45h-120l-14 35h130q62 0 97 45.5t35 100.5q0 59 -38 99t-110 40q-51 0 -97 -18.5t-84 -48.5
l-9 43q32 26 79 45.5t110 19.5q104 0 152.5 -55.5t48.5 -129.5q0 -37 -20 -75t-59 -64h295v271h-124l-14 39h308l16 -39h-138v-657zM679 -47l35 -18q-34 -66 -84 -99.5t-115 -33.5q-66 0 -116.5 33.5t-84.5 99.5l35 18q28 -56 72.5 -84t93.5 -28q48 0 91.5 28t72.5 84z" />
    <glyph glyph-name="dv_Uue" unicode="&#x977;" horiz-adv-x="863" 
d="M688 0v331h-284q37 -28 60 -71.5t23 -80.5q0 -87 -58 -141t-171 -54q-57 0 -107 17.5t-81 39.5l12 43q37 -25 82 -42t97 -17q78 0 126.5 42.5t48.5 109.5q0 66 -44 111t-100 45h-120l-14 35h130q62 0 97 45.5t35 100.5q0 59 -38 99t-110 40q-51 0 -97 -18.5t-84 -48.5
l-9 43q32 26 79 45.5t110 19.5q104 0 152.5 -55.5t48.5 -129.5q0 -37 -20 -75t-59 -64h295v271h-124l-14 39h308l16 -39h-138v-657zM689 -67q-35 -58 -85 -85t-116 -27t-116 27t-85 85l35 18q30 -50 73.5 -70.5t92.5 -20.5t92.5 20.5t73.5 70.5zM736 -157q-40 -57 -107 -86
t-139 -29t-139 29t-107 86l35 18q28 -39 89.5 -66.5t121.5 -27.5t121.5 27.5t89.5 66.5z" />
    <glyph glyph-name="dv_MarwariDda" unicode="&#x978;" horiz-adv-x="561" 
d="M301 302h-135v-29q0 -21 -7.5 -33t-21.5 -12q-34 0 -60.5 27t-26.5 57q0 13 10 21t23 8h36v300h-116l-14 39h567l16 -39h-405v-300h134q102 0 157 -55t55 -154v-150l-48 18v148q0 69 -44 111.5t-120 42.5z" />
    <glyph glyph-name="dv_Zha" unicode="&#x979;" horiz-adv-x="732" 
d="M422 275q0 -93 -59 -144.5t-157 -51.5q-60 0 -108.5 17.5t-80.5 39.5l13 45q35 -27 80 -43t96 -16q79 0 121.5 43t42.5 110q0 61 -44.5 101.5t-114.5 40.5h-83l-17 39h446v185h-554l-14 39h738l16 -39h-138v-657l-48 16v417h-214q37 -14 58 -55t21 -87zM273 -33
q-16 0 -26.5 10.5t-10.5 25.5q0 16 10.5 26.5t26.5 10.5t27 -10.5t11 -26.5q0 -15 -11 -25.5t-27 -10.5zM143 -33q-16 0 -26.5 10.5t-10.5 25.5q0 16 10.5 26.5t26.5 10.5t27 -10.5t11 -26.5q0 -15 -11 -25.5t-27 -10.5zM203 -124q-16 0 -26.5 10.5t-10.5 25.5
q0 16 10.5 26.5t26.5 10.5t27 -10.5t11 -26.5q0 -15 -11 -25.5t-27 -10.5z" />
    <glyph glyph-name="dv_HeavyYa" unicode="&#x97a;" horiz-adv-x="606" 
d="M431 0v239q-18 -31 -62.5 -46t-90.5 -15q-88 0 -149.5 56.5t-61.5 128.5l12 14q31 9 56.5 46.5t25.5 92.5q0 42 -17.5 77t-51.5 48h-89l-14 39h612l16 -39h-138v-657zM162 641l268 -316q0 4 0.5 9t0.5 10v297h-269zM113 344q18 -61 63.5 -91t101.5 -33q47 0 84 15.5
t55 48.5l-209 243q0 -4 0.5 -8.5t0.5 -8.5q0 -48 -24.5 -95t-71.5 -71z" />
    <glyph glyph-name="dv_Gga" unicode="&#x97b;" horiz-adv-x="587" 
d="M179 641v-416q0 -21 -7.5 -33t-21.5 -12q-34 0 -60.5 27t-26.5 57q0 13 10 21t23 8h35v348h-128l-14 39h593l16 -39h-138v-657l-48 16v641h-233zM491 -126h-400l-14 39h398z" />
    <glyph glyph-name="dv_Jja" unicode="&#x97c;" horiz-adv-x="732" 
d="M422 275q0 -93 -59 -144.5t-157 -51.5q-60 0 -108.5 17.5t-80.5 39.5l13 45q35 -27 80 -43t96 -16q79 0 121.5 43t42.5 110q0 61 -44.5 101.5t-114.5 40.5h-83l-17 39h446v185h-554l-14 39h738l16 -39h-138v-657l-48 16v417h-214q37 -14 58 -55t21 -87zM625 -126h-576
l-14 39h574z" />
    <glyph glyph-name="dv_GlottalStop" unicode="&#x97d;" horiz-adv-x="532" 
d="M269 694q108 0 161.5 -58.5t53.5 -136.5q0 -67 -58.5 -130.5t-151.5 -95.5v-254l-48 16v262q85 26 146 83t61 120q0 65 -40 109t-126 44q-60 0 -112 -20.5t-87 -46.5l-8 43q34 26 88.5 45.5t120.5 19.5z" />
    <glyph glyph-name="dv_Ddda" unicode="&#x97e;" horiz-adv-x="531" 
d="M79 83q36 -25 90 -43t107 -19q79 0 122.5 35t43.5 91q0 48 -34 86.5t-103 38.5h-100q-58 0 -100 33.5t-42 88.5q0 60 42 91t106 31h165v125h-373l-14 39h537l16 -39h-118v-164h-226q-39 0 -62 -26t-23 -57q0 -33 24 -58t63 -25h96q83 0 139 -41.5t56 -116.5
q0 -73 -49.5 -122.5t-165.5 -49.5q-61 0 -120.5 18t-88.5 39zM489 -126h-410l-14 39h408z" />
    <glyph glyph-name="dv_Bba" unicode="&#x97f;" horiz-adv-x="579" 
d="M404 0v166q-22 -24 -59.5 -42.5t-87.5 -18.5q-91 0 -156 52t-65 151t65 151t156 52q50 0 87.5 -18.5t59.5 -42.5v191h-401l-14 39h585l16 -39h-138v-657zM157 440l220 -241q9 10 15.5 20t11.5 20v138q-16 33 -52 63t-98 30q-28 0 -52.5 -8t-44.5 -22zM88 308
q0 -69 48.5 -115.5t117.5 -46.5q29 0 53 7.5t42 20.5l-221 240q-19 -21 -29.5 -48t-10.5 -58zM490 -126h-426l-14 39h424z" />
    <glyph glyph-name="uni200C" unicode="&#x200c;" horiz-adv-x="0" 
d="M-25 1237h49v-1305h-49v1305z" />
    <glyph glyph-name="uni200D" unicode="&#x200d;" horiz-adv-x="0" 
d="M74 1320l40 -40l-74 -74l74 -74l-39 -39l-51 44v-1205h-49v1204l-49 -43l-39 39l74 74l-74 74l40 40l73 -74z" />
    <glyph glyph-name="endash" unicode="&#x2013;" horiz-adv-x="432" 
d="M402 254h-364l-8 39h364z" />
    <glyph glyph-name="emdash" unicode="&#x2014;" horiz-adv-x="524" 
d="M494 254h-456l-8 39h456z" />
    <glyph glyph-name="quoteleft" unicode="&#x2018;" horiz-adv-x="152" 
d="M69 518q-18 0 -28.5 14t-10.5 29q0 46 22 83.5t64 57.5l16 -25q-26 -14 -43 -34.5t-18 -47.5q18 0 27 -14t9 -24q0 -15 -9.5 -27t-28.5 -12z" />
    <glyph glyph-name="quoteright" unicode="&#x2019;" horiz-adv-x="152" 
d="M83 702q18 0 28.5 -14t10.5 -29q0 -46 -22 -83.5t-64 -57.5l-16 25q26 14 43 34.5t18 47.5q-18 0 -27 14t-9 24q0 15 9.5 27t28.5 12z" />
    <glyph glyph-name="quotesinglbase" unicode="&#x201a;" horiz-adv-x="152" 
d="M83 76q18 0 28.5 -14t10.5 -29q0 -46 -22 -83.5t-64 -57.5l-16 25q26 14 43 34.5t18 47.5q-18 0 -27 14t-9 24q0 15 9.5 27t28.5 12z" />
    <glyph glyph-name="quotedblleft" unicode="&#x201c;" horiz-adv-x="275" 
d="M69 518q-18 0 -28.5 14t-10.5 29q0 46 22 83.5t64 57.5l16 -25q-26 -14 -43 -34.5t-18 -47.5q18 0 27 -14t9 -24q0 -15 -9.5 -27t-28.5 -12zM192 518q-18 0 -28.5 14t-10.5 29q0 46 22 83.5t64 57.5l16 -25q-26 -14 -43 -34.5t-18 -47.5q18 0 27 -14t9 -24
q0 -15 -9.5 -27t-28.5 -12z" />
    <glyph glyph-name="quotedblright" unicode="&#x201d;" horiz-adv-x="275" 
d="M206 702q18 0 28.5 -14t10.5 -29q0 -46 -22 -83.5t-64 -57.5l-16 25q26 14 43 34.5t18 47.5q-18 0 -27 14t-9 24q0 15 9.5 27t28.5 12zM83 702q18 0 28.5 -14t10.5 -29q0 -46 -22 -83.5t-64 -57.5l-16 25q26 14 43 34.5t18 47.5q-18 0 -27 14t-9 24q0 15 9.5 27t28.5 12z
" />
    <glyph glyph-name="quotedblbase" unicode="&#x201e;" horiz-adv-x="275" 
d="M206 76q18 0 28.5 -14t10.5 -29q0 -46 -22 -83.5t-64 -57.5l-16 25q26 14 43 34.5t18 47.5q-18 0 -27 14t-9 24q0 15 9.5 27t28.5 12zM83 76q18 0 28.5 -14t10.5 -29q0 -46 -22 -83.5t-64 -57.5l-16 25q26 14 43 34.5t18 47.5q-18 0 -27 14t-9 24q0 15 9.5 27t28.5 12z
" />
    <glyph glyph-name="dagger" unicode="&#x2020;" horiz-adv-x="366" 
d="M203 780v-161h114l19 -37h-133v-586l-49 4v582h-105l-19 37h124v164z" />
    <glyph glyph-name="daggerdbl" unicode="&#x2021;" horiz-adv-x="376" 
d="M162 -6v198h-113l-19 37h132v311h-113l-19 37h132v206l49 -3v-203h116l19 -37h-135v-311h116l19 -37h-135v-191z" />
    <glyph glyph-name="bullet" unicode="&#x2022;" horiz-adv-x="183" 
d="M92 265q-26 0 -44 18t-18 43q0 26 18 44t44 18q25 0 43 -18t18 -44q0 -25 -18 -43t-43 -18z" />
    <glyph glyph-name="ellipsis" unicode="&#x2026;" horiz-adv-x="357" 
d="M292 0q-16 0 -27 10t-11 26t11 26t27 10q15 0 25 -10t10 -26t-10 -26t-25 -10zM180 0q-16 0 -27 10t-11 26t11 26t27 10q15 0 25 -10t10 -26t-10 -26t-25 -10zM68 0q-16 0 -27 10t-11 26t11 26t27 10q15 0 25 -10t10 -26t-10 -26t-25 -10z" />
    <glyph glyph-name="perthousand" unicode="&#x2030;" horiz-adv-x="1129" 
d="M553 706l-309 -710l-46 4l308 710zM172 702q68 0 110 -44.5t42 -125.5q0 -78 -45 -123.5t-106 -45.5q-66 0 -109.5 44t-43.5 125q0 78 44 124t108 46zM172 665q-39 0 -72 -34t-33 -99q0 -62 32 -97t74 -35q40 0 72 33.5t32 98.5q0 63 -29.5 98t-75.5 35zM957 338
q68 0 110 -44.5t42 -125.5q0 -78 -45 -123.5t-106 -45.5q-66 0 -109.5 44t-43.5 125q0 78 44 124t108 46zM597 338q68 0 110 -44.5t42 -125.5q0 -78 -45 -123.5t-106 -45.5q-66 0 -109.5 44t-43.5 125q0 78 44 124t108 46zM957 300q-39 0 -72 -33.5t-33 -98.5q0 -62 32 -97
t74 -35q40 0 72 33.5t32 98.5q0 63 -29.5 97.5t-75.5 34.5zM597 300q-39 0 -72 -33.5t-33 -98.5q0 -62 32 -97t74 -35q40 0 72 33.5t32 98.5q0 63 -29.5 97.5t-75.5 34.5z" />
    <glyph glyph-name="guilsinglleft" unicode="&#x2039;" horiz-adv-x="211" 
d="M30 259l140 149l21 -35l-119 -128l119 -128l-21 -34l-140 148v28z" />
    <glyph glyph-name="guilsinglright" unicode="&#x203a;" horiz-adv-x="211" 
d="M181 232l-140 -149l-21 35l119 128l-119 128l21 34l140 -148v-28z" />
    <glyph glyph-name="fraction" unicode="&#x2044;" horiz-adv-x="375" 
d="M365 706l-309 -710l-46 4l308 710z" />
    <glyph glyph-name="Euro" unicode="&#x20ac;" horiz-adv-x="563" 
d="M406 226h-261q17 -84 66 -140.5t138 -56.5q54 0 83.5 9t56.5 21l24 -36q-28 -15 -72 -26t-87 -11q-125 0 -186.5 69.5t-78.5 170.5h-84l-5 39h83q-1 17 -2 35t-1 36t1 36t3 35h-79l-5 39h89q20 108 86 178t185 70q31 0 78 -9t75 -28l-20 -36q-31 13 -56 21.5t-79 8.5
q-85 -1 -139.5 -55t-73.5 -150h256l5 -39h-268q-1 -16 -2 -34t-1 -36q0 -19 1 -37t3 -35h262z" />
    <glyph glyph-name="Turkishlira" unicode="&#x20ba;" horiz-adv-x="491" 
d="M0 486l126 44v166l49 10v-158l162 57l7 -38l-169 -60v-67l162 57l7 -38l-169 -60v-360q88 0 169 90.5t81 201.5h46q0 -135 -93 -233t-203 -98h-49v381l-120 -42l-6 39l126 44v67l-120 -42z" />
    <glyph glyph-name="Ruble" unicode="&#x20bd;" horiz-adv-x="562" 
d="M443 165h-294v-165h-49v165h-58l-5 39h63v60h-58v39h58v377h163q106 0 175.5 -47t69.5 -158q0 -110 -75 -160.5t-181 -50.5h-103v-60h289zM275 640h-126v-337h115q80 0 137 43t57 128q0 88 -50.5 127t-132.5 39z" />
    <glyph glyph-name="litre" unicode="&#x2113;" horiz-adv-x="358" 
d="M205 702q51 0 82 -34t31 -94q0 -78 -53 -157.5t-119 -142.5v-152q0 -36 20.5 -64.5t58.5 -28.5q16 0 27.5 5.5t17.5 8.5l12 -37q-9 -7 -27 -12.5t-31 -5.5q-56 0 -91.5 37t-35.5 102v104q-17 -13 -33.5 -24.5t-31.5 -21.5l-12 47q19 13 38.5 28t38.5 31v275
q0 65 29.5 100.5t78.5 35.5zM146 566v-229q51 53 86.5 114t35.5 121q0 44 -18.5 66.5t-43.5 22.5q-26 0 -43 -23t-17 -72z" />
    <glyph glyph-name="trademark" unicode="&#x2122;" horiz-adv-x="701" 
d="M291 648h-118v-342h-44v342h-119v32h278zM507 429l-105 154v-277h-41v374h19l133 -197l128 197h20v-374h-38v278l-104 -153z" />
    <glyph glyph-name="Ohm" unicode="&#x2126;" horiz-adv-x="762" 
d="M630 338q0 131 -70 222.5t-177 91.5t-177.5 -91.5t-70.5 -222.5q0 -81 36.5 -171t94.5 -123l5 -44h-185l-4 39h119q-55 42 -88 128t-33 170q0 149 80.5 254t222.5 105q143 0 221 -105t78 -254q0 -84 -33 -170t-89 -128h120l-4 -39h-182l5 44q58 33 94.5 123t36.5 171z
" />
    <glyph glyph-name="estimated" unicode="&#x212e;" horiz-adv-x="496" 
d="M448 242h-349q1 -87 41 -150.5t130 -63.5q53 0 85.5 10.5t57.5 23.5l20 -37q-30 -19 -78 -28.5t-77 -9.5q-119 0 -174.5 72.5t-55.5 185.5q0 109 52.5 181t159.5 72q84 0 136 -72.5t52 -183.5zM396 279q-7 71 -39 124.5t-104 53.5t-108.5 -53.5t-43.5 -124.5h295z" />
    <glyph glyph-name="partialdiff" unicode="&#x2202;" horiz-adv-x="506" 
d="M153 601l24 33q122 -34 198.5 -149t76.5 -225q0 -133 -59.5 -203t-154.5 -70q-88 0 -143 62.5t-55 140.5q0 76 51.5 136.5t147.5 60.5q46 0 93 -22.5t69 -62.5q-20 110 -89 191t-159 108zM400 248q-22 35 -64 66.5t-97 31.5q-70 0 -109 -47t-39 -114q0 -57 39 -107
t110 -50q80 0 119.5 63t40.5 157z" />
    <glyph glyph-name="Delta" unicode="&#x2206;" horiz-adv-x="612" 
d="M323 680l259 -669l-50 -11h-502l247 680h46zM301 614l-208 -575h424z" />
    <glyph glyph-name="product" unicode="&#x220f;" horiz-adv-x="578" 
d="M90 680h398v-680h-49v641h-300v-641h-49v680z" />
    <glyph glyph-name="summation" unicode="&#x2211;" horiz-adv-x="467" 
d="M406 635h-303l192 -275v-30l-192 -280h319l5 -50h-387v50l205 295l-205 290v45h360z" />
    <glyph glyph-name="minus" unicode="&#x2212;" horiz-adv-x="466" 
d="M436 254h-398l-8 39h398z" />
    <glyph glyph-name="divisionslash" unicode="&#x2215;" horiz-adv-x="375" 
d="M365 706l-309 -710l-46 4l308 710z" />
    <glyph glyph-name="bulletmath" unicode="&#x2219;" horiz-adv-x="183" 
d="M92 265q-26 0 -44 18t-18 43q0 26 18 44t44 18q25 0 43 -18t18 -44q0 -25 -18 -43t-43 -18z" />
    <glyph glyph-name="radical" unicode="&#x221a;" horiz-adv-x="522" 
d="M512 706l-294 -710l-38 4l-170 317l48 4l141 -265l265 654z" />
    <glyph glyph-name="infinity" unicode="&#x221e;" horiz-adv-x="834" 
d="M786 258q0 -88 -52.5 -150t-142.5 -62q-54 0 -106.5 38.5t-79.5 88.5q-24 -48 -68 -87.5t-96 -39.5q-90 0 -141.5 55.5t-51.5 144.5q0 88 53 150t142 62q54 0 107 -38.5t80 -88.5q23 48 67 87.5t96 39.5q90 0 141.5 -55.5t51.5 -144.5zM590 415q-54 0 -93.5 -57
t-55.5 -109q-4 -9 -6 -17.5t-6 -18.5q25 -47 66 -85.5t95 -38.5q66 0 106.5 46.5t40.5 123.5q0 72 -40.5 114t-106.5 42zM245 89q54 0 93 57t55 109q4 9 6 17.5t6 18.5q-25 47 -65.5 85.5t-94.5 38.5q-67 0 -107.5 -46.5t-40.5 -123.5q0 -72 41 -114t107 -42z" />
    <glyph glyph-name="integral" unicode="&#x222b;" horiz-adv-x="293" 
d="M171 660v-700q0 -63 -25.5 -101t-79.5 -38q-20 0 -38 4.5t-28 8.5l12 37q6 -3 18.5 -6t22.5 -3q38 0 53.5 23t15.5 59v700q0 63 25.5 101t79.5 38q20 0 38 -4.5t28 -8.5l-12 -37q-6 3 -18.5 6t-22.5 3q-38 0 -53.5 -23t-15.5 -59z" />
    <glyph glyph-name="approxequal" unicode="&#x2248;" horiz-adv-x="502" 
d="M472 372q-7 -36 -41 -53t-68 -17t-107 22.5t-116 22.5q-24 0 -44.5 -9t-27.5 -30l-38 9q7 36 41 53t68 17q43 0 114 -22.5t109 -22.5q23 0 44 9t28 30zM472 190q-7 -36 -41 -53t-68 -17t-107 22.5t-116 22.5q-24 0 -44.5 -9t-27.5 -30l-38 9q7 36 41 53t68 17
q43 0 114 -22.5t109 -22.5q23 0 44 9t28 30z" />
    <glyph glyph-name="notequal" unicode="&#x2260;" horiz-adv-x="497" 
d="M467 140h-246l-68 -154l-44 4l66 150h-137l-8 39h162l67 153h-221l-8 39h246l67 152l45 -4l-66 -148h138l7 -39h-162l-67 -153h222z" />
    <glyph glyph-name="lessequal" unicode="&#x2264;" horiz-adv-x="322" 
d="M279 113l-249 164v28l249 165l23 -33l-221 -146l221 -148zM299 0h-260l-8 39h262z" />
    <glyph glyph-name="greaterequal" unicode="&#x2265;" horiz-adv-x="322" 
d="M43 470l249 -164v-28l-249 -165l-23 33l221 146l-221 148zM288 0h-260l-8 39h262z" />
    <glyph glyph-name="lozenge" unicode="&#x25ca;" horiz-adv-x="520" 
d="M250 0l-220 293v13l220 293h20l220 -293v-13l-220 -293h-20zM81 299l178 -244l182 244l-182 246z" />
    <glyph glyph-name="uni25CC" unicode="&#x25cc;" horiz-adv-x="672" 
d="M335 510q-14 0 -23 9t-9 23t9 23.5t23 9.5t23.5 -9.5t9.5 -23.5t-9.5 -23t-23.5 -9zM435 493q-14 0 -23 9t-9 23t9 23.5t23 9.5t23.5 -9.5t9.5 -23.5t-9.5 -23t-23.5 -9zM237 558q14 0 23 -9.5t9 -23.5t-9 -23t-23 -9t-23.5 9t-9.5 23t9.5 23.5t23.5 9.5zM520 437
q-14 0 -23 9t-9 23t9 23.5t23 9.5t23.5 -9.5t9.5 -23.5t-9.5 -23t-23.5 -9zM152 502q14 0 23 -9.5t9 -23.5t-9 -23t-23 -9t-23.5 9t-9.5 23t9.5 23.5t23.5 9.5zM573 349q-14 0 -23 9t-9 23t9 23.5t23 9.5t23.5 -9.5t9.5 -23.5t-9.5 -23t-23.5 -9zM99 414q14 0 23 -9.5
t9 -23.5t-9 -23t-23 -9t-23.5 9t-9.5 23t9.5 23.5t23.5 9.5zM589 254q-14 0 -23 9t-9 23t9 23.5t23 9.5t23.5 -9.5t9.5 -23.5t-9.5 -23t-23.5 -9zM83 319q14 0 23 -9.5t9 -23.5t-9 -23t-23 -9t-23.5 9t-9.5 23t9.5 23.5t23.5 9.5zM573 161q-14 0 -23 9t-9 23t9 23.5t23 9.5
t23.5 -9.5t9.5 -23.5t-9.5 -23t-23.5 -9zM99 226q14 0 23 -9.5t9 -23.5t-9 -23t-23 -9t-23.5 9t-9.5 23t9.5 23.5t23.5 9.5zM521 72q-14 0 -23 9t-9 23t9 23.5t23 9.5t23.5 -9.5t9.5 -23.5t-9.5 -23t-23.5 -9zM151 137q14 0 23 -9.5t9 -23.5t-9 -23t-23 -9t-23.5 9t-9.5 23
t9.5 23.5t23.5 9.5zM237 82q14 0 23 -9.5t9 -23.5t-9 -23t-23 -9t-23.5 9t-9.5 23t9.5 23.5t23.5 9.5zM435 17q-14 0 -23 9t-9 23t9 23.5t23 9.5t23.5 -9.5t9.5 -23.5t-9.5 -23t-23.5 -9zM335 0q-14 0 -23 9t-9 23t9 23.5t23 9.5t23.5 -9.5t9.5 -23.5t-9.5 -23t-23.5 -9z
" />
    <glyph glyph-name="commaaccent" unicode="&#xf6c3;" horiz-adv-x="122" 
d="M73 -21q18 0 28.5 -14t10.5 -29q0 -46 -22 -83.5t-64 -57.5l-16 25q26 14 43 34.5t18 47.5q-18 0 -27 14t-9 24q0 15 9.5 27t28.5 12z" />
    <glyph glyph-name="fi" unicode="&#xfb01;" horiz-adv-x="489" 
d="M28 470h73v93q0 63 25.5 101t79.5 38q20 0 38 -4.5t28 -8.5l-12 -37q-6 3 -18.5 6t-22.5 3q-38 0 -53.5 -23t-15.5 -59v-109h88l21 -37h-109v-433h-49v433h-73v37zM380 600q-17 0 -27.5 11t-10.5 27t10.5 27t27.5 11q16 0 27.5 -11t11.5 -27t-11.5 -27t-27.5 -11zM356 0
v485h49v-485h-49z" />
    <glyph glyph-name="fl" unicode="&#xfb02;" horiz-adv-x="481" 
d="M28 470h73v93q0 63 25.5 101t79.5 38q20 0 38 -4.5t28 -8.5l-12 -37q-6 3 -18.5 6t-22.5 3q-38 0 -53.5 -23t-15.5 -59v-109h88l21 -37h-109v-433h-49v433h-73v37zM352 0v696l49 10v-706h-49z" />
    <glyph glyph-name="grave.case" horiz-adv-x="142" 
d="M10 892h61l61 -153h-37z" />
    <glyph glyph-name="dieresis.case" horiz-adv-x="253" 
d="M206 768q-17 0 -27 10.5t-10 26.5t10 26t27 10q15 0 26 -10t11 -26t-11 -26.5t-26 -10.5zM47 768q-17 0 -27 10.5t-10 26.5t10 26t27 10q15 0 26 -10t11 -26t-11 -26.5t-26 -10.5z" />
    <glyph glyph-name="macron.case" horiz-adv-x="261" 
d="M10 827h241v-37h-241v37z" />
    <glyph glyph-name="acute.case" horiz-adv-x="142" 
d="M70 892h62l-86 -153h-36z" />
    <glyph glyph-name="circumflex.case" horiz-adv-x="291" 
d="M60 740h-50l115 153h40l116 -153h-52l-83 118z" />
    <glyph glyph-name="caron.case" horiz-adv-x="291" 
d="M231 892h50l-115 -153h-40l-116 153h52l83 -119z" />
    <glyph glyph-name="breve.case" horiz-adv-x="280" 
d="M270 881q0 -50 -32.5 -90t-97.5 -40q-63 0 -96.5 40t-33.5 90h41q0 -35 23.5 -63t65.5 -28t65.5 27t23.5 64h41z" />
    <glyph glyph-name="dotaccent.case" horiz-adv-x="97" 
d="M48 768q-17 0 -27.5 11t-10.5 27t10.5 27t27.5 11q16 0 27.5 -11t11.5 -27t-11.5 -27t-27.5 -11z" />
    <glyph glyph-name="ring.case" horiz-adv-x="197" 
d="M99 909q36 0 62 -24t26 -60q0 -35 -26 -58t-62 -23t-62.5 23t-26.5 58q0 36 26.5 60t62.5 24zM99 774q22 0 35.5 14.5t13.5 36.5q0 23 -13.5 38t-35.5 15t-36 -15t-14 -38q0 -22 14 -36.5t36 -14.5z" />
    <glyph glyph-name="tilde.case" horiz-adv-x="299" 
d="M289 849q0 -47 -24.5 -69t-58.5 -22t-60.5 28.5t-51.5 28.5q-22 0 -32.5 -15t-12.5 -38h-39q0 47 24.5 69t58.5 22q42 0 64.5 -28.5t48.5 -28.5q21 0 32 15t13 38h38z" />
    <glyph glyph-name="hungarumlaut.case" horiz-adv-x="265" 
d="M193 892h62l-84 -153h-37zM70 892h61l-86 -153h-35z" />
    <glyph glyph-name="dv_La.MAR" horiz-adv-x="769" 
d="M50 313q0 67 46.5 117t137.5 50q49 -1 91.5 -22t64.5 -58q19 31 54 52t77 26v163h-518l-14 39h775l16 -39h-211v-162q80 -7 120.5 -55t40.5 -111q0 -87 -37 -165t-82 -166l-42 19q49 99 80 162.5t31 142.5q0 55 -35 94t-99 39q-63 0 -97.5 -41.5t-34.5 -107.5v-134
l-48 16v118q0 66 -34.5 107.5t-97.5 41.5q-64 0 -99 -39t-35 -94q0 -79 31 -142.5t80 -162.5l-42 -19q-45 88 -82 166t-37 165z" />
    <glyph glyph-name="dv_Sha.MAR" horiz-adv-x="744" 
d="M202 275l3 -30q63 7 102 43t39 87q0 63 -35 100t-94 37q-41 0 -76.5 -18.5t-57.5 -34.5l-22 36q9 7 43 28t82 28v90h-183l-14 39h750l16 -39h-138v-657l-48 16v641h-335v-89q82 -6 121.5 -57t39.5 -117q0 -69 -53 -116.5t-131 -57.5l126 -204l-45 -18l-129 220h-37
q-11 0 -20.5 8.5t-9.5 16.5q0 32 20 58t49 26q13 0 22.5 -10t14.5 -26z" />
    <glyph glyph-name="dv_oldJha" horiz-adv-x="970" 
d="M73 586q0 -23 17 -46t54 -23q25 0 42.5 12.5t25.5 25.5q-1 37 -15 68.5t-54 31.5q-34 0 -52 -22t-18 -47zM521 0v261h-262v-29q0 -21 -7.5 -33t-21.5 -12q-34 0 -60.5 27t-26.5 57q0 13 10 21t23 8h36v206q-12 -12 -31 -18.5t-41 -6.5q-51 0 -81.5 29.5t-30.5 74.5
q0 46 31.5 77.5t80.5 31.5q60 0 90 -39.5t30 -98.5v-256h261v341h-124l-14 39h582l16 -39h-412v-195q22 24 59.5 44.5t87.5 20.5q91 0 156 -52t65 -151q0 -94 -62.5 -148.5t-143.5 -54.5l-12 37q79 0 122.5 50.5t43.5 115.5q0 69 -48.5 115.5t-117.5 46.5q-62 0 -98 -30
t-52 -63v-393z" />
    <glyph glyph-name="dv_KSsa" horiz-adv-x="736" 
d="M255 652q-36 0 -61 -22.5t-25 -57.5q0 -39 26.5 -69.5t68.5 -52.5q37 29 59.5 58.5t22.5 57.5q0 29 -21.5 57.5t-69.5 28.5zM459 -43l-39 -22l-73 135q-14 -4 -32.5 -7.5t-47.5 -3.5q-72 0 -139.5 36.5t-67.5 126.5q0 60 48 105t117 94q-46 26 -76 63t-30 86t36 86.5
t104 37.5q57 0 96.5 -37t39.5 -86q0 -39 -25 -74t-62 -66q54 -22 115 -32.5t111 -10.5h27v292h170l16 -39h-138v-657l-48 16v349h-28q-49 0 -123.5 11.5t-141.5 39.5l-20 -15q-52 -37 -94 -75t-42 -87q0 -56 42 -90.5t113 -34.5q23 0 36.5 4t22.5 9q-8 16 -11.5 27t-3.5 18
q0 21 13 29.5t28 8.5q22 0 46.5 -12.5t24.5 -34.5q0 -14 -10 -30t-29 -31z" />
    <glyph glyph-name="dv_JNya" horiz-adv-x="753" 
d="M443 275q0 -93 -59 -144.5t-157 -51.5q-19 0 -36.5 1.5t-33.5 5.5l108 -135l-31 -20l-128 164q-28 12 -56 35.5t-28 51.5q0 9 6 19.5t20 10.5q22 0 44 -13.5t44 -62.5q21 -7 44 -10.5t47 -3.5q79 0 121.5 43t42.5 110q0 61 -44.5 101.5t-114.5 40.5h-83l-17 39h446v185
h-575l-14 39h759l16 -39h-138v-657l-48 16v417h-214q37 -14 58 -55t21 -87z" />
    <glyph glyph-name="dv_Jha.NEP" horiz-adv-x="482" 
d="M493 641h-312q22 -22 38 -58t20 -67q100 -1 151 -48.5t51 -116.5q0 -70 -49.5 -113t-121.5 -52l117 -186l-45 -18l-119 200h-37q-11 0 -20.5 8.5t-9.5 16.5q0 32 20 58t49 26q13 0 22.5 -10t14.5 -26l3 -29q53 7 92 38.5t39 86.5q0 47 -38.5 87t-119.5 41q-6 -46 -37 -78
t-89 -32q-31 0 -57.5 9.5t-47.5 23.5l17 27q17 -7 37.5 -15.5t45.5 -8.5q34 0 61 21.5t27 72.5q0 37 -20 78.5t-42 63.5h-130l-14 39h488z" />
    <glyph glyph-name="dv_Reph" horiz-adv-x="0" 
d="M-147 680h-48q-27 22 -47 66t-20 79q0 53 31 93.5t97 40.5q31 0 57.5 -9.5t47.5 -23.5l-17 -27q-17 8 -38.5 16t-44.5 8q-34 0 -61 -21.5t-27 -72.5q0 -40 22.5 -85t47.5 -64z" />
    <glyph glyph-name="dv_Reph.MAR" horiz-adv-x="435" 
d="M446 641h-443l-14 39h441zM419 396q-31 -67 -86 -101.5t-115 -34.5t-115 34.5t-86 101.5l35 21q23 -50 70 -83t96 -33t96.5 33.5t69.5 82.5z" />
    <glyph glyph-name="dv_Rakar" horiz-adv-x="0" 
d="M46 -150l-27 25l123 136h44l123 -136l-27 -25l-117 129z" />
    <glyph glyph-name="dv_MatraI.1" 
d="M833 716q-87 46 -243.5 115.5t-275.5 69.5q-91 0 -132.5 -36t-41.5 -90q0 -34 11.5 -59.5t21.5 -35.5h124l16 -39h-138v-657l-48 16v641h-124l-14 39h134q-13 16 -23 43t-10 55q0 74 58.5 118.5t163.5 44.5q138 0 299.5 -75.5t246.5 -122.5z" />
    <glyph glyph-name="dv_MatraI.2" 
d="M1048 716q-131 44 -366 114.5t-363 70.5q-100 0 -139.5 -36t-39.5 -90q0 -34 11.5 -59.5t21.5 -35.5h124l16 -39h-138v-657l-48 16v641h-124l-14 39h134q-13 16 -23 43t-10 55q0 74 56 118.5t171 44.5q150 0 399 -77.5t357 -120.5z" />
    <glyph glyph-name="dv_MatraI.3" 
d="M883 716q-98 46 -274 115.5t-295 69.5q-91 0 -132.5 -36t-41.5 -90q0 -34 11.5 -59.5t21.5 -35.5h124l16 -39h-138v-657l-48 16v641h-124l-14 39h134q-13 16 -23 43t-10 55q0 74 58.5 118.5t163.5 44.5q143 0 323 -76t273 -122z" />
    <glyph glyph-name="dv_MatraI.4" 
d="M539 716q-44 56 -118 120.5t-157 64.5q-59 0 -91.5 -36t-32.5 -90q0 -34 11.5 -59.5t21.5 -35.5h124l16 -39h-138v-657l-48 16v641h-124l-14 39h134q-13 16 -23 43t-10 55q0 74 47 118.5t125 44.5q100 0 181 -72t121 -126z" />
    <glyph glyph-name="dv_MatraIReph" 
d="M698 723q-76 52 -190 115t-214 63q-80 0 -117 -36t-37 -90q0 -34 11.5 -59.5t21.5 -35.5h124l16 -39h-138v-657l-48 16v641h-124l-14 39h134q-13 16 -23 43t-10 55q0 74 53 118.5t149 44.5q91 0 198 -52t182 -102q-2 10 -3.5 19.5t-1.5 18.5q0 53 31 93.5t97 40.5
q31 0 57.5 -9.5t47.5 -23.5l-17 -27q-17 8 -38.5 16t-44.5 8q-34 0 -61 -21.5t-27 -72.5q0 -40 22.5 -85t47.5 -64h-48q-10 7 -19 18.5t-17 24.5z" />
    <glyph glyph-name="dv_MatraIReph.1" 
d="M824 721q-90 47 -242 113.5t-268 66.5q-91 0 -132.5 -36t-41.5 -90q0 -34 11.5 -59.5t21.5 -35.5h124l16 -39h-138v-657l-48 16v641h-124l-14 39h134q-13 16 -23 43t-10 55q0 74 58.5 118.5t163.5 44.5q117 0 254.5 -57.5t232.5 -108.5q-4 13 -6 26t-2 24q0 53 31 93.5
t97 40.5q31 0 57.5 -9.5t47.5 -23.5l-17 -27q-17 8 -38.5 16t-44.5 8q-34 0 -61 -21.5t-27 -72.5q0 -40 22.5 -85t47.5 -64h-48q-9 7 -18 17.5t-16 23.5z" />
    <glyph glyph-name="dv_MatraIReph.2" 
d="M1040 718q-134 45 -365 114t-356 69q-100 0 -139.5 -36t-39.5 -90q0 -34 11.5 -59.5t21.5 -35.5h124l16 -39h-138v-657l-48 16v641h-124l-14 39h134q-13 16 -23 43t-10 55q0 74 56 118.5t171 44.5q134 0 352 -64t349 -113q-6 16 -9 32t-3 29q0 53 31 93.5t97 40.5
q31 0 57.5 -9.5t47.5 -23.5l-17 -27q-17 8 -38.5 16t-44.5 8q-34 0 -61 -21.5t-27 -72.5q0 -40 22.5 -85t47.5 -64h-48q-9 7 -17.5 17t-15.5 21z" />
    <glyph glyph-name="dv_MatraIReph.3" 
d="M874 720q-100 47 -272 114t-288 67q-91 0 -132.5 -36t-41.5 -90q0 -34 11.5 -59.5t21.5 -35.5h124l16 -39h-138v-657l-48 16v641h-124l-14 39h134q-13 16 -23 43t-10 55q0 74 58.5 118.5t163.5 44.5q124 0 279.5 -59.5t259.5 -110.5q-4 14 -7 28t-3 26q0 53 31 93.5
t97 40.5q31 0 57.5 -9.5t47.5 -23.5l-17 -27q-17 8 -38.5 16t-44.5 8q-34 0 -61 -21.5t-27 -72.5q0 -40 22.5 -85t47.5 -64h-48q-9 7 -18 17.5t-16 22.5z" />
    <glyph glyph-name="dv_MatraIReph.4" 
d="M520 738q-46 54 -113.5 108.5t-142.5 54.5q-59 0 -91.5 -36t-32.5 -90q0 -34 11.5 -59.5t21.5 -35.5h124l16 -39h-138v-657l-48 16v641h-124l-14 39h134q-13 16 -23 43t-10 55q0 74 47 118.5t125 44.5q69 0 129.5 -37t105.5 -83v4q0 53 31 93.5t97 40.5q31 0 57.5 -9.5
t47.5 -23.5l-17 -27q-17 8 -38.5 16t-44.5 8q-34 0 -61 -21.5t-27 -72.5q0 -40 22.5 -85t47.5 -64h-48q-13 10 -24 25t-20 33z" />
    <glyph glyph-name="dv_MatraIi.1" 
d="M-415 731l-34 -23q-14 20 -24.5 47t-10.5 57q0 55 39 92t126 37q129 0 286.5 -99t205.5 -162h124l16 -39h-138v-657l-48 16v641h-124l-14 39h132q-50 52 -188 137t-248 85q-66 0 -95.5 -24t-29.5 -67q0 -19 6 -40.5t19 -39.5z" />
    <glyph glyph-name="dv_MatraIi.2" 
d="M-215 731l-34 -23q-14 20 -24.5 47t-10.5 57q0 55 43 92t112 37q108 0 187 -93t110 -168h129l16 -39h-138v-657l-48 16v641h-124l-14 39h132q-13 43 -87 132.5t-159 89.5q-50 0 -82.5 -24t-32.5 -67q0 -19 6 -40.5t19 -39.5z" />
    <glyph glyph-name="dv_MatraIiReph.1" 
d="M177 680h120l16 -39h-138v-657l-48 16v641h-124l-14 39h132q-50 52 -188 137t-248 85q-66 0 -95.5 -24t-29.5 -67q0 -19 6 -40.5t19 -39.5l-34 -23q-14 20 -24.5 47t-10.5 57q0 55 39 92t126 37q90 0 199.5 -54t190.5 -114q-4 13 -6.5 26.5t-2.5 25.5q0 53 31 93.5
t97 40.5q31 0 57.5 -9.5t47.5 -23.5l-17 -27q-17 8 -38.5 16t-44.5 8q-34 0 -61 -21.5t-27 -72.5q0 -40 22.5 -85t47.5 -64z" />
    <glyph glyph-name="dv_MatraIiReph.2" 
d="M186 680h111l16 -39h-138v-657l-48 16v641h-124l-14 39h132q-13 43 -87 132.5t-159 89.5q-50 0 -82.5 -24t-32.5 -67q0 -19 6 -40.5t19 -39.5l-34 -23q-14 20 -24.5 47t-10.5 57q0 55 43 92t112 37q59 0 109.5 -31.5t90.5 -75.5q2 50 33.5 87.5t94.5 37.5q31 0 57.5 -9.5
t47.5 -23.5l-17 -27q-17 8 -38.5 16t-44.5 8q-34 0 -61 -21.5t-27 -72.5q0 -40 22.5 -85t47.5 -64z" />
    <glyph glyph-name="dv_MatraIiReph" 
d="M-145 731l-34 -23q-14 20 -24.5 47t-10.5 57q0 55 37.5 92t97.5 37q51 0 90.5 -24t68.5 -60q8 43 39 72.5t86 29.5q31 0 57.5 -9.5t47.5 -23.5l-17 -27q-17 8 -38.5 16t-44.5 8q-34 0 -61 -21.5t-27 -72.5q0 -15 3 -30.5t9 -31.5q11 -22 19.5 -45t14.5 -42h129l16 -39
h-138v-657l-48 16v641h-124l-14 39h132q-13 43 -62 132.5t-134 89.5q-41 0 -68 -24t-27 -67q0 -19 6 -40.5t19 -39.5z" />
    <glyph glyph-name="dv_MatraEReph" horiz-adv-x="0" 
d="M-139 680h-54l-244 224l32 31l158 -152q-3 11 -5 21.5t-2 20.5q0 53 31 93.5t97 40.5q31 0 57.5 -9.5t47.5 -23.5l-17 -27q-17 8 -38.5 16t-44.5 8q-34 0 -61 -21.5t-27 -72.5q0 -40 22.5 -85t47.5 -64z" />
    <glyph glyph-name="dv_MatraAiReph" horiz-adv-x="0" 
d="M-142 680h-44l-42 45q-51 57 -89 69t-81 12h-85l-13 39h95q56 0 102.5 -15t101.5 -84l-74 247l45 24l26 -105q16 21 41.5 34t61.5 13q31 0 57.5 -9.5t47.5 -23.5l-17 -27q-17 8 -38.5 16t-44.5 8q-34 0 -60.5 -21t-27.5 -70z" />
    <glyph glyph-name="dv_MatraOReph" 
d="M127 0v641h-124l-14 39h130l-244 224l32 31l157 -152q-3 11 -4.5 21.5t-1.5 20.5q0 53 31 93.5t97 40.5q31 0 57.5 -9.5t47.5 -23.5l-17 -27q-17 8 -38.5 16t-44.5 8q-34 0 -61 -21.5t-27 -72.5q0 -40 22.5 -85t47.5 -64h124l16 -39h-138v-657z" />
    <glyph glyph-name="dv_MatraAuReph" 
d="M170 680h127l16 -39h-138v-657l-48 16v641h-124l-14 39h137l-42 45q-51 57 -89 69t-81 12h-85l-13 39h95q56 0 102.5 -15t101.5 -84l-74 247l45 24l26 -105q16 21 41.5 34t61.5 13q31 0 57.5 -9.5t47.5 -23.5l-17 -27q-17 8 -38.5 16t-44.5 8q-34 0 -60.5 -21t-27.5 -70z
" />
    <glyph glyph-name="dv_RakarMatraU" horiz-adv-x="0" 
d="M46 -150l-27 25l123 136h44l123 -136l-27 -25l-117 129zM-53 -230q46 -60 97.5 -101t112.5 -41q54 0 80 31t26 69t-28.5 69t-77.5 31h-48v39h54q57 0 102.5 -37t45.5 -102t-46 -102t-109 -37q-69 0 -131.5 42.5t-110.5 117.5z" />
    <glyph glyph-name="dv_RakarMatraUu" horiz-adv-x="0" 
d="M46 -150l-27 25l123 136h44l123 -136l-27 -25l-117 129zM374 -315q-46 60 -97.5 101t-112.5 41q-54 0 -80 -31t-26 -69t28.5 -69t77.5 -31h48v-39h-54q-57 0 -102.5 37t-45.5 102t46 102t109 37q69 0 131.5 -42.5t110.5 -117.5z" />
    <glyph glyph-name="dv_KRa" horiz-adv-x="853" 
d="M404 249v138q-16 33 -52 63t-98 30q-69 0 -117.5 -46.5t-48.5 -115.5t48.5 -115.5t117.5 -46.5q62 0 98 30t52 63zM404 0v168l-303 -202l-29 34l173 115q-87 3 -148 55t-61 148q0 99 65 151t156 52q50 0 87.5 -20.5t59.5 -44.5v185h-401l-14 39h859l16 -39h-412v-185
q22 24 59.5 44.5t87.5 20.5q91 0 156 -52t65 -151q0 -94 -62.5 -148.5t-143.5 -54.5l-12 37q79 0 122.5 50.5t43.5 115.5q0 69 -48.5 115.5t-117.5 46.5q-62 0 -98 -30t-52 -63v-403z" />
    <glyph glyph-name="dv_KRa.NEP" horiz-adv-x="821" 
d="M372 0v276l-277 -150l-26 38l303 163q-69 83 -126.5 107.5t-100.5 24.5q-19 0 -44.5 -9t-47.5 -19l-25 43q22 8 55.5 18t51.5 10q43 0 105 -17.5t132 -96.5v253h-369l-14 39h827l16 -39h-412v-215q22 24 59.5 44.5t87.5 20.5q91 0 156 -52t65 -151q0 -94 -62.5 -148.5
t-143.5 -54.5l-12 37q79 0 122.5 50.5t43.5 115.5q0 69 -48.5 115.5t-117.5 46.5q-62 0 -98 -30t-52 -63v-373z" />
    <glyph glyph-name="dv_KhRa" horiz-adv-x="908" 
d="M594 154q-86 0 -140.5 54.5t-54.5 128.5t54.5 128.5t140.5 54.5q46 0 80.5 -18.5t58.5 -45.5v185h-443q25 -31 36.5 -74t11.5 -79q0 -74 -46 -138.5t-135 -79.5q7 -83 103.5 -154t215.5 -71q13 0 25.5 0.5t23.5 2.5l123 114q-13 -4 -26.5 -6t-27.5 -2zM593 195
q66 0 103 43t37 99t-37 99t-103 43t-104 -43.5t-38 -98.5q0 -56 38 -99t104 -43zM733 0v177l-257 -234l-41 21l44 41h-7q-147 0 -251.5 81.5t-111.5 183.5h-24q-11 0 -20.5 6t-9.5 19q0 31 20 57.5t49 26.5q13 0 22.5 -10t14.5 -26l7 -23q50 14 85 62t35 106q0 44 -15 87
t-42 66h-228l-14 39h914l16 -39h-138v-657z" />
    <glyph glyph-name="dv_GRa" horiz-adv-x="587" 
d="M179 641v-416q0 -21 -7.5 -33t-21.5 -12q-34 0 -60.5 27t-26.5 57q0 13 10 21t23 8h35v348h-128l-14 39h593l16 -39h-138v-657l-48 16v218l-282 -256l-40 31l322 285v363h-233z" />
    <glyph glyph-name="dv_GhRa" horiz-adv-x="699" 
d="M196 641q-31 -15 -49 -43.5t-18 -60.5q0 -49 33.5 -81.5t104.5 -32.5h36l16 -39h-47q-89 0 -121.5 -40t-32.5 -89q0 -65 55 -94t113 -29q23 0 46 4t44 11l148 131v363h-328zM524 0v218l-282 -256l-40 31l107 95q-6 -1 -12.5 -1h-13.5q-96 0 -155.5 46t-59.5 123
q0 46 24.5 87.5t73.5 61.5q-40 13 -64 50t-24 83q0 29 10.5 55.5t29.5 47.5h-115l-14 39h705l16 -39h-138v-657z" />
    <glyph glyph-name="dv_CRa" horiz-adv-x="668" 
d="M410 465h-96q-70 0 -114.5 -40.5t-44.5 -101.5q0 -67 43 -110t121 -43q66 0 110.5 29.5t63.5 70.5v371h-490l-14 39h674l16 -39h-138v-657l-48 16v189l-340 -227l-40 31l204 134q-84 0 -148 49t-64 147q0 46 23.5 86.5t54.5 55.5h-161l-17 39h386z" />
    <glyph glyph-name="dv_JRa" horiz-adv-x="752" 
d="M422 275q0 -93 -59 -144.5t-157 -51.5q-60 0 -108.5 17.5t-80.5 39.5l13 45q35 -27 80 -43t96 -16q79 0 121.5 43t42.5 110q0 61 -44.5 101.5t-114.5 40.5h-83l-17 39h466v185h-574l-14 39h758l16 -39h-138v-657l-48 16v217l-247 -255l-40 31l287 284v140h-234
q37 -14 58 -55t21 -87z" />
    <glyph glyph-name="dv_JhRa" horiz-adv-x="846" 
d="M671 641h-243v-164h-234q-39 0 -62 -26t-23 -57q0 -33 24 -58t63 -25h104q48 0 88.5 -14.5t66.5 -41.5h216v386zM169 40q27 -8 55 -13t56 -6q79 0 122.5 35t43.5 91q0 48 -34 86.5t-103 38.5h-108q-58 0 -100 33.5t-42 88.5q0 60 42 91t106 31h173v125h-377l-14 39h852
l16 -39h-138v-657l-48 16v173l-141 -190l-41 24l169 213h-178q7 -15 11 -31.5t4 -35.5q0 -66 -52.5 -119t-162.5 -53q-22 0 -44 3t-44 7l102 -127l-31 -20l-128 164q-28 12 -56 35.5t-28 51.5q0 9 6 19.5t20 10.5q22 0 46 -15.5t46 -69.5z" />
    <glyph glyph-name="dv_TRa" horiz-adv-x="547" 
d="M372 0v256l-277 -150l-26 38l303 163q-69 83 -126.5 107.5t-100.5 24.5q-19 0 -44.5 -9t-47.5 -19l-25 43q22 8 55.5 18t51.5 10q43 0 105 -17.5t132 -96.5v273h-369l-14 39h553l16 -39h-138v-657z" />
    <glyph glyph-name="dv_TRa.alt" horiz-adv-x="635" 
d="M460 0v353l-179 -206l-45 27l212 235h-179q-83 0 -120 -34.5t-37 -86.5q0 -58 44.5 -131t91.5 -140q3 -4 5.5 -7.5t4.5 -7.5l-42 -20q-50 72 -101 155.5t-51 154.5q0 66 45 111t125 45h226v193h-457l-14 39h641l16 -39h-138v-657z" />
    <glyph glyph-name="dv_ThRa" horiz-adv-x="629" 
d="M454 0v231l-291 -245l-44 28l212 166q-7 -1 -15 -1.5t-15 -0.5q-88 0 -149.5 56.5t-61.5 128.5l12 14q46 15 90 48t44 92v11t-1 11q-14 -19 -41.5 -32.5t-53.5 -13.5q-43 0 -77.5 26.5t-34.5 69.5q0 42 30.5 73.5t81.5 31.5q61 0 101 -51t40 -113q0 -81 -45.5 -122.5
t-99.5 -63.5q18 -61 63.5 -91.5t101.5 -33.5q63 0 108 32t45 94v296h-124l-14 39h308l16 -39h-138v-657zM77 592q0 -23 18.5 -41.5t47.5 -18.5q28 0 49 18t30 39q-12 29 -33 47.5t-48 18.5q-30 0 -47 -18.5t-17 -44.5z" />
    <glyph glyph-name="dv_DRa" horiz-adv-x="564" 
d="M524 -21l-39 -22l-73 135q-12 -3 -24.5 -5t-25.5 -3l-72 -136l-47 18l66 117q-100 2 -175.5 57.5t-75.5 167.5q0 92 73.5 152t199.5 60h72v121h-400l-14 39h570l16 -39h-124v-160h-113q-105 0 -167.5 -49t-62.5 -124q0 -80 56 -131.5t156 -51.5q19 0 38 2t34 5
q-8 17 -12 28t-4 18q0 21 13 29.5t28 8.5q22 0 46.5 -12.5t24.5 -34.5q0 -14 -10 -30t-29 -31z" />
    <glyph glyph-name="dv_DhRa" horiz-adv-x="703" 
d="M528 0v218l-282 -256l-40 31l107 95q-7 -1 -13.5 -1h-12.5q-96 0 -155.5 46t-59.5 123q0 46 24.5 87.5t73.5 61.5q-40 13 -64 50t-24 83q0 63 47 109.5t128 46.5q47 0 84.5 -18.5t48.5 -34.5l-30 -26q-15 16 -42.5 26.5t-61.5 10.5q-56 0 -89.5 -35t-33.5 -80
q0 -49 33.5 -81.5t104.5 -32.5h36l16 -39h-47q-89 0 -121.5 -40t-32.5 -89q0 -65 55 -94t113 -29q23 0 46 4t43 11l149 131v363h-93l-14 39h277l16 -39h-138v-657z" />
    <glyph glyph-name="dv_NRa" horiz-adv-x="586" 
d="M411 0v263l-264 -240l-40 31l293 259l-209 101l-15 -23q-8 -13 -17 -19.5t-19 -6.5q-26 0 -43 33t-17 56q0 16 8.5 29.5t24.5 13.5q4 0 17 -5t17 -7l264 -128v284h-408l-14 39h592l16 -39h-138v-657z" />
    <glyph glyph-name="dv_PRa" horiz-adv-x="621" 
d="M446 0v225l-284 -239l-44 28l212 165q-7 -1 -14 -1h-14q-102 0 -157 55t-55 154v254h-87l-14 39h627l16 -39h-138v-657zM138 374q0 -69 44 -111.5t120 -42.5q63 0 103.5 35t40.5 88v298h-308v-267z" />
    <glyph glyph-name="dv_PhRa" horiz-adv-x="895" 
d="M138 374q0 -69 44 -111.5t120 -42.5q65 0 104.5 37t39.5 92v292h-308v-267zM446 0v225l-284 -239l-44 28l212 165q-7 -1 -14 -1h-14q-102 0 -157 55t-55 154v254h-87l-14 39h901l16 -39h-412v-195q22 24 59.5 44.5t87.5 20.5q91 0 156 -52t65 -151q0 -94 -62.5 -148.5
t-143.5 -54.5l-12 37q79 0 122.5 50.5t43.5 115.5q0 69 -48.5 115.5t-117.5 46.5q-62 0 -98 -30t-52 -63v-393z" />
    <glyph glyph-name="dv_BRa" horiz-adv-x="579" 
d="M404 249v138q-16 33 -52 63t-98 30q-28 0 -52.5 -8t-44.5 -22l220 -241q9 10 15.5 20t11.5 20zM88 318q0 -69 48.5 -115.5t117.5 -46.5q29 0 53 7.5t42 20.5l-221 240q-19 -21 -29.5 -48t-10.5 -58zM404 0v168l-303 -202l-29 34l173 115q-87 3 -148 55t-61 148
q0 99 65 151t156 52q50 0 87.5 -18.5t59.5 -42.5v181h-401l-14 39h585l16 -39h-138v-657z" />
    <glyph glyph-name="dv_BhRa" horiz-adv-x="696" 
d="M521 0v228l-303 -242l-40 28l317 247h-236v-29q0 -21 -7.5 -33t-21.5 -12q-34 0 -60.5 27t-26.5 57q0 13 10 21t23 8h36v206q-12 -12 -31 -18.5t-41 -6.5q-51 0 -81.5 29.5t-30.5 74.5q0 46 31.5 77.5t80.5 31.5q60 0 90 -39.5t30 -98.5v-256h261v341h-124l-14 39h308
l16 -39h-138v-657zM73 586q0 -23 17 -46t54 -23q25 0 42.5 12.5t25.5 25.5q-1 37 -15 68.5t-54 31.5q-34 0 -52 -22t-18 -47z" />
    <glyph glyph-name="dv_MRa" horiz-adv-x="621" 
d="M446 0v227l-284 -241l-40 28l298 247h-267v-29q0 -21 -7.5 -33t-21.5 -12q-34 0 -60.5 27t-26.5 57q0 13 10 21t23 8h36v341h-103l-14 39h627l16 -39h-138v-657zM446 641h-292v-341h292v341z" />
    <glyph glyph-name="dv_YRa" horiz-adv-x="606" 
d="M431 0v231l-290 -245l-44 28l213 166q-8 -1 -16.5 -1.5t-15.5 -0.5q-88 0 -149.5 56.5t-61.5 128.5l12 14q31 9 56.5 46.5t25.5 92.5q0 42 -17.5 77t-51.5 48h-89l-14 39h612l16 -39h-138v-657zM113 344q18 -61 63.5 -91t101.5 -33q64 0 108.5 29.5t44.5 94.5v297h-278
q20 -13 38 -50t18 -81q0 -48 -24.5 -95t-71.5 -71z" />
    <glyph glyph-name="dv_LRa" horiz-adv-x="819" 
d="M644 0v268l-236 -282l-40 28l276 327q-7 35 -34.5 67.5t-76.5 32.5q-54 0 -86.5 -42.5t-32.5 -108.5v-118l-48 16v102q0 66 -34.5 107.5t-97.5 41.5q-64 0 -99 -39t-35 -94q0 -79 31 -142.5t80 -162.5l-42 -19q-45 88 -82 166t-37 165q0 67 46.5 117t137.5 50
q50 0 90 -21t64 -58q23 38 61 58.5t85 20.5q40 0 70 -18t40 -32v211h-641l-14 39h825l16 -39h-138v-657z" />
    <glyph glyph-name="dv_VRa" horiz-adv-x="579" 
d="M88 318q0 -69 48.5 -115.5t117.5 -46.5q62 0 98 30t52 63v138q-16 33 -52 63t-98 30q-69 0 -117.5 -46.5t-48.5 -115.5zM404 460v181h-401l-14 39h585l16 -39h-138v-657l-48 16v168l-303 -202l-29 34l173 115q-87 3 -148 55t-61 148q0 99 65 151t156 52q50 0 87.5 -18.5
t59.5 -42.5z" />
    <glyph glyph-name="dv_ShRa" horiz-adv-x="653" 
d="M478 0v180l-276 -196l-24 36l300 213l-205 151l-213 -165l-22 36l202 154q-48 39 -74.5 76.5t-26.5 82.5q0 53 37 89.5t96 36.5q55 0 93 -36.5t38 -89.5q0 -42 -26.5 -81.5t-69.5 -76.5l171 -126v396h170l16 -39h-138v-657zM272 654q-34 0 -59 -24t-25 -64t23 -69t63 -61
q48 40 65.5 73t17.5 57q0 35 -23 61.5t-62 26.5z" />
    <glyph glyph-name="dv_SsRa" horiz-adv-x="621" 
d="M446 0v225l-284 -239l-44 28l212 165q-7 -1 -14 -1h-14q-102 0 -157 55t-55 154v254h-87l-14 39h627l16 -39h-138v-657zM155 641l288 -319q1 5 1.5 10.5t1.5 10.5v298h-291zM138 374q0 -69 44 -111.5t120 -42.5q43 0 76 17t50 46l-290 319v-228z" />
    <glyph glyph-name="dv_SRa" horiz-adv-x="733" 
d="M558 641h-268q25 -31 36.5 -74t11.5 -79q0 -44 -16 -84t-45 -70h281v307zM549 299h-317q-13 -8 -28 -14.5t-31 -10.5l145 -233zM124 270h-39q-11 0 -20.5 7.5t-9.5 17.5q0 34 20 59t49 25q13 0 22.5 -10t14.5 -26l7 -23q50 14 85 62t35 106q0 44 -15 87t-42 66h-228
l-14 39h739l16 -39h-138v-657l-48 16v243l-214 -243l-49 -18z" />
    <glyph glyph-name="dv_HRa" horiz-adv-x="526" 
d="M309 345q-7 1 -14 1.5t-14 0.5q-72 0 -114 -41t-42 -101q0 -90 80 -133.5t162 -48.5l-15 -39q-106 6 -191 64t-85 157q0 41 15 76t45 60q-22 13 -38.5 38.5t-16.5 53.5q1 54 35.5 79t98.5 25h166v104h-378l-14 39h532l16 -39h-108v-143h-230q-32 0 -51 -19t-19 -45
q0 -27 13.5 -43.5t32.5 -25.5q22 10 49 15.5t59 5.5q94 0 145.5 -44.5t51.5 -103.5q0 -29 -13.5 -60.5t-36.5 -49.5l-29 30q20 18 28 37t8 41q0 36 -23 61.5t-62 38.5l-85 -187l-39 18z" />
    <glyph glyph-name="dv_QRa" horiz-adv-x="853" 
d="M88 318q0 -69 48.5 -115.5t117.5 -46.5q62 0 98 30t52 63v138q-16 33 -52 63t-98 30q-69 0 -117.5 -46.5t-48.5 -115.5zM404 0v168l-303 -202l-29 34l173 115q-87 3 -148 55t-61 148q0 99 65 151t156 52q50 0 87.5 -20.5t59.5 -44.5v185h-401l-14 39h859l16 -39h-412
v-185q22 24 59.5 44.5t87.5 20.5q91 0 156 -52t65 -151q0 -94 -62.5 -148.5t-143.5 -54.5l-12 37q79 0 122.5 50.5t43.5 115.5q0 69 -48.5 115.5t-117.5 46.5q-62 0 -98 -30t-52 -63v-403zM288 -58q-16 0 -26.5 10.5t-10.5 25.5q0 16 10.5 26.5t26.5 10.5t27 -10.5t11 -26.5
q0 -15 -11 -25.5t-27 -10.5z" />
    <glyph glyph-name="dv_KhhRa" horiz-adv-x="908" 
d="M594 154q-86 0 -140.5 54.5t-54.5 128.5t54.5 128.5t140.5 54.5q46 0 80.5 -18.5t58.5 -45.5v185h-443q25 -31 36.5 -74t11.5 -79q0 -74 -46 -138.5t-135 -79.5q7 -83 103.5 -154t215.5 -71q13 0 25.5 0.5t23.5 2.5l123 114q-13 -4 -26.5 -6t-27.5 -2zM733 337v5
q-2 54 -38.5 95.5t-101.5 41.5q-66 0 -104 -43.5t-38 -98.5q0 -56 38 -99t104 -43t103 43t37 99zM733 0v177l-257 -234l-41 21l44 41h-7q-147 0 -251.5 81.5t-111.5 183.5h-24q-11 0 -20.5 6t-9.5 19q0 31 20 57.5t49 26.5q13 0 22.5 -10t14.5 -26l7 -23q50 14 85 62t35 106
q0 44 -15 87t-42 66h-228l-14 39h914l16 -39h-138v-657zM88 -20q-16 0 -26.5 10.5t-10.5 25.5q0 16 10.5 26.5t26.5 10.5t27 -10.5t11 -26.5q0 -15 -11 -25.5t-27 -10.5z" />
    <glyph glyph-name="dv_GhhRa" horiz-adv-x="587" 
d="M179 641v-416q0 -21 -7.5 -33t-21.5 -12q-34 0 -60.5 27t-26.5 57q0 13 10 21t23 8h35v348h-128l-14 39h593l16 -39h-138v-657l-48 16v218l-282 -256l-40 31l322 285v363h-233zM303 -58q-16 0 -26.5 10.5t-10.5 25.5q0 16 10.5 26.5t26.5 10.5t27 -10.5t11 -26.5
q0 -15 -11 -25.5t-27 -10.5z" />
    <glyph glyph-name="dv_ZRa" horiz-adv-x="752" 
d="M422 275q0 -93 -59 -144.5t-157 -51.5q-60 0 -108.5 17.5t-80.5 39.5l13 45q35 -27 80 -43t96 -16q79 0 121.5 43t42.5 110q0 61 -44.5 101.5t-114.5 40.5h-83l-17 39h466v185h-574l-14 39h758l16 -39h-138v-657l-48 16v217l-247 -255l-40 31l287 284v140h-234
q37 -14 58 -55t21 -87zM130 -58q-16 0 -26.5 10.5t-10.5 25.5q0 16 10.5 26.5t26.5 10.5t27 -10.5t11 -26.5q0 -15 -11 -25.5t-27 -10.5z" />
    <glyph glyph-name="dv_FRa" horiz-adv-x="895" 
d="M138 374q0 -69 44 -111.5t120 -42.5q63 0 103.5 35t40.5 88v298h-308v-267zM446 0v225l-284 -239l-44 28l212 165q-7 -1 -14 -1h-14q-102 0 -157 55t-55 154v254h-87l-14 39h901l16 -39h-412v-195q22 24 59.5 44.5t87.5 20.5q91 0 156 -52t65 -151q0 -94 -62.5 -148.5
t-143.5 -54.5l-12 37q79 0 122.5 50.5t43.5 115.5q0 69 -48.5 115.5t-117.5 46.5q-62 0 -98 -30t-52 -63v-393zM332 -58q-16 0 -26.5 10.5t-10.5 25.5q0 16 10.5 26.5t26.5 10.5t27 -10.5t11 -26.5q0 -15 -11 -25.5t-27 -10.5z" />
    <glyph glyph-name="dv_YyRa" horiz-adv-x="606" 
d="M431 0v231l-290 -245l-44 28l213 166q-8 -1 -16.5 -1.5t-15.5 -0.5q-88 0 -149.5 56.5t-61.5 128.5l12 14q31 9 56.5 46.5t25.5 92.5q0 42 -17.5 77t-51.5 48h-89l-14 39h612l16 -39h-138v-657zM113 344q18 -61 63.5 -91t101.5 -33q63 0 108 28t45 89v304h-278
q20 -13 38 -50t18 -81q0 -48 -24.5 -95t-71.5 -71zM317 -20q-16 0 -26.5 10.5t-10.5 25.5q0 16 10.5 26.5t26.5 10.5t27 -10.5t11 -26.5q0 -15 -11 -25.5t-27 -10.5z" />
    <glyph glyph-name="dv_KSsRa" horiz-adv-x="736" 
d="M255 652q-36 0 -61 -22.5t-25 -57.5q0 -39 26.5 -69.5t68.5 -52.5q37 29 59.5 58.5t22.5 57.5q0 29 -21.5 57.5t-69.5 28.5zM459 -43l-39 -22l-73 135q-14 -4 -32.5 -7.5t-47.5 -3.5q-72 0 -139.5 36.5t-67.5 126.5q0 60 48 105t117 94q-46 26 -76 63t-30 86t36 86.5
t104 37.5q57 0 96.5 -37t39.5 -86q0 -39 -25 -74t-62 -66q54 -22 115 -32.5t111 -10.5h27v292h170l16 -39h-138v-657l-48 16v302l-91 -125l-41 24l116 148h-12q-49 0 -123.5 11.5t-141.5 39.5l-20 -15q-52 -37 -94 -75t-42 -87q0 -56 42 -90.5t113 -34.5q23 0 36.5 4t22.5 9
q-8 16 -11.5 27t-3.5 18q0 21 13 29.5t28 8.5q22 0 46.5 -12.5t24.5 -34.5q0 -14 -10 -30t-29 -31z" />
    <glyph glyph-name="dv_KR.half" horiz-adv-x="604" 
d="M404 249v138q-16 33 -52 63t-98 30q-69 0 -117.5 -46.5t-48.5 -115.5t48.5 -115.5t117.5 -46.5q62 0 98 30t52 63zM452 387v-403l-48 16v168l-303 -202l-29 34l173 115q-87 3 -148 55t-61 148q0 99 65 151t156 52q50 0 87.5 -20.5t59.5 -44.5v185h-401l-14 39h610l16 -39
h-163v-185q22 24 59.5 44.5t87.5 20.5h140v-39h-137q-62 0 -98 -31t-52 -64z" />
    <glyph glyph-name="dv_GhR.half" horiz-adv-x="390" 
d="M526 280v-60l-284 -258l-40 31l107 95q-6 -1 -12.5 -1h-13.5q-96 0 -155.5 46t-59.5 123q0 46 24.5 87.5t73.5 61.5q-40 13 -64 50t-24 83q0 29 10.5 55.5t29.5 47.5h-115l-14 39h396l16 -39h-205q-31 -15 -49 -43.5t-18 -60.5q0 -49 33.5 -81.5t104.5 -32.5h36l16 -39
h-47q-89 0 -121.5 -40t-32.5 -89q0 -65 55 -94t113 -29q23 0 46 4t44 11z" />
    <glyph glyph-name="dv_TR.half" horiz-adv-x="247" 
d="M258 641h-255l-14 39h253zM373 367l4 -108l-282 -153l-26 38l303 163q-69 83 -126.5 107.5t-100.5 24.5q-19 0 -44.5 -9t-47.5 -19l-25 43q22 8 55.5 18t51.5 10q43 0 105.5 -17.5t132.5 -97.5z" />
    <glyph glyph-name="dv_TR.half.alt" horiz-adv-x="336" 
d="M347 641h-344l-14 39h342zM460 448v-37l24 -30l-203 -234l-45 27l212 235h-179q-83 0 -120 -34.5t-37 -86.5q0 -58 44.5 -131t91.5 -140q3 -4 5.5 -7.5t4.5 -7.5l-42 -20q-50 72 -101 155.5t-51 154.5q0 66 45 111t125 45h226z" />
    <glyph glyph-name="dv_DhR.half" horiz-adv-x="402" 
d="M530 280v-60l-284 -258l-40 31l107 95q-7 -1 -13.5 -1h-12.5q-96 0 -155.5 46t-59.5 123q0 46 24.5 87.5t73.5 61.5q-40 13 -64 50t-24 83q0 63 44 109.5t125 46.5q47 0 82.5 -18.5t46.5 -34.5l-30 -26q-15 16 -40.5 26.5t-59.5 10.5q-56 0 -86.5 -35t-30.5 -80
q0 -49 33.5 -81.5t104.5 -32.5h36l16 -39h-47q-89 0 -121.5 -40t-32.5 -89q0 -65 55 -94t113 -29q23 0 46 4t43 11z" />
    <glyph glyph-name="dv_PR.half" horiz-adv-x="322" 
d="M470 246l-308 -260l-44 28l212 165q-7 -1 -14 -1h-14q-102 0 -157 55t-55 154v254h-87l-14 39h328l16 -39h-195v-267q0 -69 44 -111.5t120 -42.5q63 0 102.5 35t41.5 88z" />
    <glyph glyph-name="dv_VR.half" horiz-adv-x="491" 
d="M502 641h-499l-14 39h497zM432 179l-319 -213l-29 34l172 115q-91 0 -155.5 52t-64.5 151q0 93 65 148t156 55q83 0 149 -52.5t66 -150.5q0 -39 -10.5 -70.5t-29.5 -55.5v-13zM254 480q-69 0 -117.5 -46.5t-48.5 -115.5t48.5 -115.5t117.5 -46.5t117.5 46.5t48.5 115.5
t-48.5 115.5t-117.5 46.5z" />
    <glyph glyph-name="dv_ShR.half" horiz-adv-x="352" 
d="M60 219l-22 36l202 154q-48 39 -74.5 76.5t-26.5 82.5q0 53 37 89.5t96 36.5q55 0 93 -36.5t38 -89.5q0 -42 -26.5 -81.5t-69.5 -76.5l176 -130v-96l-281 -200l-24 36l300 213l-205 151zM272 654q-34 0 -59 -24t-25 -64t23 -69t63 -61q48 40 65.5 73t17.5 57
q0 35 -23 61.5t-62 26.5z" />
    <glyph glyph-name="dv_SsR.half" horiz-adv-x="308" 
d="M446 225l-284 -239l-44 28l212 165q-7 -1 -14 -1h-14q-102 0 -157 55t-55 154v254h-87l-14 39h314l16 -39h-164l288 -319q1 5 1.5 10.5t1.5 10.5v-118zM138 374q0 -69 44 -111.5t120 -42.5q43 0 76 17t50 46l-290 319v-228z" />
    <glyph glyph-name="dv_SR.half" horiz-adv-x="423" 
d="M124 270h-39q-11 0 -20.5 7.5t-9.5 17.5q0 34 20 59t49 25q13 0 22.5 -10t14.5 -26l7 -23q50 14 85 62t35 106q0 44 -15 87t-42 66h-228l-14 39h429l16 -39h-144q25 -31 36.5 -74t11.5 -79q0 -44 -16 -84t-45 -70h291l3 -26l35 -10l-262 -298l-49 -18zM549 299h-317
q-13 -8 -28 -14.5t-31 -10.5l145 -233z" />
    <glyph glyph-name="dv_GR.half" horiz-adv-x="285" 
d="M179 641v-416q0 -21 -7.5 -33t-21.5 -12q-34 0 -60.5 27t-26.5 57q0 13 10 21t23 8h35v348h-128l-14 39h291l16 -39h-117zM414 280v-60l-284 -258l-40 31z" />
    <glyph glyph-name="dv_DR.half" horiz-adv-x="564" 
d="M524 -21l-39 -22l-73 135q-12 -3 -24.5 -5t-25.5 -3l-72 -136l-47 18l66 117q-100 2 -175.5 57.5t-75.5 167.5q0 92 73.5 152t199.5 60h72v121h-400l-14 39h570l16 -39h-124v-160h-113q-105 0 -167.5 -49t-62.5 -124q0 -80 56 -131.5t156 -51.5q19 0 38 2t34 5
q-8 17 -12 28t-4 18q0 21 13 29.5t28 8.5q22 0 46.5 -12.5t24.5 -34.5q0 -14 -10 -30t-29 -31zM532 -288l-204 183l29 36l196 -192z" />
    <glyph glyph-name="dv_BhR.half" horiz-adv-x="402" 
d="M522 239l-304 -253l-40 28l305 247h-224v-29q0 -21 -7.5 -33t-21.5 -12q-34 0 -60.5 27t-26.5 57q0 13 10 21t23 8h36v206q-12 -12 -31 -18.5t-41 -6.5q-51 0 -81.5 29.5t-30.5 74.5q0 46 31.5 77.5t80.5 31.5q60 0 90 -39.5t30 -98.5v-256h262v-61zM73 586q0 -23 17 -46
t54 -23q25 0 42.5 12.5t25.5 25.5q-1 37 -15 68.5t-54 31.5q-34 0 -52 -22t-18 -47z" />
    <glyph glyph-name="dv_GRYa" horiz-adv-x="891" 
d="M398 344q18 -61 63.5 -91t101.5 -33q63 0 108 28t45 89v304h-278q20 -13 38 -50t18 -81q0 -48 -24.5 -95t-71.5 -71zM716 0v239q-18 -31 -62.5 -46t-90.5 -15q-40 0 -76 12.5t-64 34.5l-293 -263l-40 31l300 266q-18 22 -28 49t-10 55l12 14q31 9 56.5 46.5t25.5 92.5
q0 42 -17.5 77t-51.5 48h-198v-416q0 -21 -7.5 -33t-21.5 -12q-34 0 -60.5 27t-26.5 57q0 13 10 21t23 8h35v348h-128l-14 39h897l16 -39h-138v-657z" />
    <glyph glyph-name="dv_ChRYa" horiz-adv-x="1318" 
d="M1143 641h-950q-34 -16 -51.5 -50t-17.5 -77q0 -54 33 -100t93 -46h82l14 -35h-94q-56 0 -100 -45t-44 -111q0 -67 48.5 -109.5t126.5 -42.5q103 0 190 63.5t134 150.5q-63 6 -130.5 53t-67.5 125q0 64 41 103.5t105 39.5q23 0 42.5 -6.5t35.5 -16.5h173q59 0 85 -22.5
t26 -54.5t-21.5 -59.5t-70.5 -56.5q18 -61 63.5 -91t101.5 -33q64 0 108.5 29.5t44.5 94.5v297zM554 520q-48 0 -73 -31.5t-25 -71.5q0 -64 59.5 -100t108.5 -43q13 32 20.5 65t7.5 64q0 38 -20.5 77.5t-77.5 39.5zM810 498h-139q15 -22 22 -46t7 -45q0 -104 -94 -252.5
t-277 -167.5l101 -112l-27 -25l-117 129l-119 -129l-27 25l101 112q-91 10 -137.5 62t-46.5 130q0 48 35.5 102t88.5 72q-54 23 -81.5 67.5t-27.5 88.5q0 37 12 72t37 60h-118l-14 39h1324l16 -39h-138v-657l-48 16v239q-18 -31 -62.5 -46t-90.5 -15q-88 0 -149.5 56.5
t-61.5 128.5l12 14q31 9 56.5 33.5t25.5 47.5q0 14 -11.5 27t-51.5 13z" />
    <glyph glyph-name="dv_TtTtYa" horiz-adv-x="1084" 
d="M909 314v327h-490v-127h153q59 0 85 -22.5t26 -54.5t-21.5 -59.5t-70.5 -56.5q18 -61 63.5 -91t101.5 -33q63 0 107 28t46 89zM576 475h-258q-98 0 -149.5 -42t-51.5 -120q0 -84 53 -122t138 -38q39 0 82 8.5t80 35.5l7 -38q-13 -10 -27.5 -17.5t-30.5 -12.5v-154h-101
q-98 0 -149.5 -42t-51.5 -120q0 -84 53 -122t138 -38q39 0 82 8.5t80 35.5l7 -38q-31 -24 -75.5 -34.5t-93.5 -10.5q-93 0 -168 46.5t-75 152.5q0 100 73.5 150.5t179.5 50.5h53v104q-16 -2 -31.5 -3t-31.5 -1q-93 0 -168 46.5t-75 152.5q0 100 73.5 150.5t179.5 50.5h53
v127h-368l-14 39h1090l16 -39h-138v-657l-48 16v216q-18 -31 -62.5 -46t-90.5 -15q-88 0 -149.5 56.5t-61.5 128.5l12 14q31 9 56.5 33.5t25.5 47.5q0 14 -11.5 27t-51.5 13z" />
    <glyph glyph-name="dv_TthTthYa" horiz-adv-x="1182" 
d="M1007 641h-670v-119q35 -1 68.5 -9.5t61.5 -23.5h203q59 0 85 -22.5t26 -54.5t-21.5 -59.5t-70.5 -56.5q18 -61 63.5 -91t101.5 -33q63 0 108 28t45 89v352zM509 324q0 84 -53 122t-138 38q-98 0 -149.5 -42t-51.5 -120q0 -84 53 -122t138 -38q98 0 149.5 42t51.5 120z
M674 450h-158q21 -23 33 -54.5t12 -71.5q0 -93 -64 -143.5t-160 -56.5v-111q87 -4 155.5 -50.5t68.5 -147.5q0 -100 -73.5 -150.5t-179.5 -50.5q-93 0 -168 46.5t-75 152.5q0 93 64 143t160 57v110q-88 4 -156 51t-68 148q0 93 64 143t160 57v119h-286l-14 39h1188l16 -39
h-138v-657l-48 16v191q-18 -31 -62.5 -46t-90.5 -15q-88 0 -149.5 56.5t-61.5 128.5l12 14q31 9 56.5 33.5t25.5 47.5q0 14 -11.5 27t-51.5 13zM509 -185q0 84 -53 122t-138 38q-98 0 -149.5 -42t-51.5 -120q0 -84 53 -122t138 -38q98 0 149.5 42t51.5 120z" />
    <glyph glyph-name="dv_DdDdYa" horiz-adv-x="1047" 
d="M390 641v-71h145q59 0 85 -22.5t26 -54.5t-21.5 -59.5t-70.5 -56.5q18 -61 63.5 -91t101.5 -33q63 0 108 28t45 89v271h-482zM104 211q31 -20 77.5 -36t86.5 -16q66 0 97.5 26t31.5 72q0 40 -24 70t-81 30h-83q-49 0 -83.5 29.5t-34.5 75.5q0 50 34.5 79t88.5 29h128v71
h-339l-14 39h1053l16 -39h-138v-657l-48 16v272q-18 -31 -62.5 -46t-90.5 -15q-88 0 -149.5 56.5t-61.5 128.5l12 14q31 9 56.5 33.5t25.5 47.5q0 14 -11.5 27t-51.5 13h-328q-32 0 -51.5 -21.5t-19.5 -47.5q0 -28 20.5 -47t52.5 -19h71q69 0 115.5 -36t46.5 -98
q0 -35 -13.5 -65t-42.5 -49v-122h-179q-32 0 -51.5 -21.5t-19.5 -47.5q0 -28 20.5 -47t52.5 -19h71q69 0 115.5 -36t46.5 -98q0 -60 -41 -101.5t-137 -41.5q-46 0 -96 15.5t-78 32.5l10 44q31 -20 77.5 -36t86.5 -16q66 0 97.5 26t31.5 72q0 40 -24 70t-81 30h-83
q-49 0 -83.5 29.5t-34.5 75.5q0 50 34.5 79t88.5 29h128v62q-16 -4 -34.5 -6t-39.5 -2q-46 0 -96 15.5t-78 32.5z" />
    <glyph glyph-name="dv_DdhDdhYa" horiz-adv-x="1114" 
d="M419 641v-111h183q59 0 85 -22.5t26 -54.5t-21.5 -59.5t-70.5 -56.5q18 -61 63.5 -91t101.5 -33q63 0 108 28.5t45 88.5v311h-520zM308 -347h5q-29 19 -42.5 51.5t-13.5 54.5q0 51 36.5 86.5t90.5 35.5q58 0 93 -34t35 -83q0 -63 -59.5 -106.5t-144.5 -43.5
q-93 0 -168 51.5t-75 157.5q0 100 73.5 155.5t179.5 55.5h53v83q-15 -4 -31 -5.5t-32 -1.5q-93 0 -168 51.5t-75 157.5q0 100 73.5 155.5t179.5 55.5h53v111h-368l-14 39h1120l16 -39h-138v-657l-48 16v232q-18 -31 -62.5 -46t-90.5 -15q-88 0 -149.5 56.5t-61.5 128.5
l12 14q31 9 56.5 33.5t25.5 47.5q0 14 -11.5 27t-51.5 13h-288q-98 0 -149.5 -47t-51.5 -125q0 -84 53 -127t138 -43h5q-29 19 -42.5 51t-13.5 55q0 51 36.5 86.5t90.5 35.5q58 0 93 -34t35 -83q0 -40 -25.5 -73.5t-67.5 -53.5v-138h-101q-98 0 -149.5 -47t-51.5 -125
q0 -84 53 -127t138 -43zM389 334q-40 0 -61 -24t-21 -58t16 -58t43 -39q48 12 71.5 41t23.5 62q0 28 -17 52t-55 24zM389 -162q-40 0 -61 -24t-21 -58q0 -33 16 -57.5t43 -38.5q48 12 71.5 40.5t23.5 61.5q0 28 -17 52t-55 24z" />
    <glyph glyph-name="dv_DdhRYa" horiz-adv-x="1232" 
d="M493 641v-156h227q59 0 85 -22.5t26 -54.5t-21.5 -59.5t-70.5 -56.5q18 -61 63.5 -91t101.5 -33q64 0 108.5 29.5t44.5 94.5v349h-564zM356 21h14q-38 20 -55.5 59.5t-17.5 67.5q0 58 42 99t103 41q67 0 107 -39.5t40 -94.5q0 -63 -54 -110.5t-135 -58.5l100 -110
l-27 -25l-117 129l-119 -129l-27 25l98 109q-101 9 -176.5 65t-75.5 183q0 124 90.5 188.5t221.5 64.5h77v156h-442l-14 39h1238l16 -39h-138v-657l-48 16v187q-18 -31 -62.5 -46t-90.5 -15q-88 0 -149.5 56.5t-61.5 128.5l12 14q31 9 56.5 33.5t25.5 47.5q0 14 -11.5 27
t-51.5 13h-356q-121 0 -190.5 -59t-69.5 -155q0 -109 69 -160t179 -51zM447 245q-50 0 -75 -30t-25 -70q0 -42 21.5 -70.5t55.5 -44.5q55 15 84.5 49.5t29.5 72.5q0 32 -21 62.5t-70 30.5z" />
    <glyph glyph-name="dv_DGRa" horiz-adv-x="564" 
d="M524 -21l-39 -22l-73 135q-12 -3 -24.5 -5t-25.5 -3l-72 -136l-47 18l66 117q-30 1 -59 6.5t-54 15.5v-183q0 -21 -7.5 -33t-21.5 -12q-34 0 -60.5 27t-26.5 57q0 13 10 21t23 8h35v139q-41 28 -65.5 72.5t-24.5 106.5q0 92 73.5 152t199.5 60h72v121h-400l-14 39h570
l16 -39h-124v-160h-113q-105 0 -167.5 -49t-62.5 -124q0 -80 56 -131.5t156 -51.5q19 0 38 2t34 5q-8 17 -12 28t-4 18q0 21 13 29.5t28 8.5q22 0 46.5 -12.5t24.5 -34.5q0 -14 -10 -30t-29 -31z" />
    <glyph glyph-name="dv_DDYa" horiz-adv-x="1059" 
d="M884 337v304h-472v-104h135q59 0 85 -22.5t26 -54.5t-21.5 -59.5t-70.5 -56.5q18 -61 63.5 -91t101.5 -33q63 0 107 28t46 89zM160 310q-37 13 -58 43t-21 67q0 49 37 83t101 34h145v104h-361l-14 39h1065l16 -39h-138v-657l-48 16v239q-18 -31 -62.5 -46t-90.5 -15
q-88 0 -149.5 56.5t-61.5 128.5l12 14q31 9 56.5 33.5t25.5 47.5q0 14 -11.5 27t-51.5 13h-342q-32 0 -56 -20.5t-24 -57.5q0 -36 24 -58t56 -22h170l16 -39h-113q-72 0 -117.5 -39t-45.5 -99q0 -58 43 -97.5t143 -39.5q20 0 39.5 5t34.5 10q-8 17 -12 28t-4 19
q0 21 13 29.5t28 8.5q22 0 46.5 -12.5t24.5 -34.5q0 -14 -10 -30t-29 -31l75 -129l-39 -22l-72 135q-22 -7 -46.5 -12.5t-48.5 -5.5q-104 0 -170 45.5t-66 133.5q0 53 26 89.5t65 57.5z" />
    <glyph glyph-name="dv_DBRa" horiz-adv-x="564" 
d="M169 52q0 -60 42 -101.5t105 -41.5q15 0 30 3t28 8l-194 188q-5 -13 -8 -27t-3 -29zM411 92q-21 -5 -44 -7t-47 -2q-16 0 -32.5 1.5t-32.5 3.5l154 -149q17 13 29.5 29.5t18.5 34.5zM552 -84l-39 -22l-34 65q-16 -33 -51.5 -57.5t-78.5 -31.5l-66 -112l-47 13l60 97
q-75 7 -126 55.5t-51 127.5q0 22 5 44t15 41q-37 28 -59 71t-22 101q0 92 73.5 152t199.5 60h72v121h-400l-14 39h570l16 -39h-124v-160h-113q-105 0 -167.5 -49t-62.5 -124q0 -80 56 -131.5t156 -51.5q19 0 38 1.5t33 5.5q-5 11 -10 24.5t-5 21.5q0 21 13 29.5t28 8.5
q22 0 46.5 -12.5t24.5 -34.5q0 -14 -10 -30t-29 -31z" />
    <glyph glyph-name="dv_DRYa" horiz-adv-x="751" 
d="M412 641v-143h-203q-32 0 -56 -20.5t-24 -57.5q0 -36 24 -58t56 -22h170l16 -39h-120q-69 0 -112.5 -34.5t-43.5 -93.5q0 -58 48 -92.5t148 -34.5q17 0 38 4t43 13l180 178v400h-164zM155 312q-35 14 -54.5 43t-19.5 65q0 49 37 83t101 34h145v104h-361l-14 39h757
l16 -39h-138v-657l-48 16v176l-245 -239l-41 21l47 47q-7 -1 -13.5 -1h-13.5q-104 0 -172.5 40.5t-68.5 128.5q0 51 24.5 85.5t61.5 53.5z" />
    <glyph glyph-name="dv_DVYa" horiz-adv-x="1070" 
d="M895 320v321h-444v-121h107q59 0 85 -22.5t26 -54.5t-21.5 -59.5t-70.5 -56.5q18 -61 63.5 -91t101.5 -33q63 0 108 28t45 89zM411 92q-21 -5 -44 -7t-47 -2q-37 0 -72.5 7t-66.5 21q-6 -13 -9 -28t-3 -31q0 -60 42 -101.5t105 -41.5q51 0 90 27.5t51 66.5zM562 481h-224
q-105 0 -167.5 -49t-62.5 -124q0 -80 56 -131.5t156 -51.5q19 0 38 1.5t33 5.5q-5 11 -10 24.5t-5 21.5q0 21 13 29.5t28 8.5q22 0 46.5 -12.5t24.5 -34.5q0 -14 -10 -30t-29 -31l103 -192l-39 -22l-34 65q-19 -39 -65 -65.5t-97 -26.5q-82 0 -140 49.5t-58 134.5q0 22 5 44
t15 41q-37 28 -59 71t-22 101q0 92 73.5 152t199.5 60h72v121h-400l-14 39h1076l16 -39h-138v-657l-48 16v222q-18 -31 -62.5 -46t-90.5 -15q-88 0 -149.5 56.5t-61.5 128.5l12 14q31 9 56.5 33.5t25.5 47.5q0 14 -11.5 27t-51.5 13z" />
    <glyph glyph-name="dv_DVRa" horiz-adv-x="564" 
d="M411 92q-21 -5 -44 -7t-47 -2q-37 0 -72.5 7t-66.5 21q-6 -13 -9 -28t-3 -31q0 -60 42 -101.5t105 -41.5q51 0 90 27.5t51 66.5zM552 -84l-39 -22l-34 65q-16 -33 -51.5 -57.5t-78.5 -31.5l-66 -112l-47 13l60 97q-75 7 -126 55.5t-51 127.5q0 22 5 44t15 41
q-37 28 -59 71t-22 101q0 92 73.5 152t199.5 60h72v121h-400l-14 39h570l16 -39h-124v-160h-113q-105 0 -167.5 -49t-62.5 -124q0 -80 56 -131.5t156 -51.5q19 0 38 1.5t33 5.5q-5 11 -10 24.5t-5 21.5q0 21 13 29.5t28 8.5q22 0 46.5 -12.5t24.5 -34.5q0 -14 -10 -30
t-29 -31z" />
    <glyph glyph-name="dv_DhNYa" horiz-adv-x="1014" 
d="M521 344q18 -61 63.5 -91t101.5 -33q63 0 108 28t45 89v304h-278q20 -13 38 -50t18 -81q0 -48 -24.5 -95t-71.5 -71zM839 0v239q-18 -31 -62.5 -46t-90.5 -15q-45 0 -84.5 16t-67.5 42l-218 -204l18 -26q6 -8 9.5 -17.5t3.5 -16.5q0 -18 -20 -25.5t-36 -7.5q-19 0 -49 12
t-30 38q0 8 4.5 13.5t11.5 11.5l80 73h-21q-96 0 -155.5 46t-59.5 123q0 46 24.5 87.5t73.5 61.5q-40 13 -64 50t-24 83q0 63 47 109.5t128 46.5q47 0 84.5 -18.5t48.5 -34.5l-30 -26q-15 16 -42.5 26.5t-61.5 10.5q-56 0 -89.5 -35t-33.5 -80q0 -49 33.5 -81.5t104.5 -32.5
h36l16 -39h-47q-89 0 -121.5 -40t-32.5 -89q0 -65 55 -94t113 -29q20 0 39.5 2.5t37.5 7.5l138 127q-14 21 -22 45t-8 49l12 14q31 9 56.5 46.5t25.5 92.5q0 42 -17.5 77t-51.5 48h-53l-14 39h576l16 -39h-138v-657z" />
    <glyph glyph-name="dv_NNYa" horiz-adv-x="912" 
d="M419 344q18 -61 63.5 -91t101.5 -33q64 0 108.5 29.5t44.5 94.5v297h-278q20 -13 38 -50t18 -81q0 -48 -24.5 -95t-71.5 -71zM737 0v239q-18 -31 -62.5 -46t-90.5 -15q-69 0 -122.5 35.5t-75.5 86.5l-208 -120l14 -25q4 -7 6.5 -14t2.5 -13q0 -16 -14.5 -26.5
t-37.5 -10.5q-19 0 -50 13.5t-31 40.5q0 8 5 15.5t13 11.5l288 166l-217 125l-14 -25q-7 -14 -16.5 -21.5t-18.5 -7.5q-25 0 -40.5 30.5t-15.5 52.5q0 16 8.5 33.5t25.5 17.5q4 0 8.5 -1t9.5 -4l284 -163q30 12 54.5 50.5t24.5 90.5q0 42 -17.5 77t-51.5 48h-395l-14 39h918
l16 -39h-138v-657z" />
    <glyph glyph-name="dv_PTthYa" horiz-adv-x="1103" 
d="M151 641v-154q0 -69 39.5 -107t93.5 -38t94 38t40 107v154h-267zM928 641h-462v-104h125q59 0 85 -22.5t26 -54.5t-21.5 -59.5t-70.5 -56.5q18 -61 63.5 -91t101.5 -33q64 0 108.5 29.5t44.5 94.5v297zM595 498h-129v-6q0 -66 -25 -108.5t-65 -63.5q46 -22 76.5 -63.5
t30.5 -95.5q0 -83 -59 -131.5t-137 -48.5t-139 50t-61 130q0 57 29 98t75 62q-40 21 -64 63.5t-24 107.5v149h-100l-14 39h1109l16 -39h-138v-657l-48 16v239q-18 -31 -62.5 -46t-90.5 -15q-88 0 -149.5 56.5t-61.5 128.5l12 14q31 9 56.5 33.5t25.5 47.5q0 14 -11.5 27
t-51.5 13zM285 23q54 0 100 38t46 100q0 61 -45.5 99.5t-100.5 38.5q-54 0 -100 -38t-46 -100q0 -61 45.5 -99.5t100.5 -38.5z" />
    <glyph glyph-name="dv_BhRYa" horiz-adv-x="1008" 
d="M833 0v239q-18 -31 -62.5 -46t-90.5 -15q-44 0 -83 15.5t-67 41.5l-312 -249l-40 28l317 247h-236v-29q0 -21 -7.5 -33t-21.5 -12q-34 0 -60.5 27t-26.5 57q0 13 10 21t23 8h36v206q-12 -12 -31 -18.5t-41 -6.5q-51 0 -81.5 29.5t-30.5 74.5q0 46 31.5 77.5t80.5 31.5
q60 0 90 -39.5t30 -98.5v-256h222q-6 15 -9.5 31t-3.5 32l12 14q31 9 56.5 46.5t25.5 92.5q0 42 -17.5 77t-51.5 48h-89l-14 39h612l16 -39h-138v-657zM73 586q0 -23 17 -46t54 -23q25 0 42.5 12.5t25.5 25.5q-1 37 -15 68.5t-54 31.5q-34 0 -52 -22t-18 -47zM515 344
q18 -61 63.5 -91t101.5 -33q64 0 108.5 29.5t44.5 94.5v297h-278q20 -13 38 -50t18 -81q0 -48 -24.5 -95t-71.5 -71z" />
    <glyph glyph-name="dv_ShRYa" horiz-adv-x="958" 
d="M783 0v239q-18 -31 -62.5 -46t-90.5 -15q-31 0 -60 8t-54 22l-314 -224l-24 36l300 213l-205 151l-213 -165l-22 36l202 154q-48 39 -74.5 76.5t-26.5 82.5q0 53 37 89.5t96 36.5q19 0 37 -5t34 -14l-2 5h612l16 -39h-138v-657zM272 654q-34 0 -59 -24t-25 -64t23 -69
t63 -61q48 40 65.5 73t17.5 57q0 35 -23 61.5t-62 26.5zM379 641q11 -16 17.5 -34.5t6.5 -38.5q0 -42 -26.5 -81.5t-69.5 -76.5l117 -86q-3 9 -4 19t-1 20l12 14q31 9 56.5 46.5t25.5 92.5q0 42 -17.5 77t-51.5 48h-65zM465 344q18 -61 63.5 -91t101.5 -33q63 0 108 27.5
t45 89.5v304h-278q20 -13 38 -50t18 -81q0 -48 -24.5 -95t-71.5 -71z" />
    <glyph glyph-name="dv_SsTtYa" horiz-adv-x="1103" 
d="M181 641l220 -230q8 16 12.5 35t4.5 41v154h-237zM928 641h-462v-104h125q59 0 85 -22.5t26 -54.5t-21.5 -59.5t-70.5 -56.5q18 -61 63.5 -91t101.5 -33q63 0 108 28t45 89v304zM151 618v-131q0 -69 39.5 -107t93.5 -38q27 0 51.5 9.5t42.5 27.5zM136 164
q0 -67 43.5 -104t112.5 -37q47 0 88.5 14.5t79.5 44.5l9 -44q-32 -27 -78 -42t-97 -15q-86 0 -148 46.5t-62 135.5q0 49 26 92.5t72 70.5q-36 22 -57.5 63.5t-21.5 102.5v149h-100l-14 39h1109l16 -39h-138v-657l-48 16v239q-18 -31 -62.5 -46t-90.5 -15q-88 0 -149.5 56.5
t-61.5 128.5l12 14q31 9 56.5 33.5t25.5 47.5q0 14 -11.5 27t-51.5 13h-129v-6q0 -99 -53.5 -145.5t-127.5 -46.5q-10 0 -20 1l-20 2q-49 -10 -79 -50t-30 -89z" />
    <glyph glyph-name="dv_SsTtVa" horiz-adv-x="537" 
d="M181 641l220 -230q8 16 12.5 35t4.5 41v154h-237zM151 618v-131q0 -69 39.5 -107t93.5 -38q27 0 51.5 9.5t42.5 27.5zM411 -344v94q-19 -30 -60 -50.5t-87 -20.5q-91 0 -141 45.5t-50 132.5q0 64 31 102.5t62 53.5q-37 22 -59.5 60t-22.5 90q0 49 26 92.5t72 70.5
q-36 22 -57.5 63.5t-21.5 102.5v149h-100l-14 39h543l16 -39h-82v-149q0 -99 -53.5 -145.5t-127.5 -46.5q-10 0 -20 1l-20 2q-49 -10 -79 -50t-30 -89q0 -67 43.5 -104t112.5 -37q47 0 88.5 14.5t79.5 44.5l9 -44l-10 -8v-390zM411 3q-26 -10 -56 -16t-61 -6q-22 0 -44 3
t-41 10q-39 -15 -61.5 -53t-22.5 -84q0 -69 39 -103t97 -34q62 0 101 35.5t49 67.5v180z" />
    <glyph glyph-name="dv_SsTthYa" horiz-adv-x="1103" 
d="M181 641l220 -230q8 16 12.5 35t4.5 41v154h-237zM928 641h-462v-104h125q59 0 85 -22.5t26 -54.5t-21.5 -59.5t-70.5 -56.5q18 -61 63.5 -91t101.5 -33q63 0 108 28t45 89v304zM151 618v-131q0 -69 39.5 -107t93.5 -38q27 0 51.5 9.5t42.5 27.5zM595 498h-129v-6
q0 -66 -25 -108.5t-65 -63.5q46 -22 76.5 -63.5t30.5 -95.5q0 -83 -59 -131.5t-137 -48.5t-139 50t-61 130q0 57 29 98t75 62q-40 21 -64 63.5t-24 107.5v149h-100l-14 39h1109l16 -39h-138v-657l-48 16v239q-18 -31 -62.5 -46t-90.5 -15q-88 0 -149.5 56.5t-61.5 128.5
l12 14q31 9 56.5 33.5t25.5 47.5q0 14 -11.5 27t-51.5 13zM285 23q54 0 100 38t46 100q0 61 -45.5 99.5t-100.5 38.5q-54 0 -100 -38t-46 -100q0 -61 45.5 -99.5t100.5 -38.5z" />
    <glyph glyph-name="dv_HMYa" horiz-adv-x="1394" 
d="M1219 0v239q-18 -31 -62.5 -46t-90.5 -15q-69 0 -122.5 36t-75.5 87h-249v-29q0 -21 -7.5 -33t-21.5 -12q-34 0 -60.5 27t-26.5 57q0 4 1.5 8t3.5 8h-227q-72 0 -114 -36t-42 -96q0 -90 80 -128.5t162 -43.5l-15 -39q-106 6 -191 59t-85 152q0 43 17.5 78.5t51.5 57.5
q-23 15 -43.5 42t-20.5 60q0 54 35 79t99 25h166v104h-378l-14 39h1400l16 -39h-138v-657zM429 641v-143h-230q-32 0 -51 -19t-19 -45q0 -25 17 -47t43 -35q19 7 43 10.5t51 3.5h289v275h-143zM867 377q31 9 56.5 46.5t25.5 92.5q0 42 -17.5 77t-51.5 48h-260v-301h236
q-1 5 -1 11v12zM997 510q0 -48 -24.5 -95t-71.5 -71q17 -53 66 -88.5t99 -35.5q64 0 108.5 29.5t44.5 94.5v297h-278q20 -13 38 -50t18 -81z" />
    <glyph glyph-name="dv_NgYa" horiz-adv-x="1162" 
d="M987 316v325h-563v-125h226q59 0 85 -22.5t26 -54.5t-21.5 -59.5t-70.5 -56.5q18 -61 63.5 -91t101.5 -33q63 0 107 28t46 89zM79 83q36 -25 90 -43t107 -19q79 0 122.5 35t43.5 91q0 48 -34 86.5t-103 38.5h-100q-58 0 -100 33.5t-42 88.5q0 60 42 91t106 31h165v125
h-373l-14 39h1168l16 -39h-138v-657l-48 16v218q-18 -31 -62.5 -46t-90.5 -15q-88 0 -149.5 56.5t-61.5 128.5l12 14q31 9 56.5 33.5t25.5 47.5q0 14 -11.5 27t-51.5 13h-456q-39 0 -62 -26t-23 -57q0 -33 24 -58t63 -25h96q83 0 139 -41.5t56 -116.5q0 -73 -49.5 -122.5
t-165.5 -49.5q-61 0 -120.5 18t-88.5 39zM503 328q-16 0 -26.5 10.5t-10.5 25.5q0 16 10.5 26.5t26.5 10.5t27 -10.5t11 -26.5q0 -15 -11 -25.5t-27 -10.5z" />
    <glyph glyph-name="dv_TtTta" horiz-adv-x="538" 
d="M117 -187q0 -84 53 -122t138 -38q39 0 82 8.5t80 35.5l7 -38q-31 -24 -75.5 -34.5t-93.5 -10.5q-93 0 -168 46.5t-75 152.5q0 100 73.5 150.5t179.5 50.5h53v104q-16 -2 -31.5 -3t-31.5 -1q-93 0 -168 46.5t-75 152.5q0 100 73.5 150.5t179.5 50.5h53v127h-368l-14 39
h544l16 -39h-130v-166h-101q-98 0 -149.5 -42t-51.5 -120q0 -84 53 -122t138 -38q39 0 82 8.5t80 35.5l7 -38q-13 -10 -27.5 -17.5t-30.5 -12.5v-154h-101q-98 0 -149.5 -42t-51.5 -120z" />
    <glyph glyph-name="dv_TtTtha" horiz-adv-x="550" 
d="M117 313q0 -84 53 -122t138 -38q39 0 82 8.5t80 35.5l7 -38q-26 -20 -63 -31t-77 -14v-101q87 -4 155.5 -50.5t68.5 -147.5q0 -100 -73.5 -150.5t-179.5 -50.5q-93 0 -168 46.5t-75 152.5q0 93 64 143t160 57v101q-88 4 -156 51t-68 148q0 100 73.5 150.5t179.5 50.5h53
v127h-368l-14 39h544l16 -39h-130v-166h-101q-98 0 -149.5 -42t-51.5 -120zM509 -185q0 84 -53 122t-138 38q-98 0 -149.5 -42t-51.5 -120q0 -84 53 -122t138 -38q98 0 149.5 42t51.5 120z" />
    <glyph glyph-name="dv_TtDdha" horiz-adv-x="538" 
d="M308 -347h5q-29 19 -42.5 51.5t-13.5 54.5q0 51 36.5 86.5t90.5 35.5q58 0 93 -34t35 -83q0 -63 -59.5 -106.5t-144.5 -43.5q-93 0 -168 51.5t-75 157.5q0 100 73.5 155.5t179.5 55.5h53v94q-16 -2 -31.5 -3t-31.5 -1q-93 0 -168 46.5t-75 152.5q0 100 73.5 150.5
t179.5 50.5h53v117h-368l-14 39h544l16 -39h-130v-156h-101q-98 0 -149.5 -42t-51.5 -120q0 -84 53 -122t138 -38q39 0 82 8.5t80 35.5l7 -38q-13 -10 -27.5 -17.5t-30.5 -12.5v-144h-101q-98 0 -149.5 -47t-51.5 -125q0 -84 53 -127t138 -43zM389 -162q-40 0 -61 -24
t-21 -58q0 -33 16 -57.5t43 -38.5q48 12 71.5 40.5t23.5 61.5q0 28 -17 52t-55 24z" />
    <glyph glyph-name="dv_TtYa" horiz-adv-x="1156" 
d="M494 641v-166h150q59 0 85 -22.5t26 -54.5t-21.5 -59.5t-70.5 -56.5q18 -61 63.5 -91t101.5 -33q64 0 108.5 29.5t44.5 94.5v359h-487zM648 436h-279q-121 0 -190.5 -56.5t-69.5 -152.5q0 -109 69 -157.5t179 -48.5q55 0 104.5 15t95.5 48l8 -43q-38 -29 -93 -44
t-115 -15q-115 0 -207.5 52t-92.5 193q0 124 90.5 186t221.5 62h77v166h-443l-14 39h1162l16 -39h-138v-657l-48 16v177q-18 -31 -62.5 -46t-90.5 -15q-88 0 -149.5 56.5t-61.5 128.5l12 14q31 9 56.5 33.5t25.5 47.5q0 14 -11.5 27t-51.5 13z" />
    <glyph glyph-name="dv_TtVa" horiz-adv-x="598" 
d="M465 -344v82q-19 -30 -65 -50.5t-92 -20.5q-91 0 -146 45.5t-55 132.5q0 69 35 108t66 51q-66 23 -108.5 76.5t-42.5 146.5q0 124 90.5 186t221.5 62h77v166h-443l-14 39h604l16 -39h-115v-205h-125q-121 0 -190.5 -56.5t-69.5 -152.5q0 -109 69 -157.5t179 -48.5
q55 0 104.5 15t95.5 48l8 -43q-11 -9 -24.5 -16.5t-27.5 -13.5v-371zM465 -5q-25 -6 -52.5 -9.5t-55.5 -3.5q-22 0 -43 1.5t-42 5.5q-51 -5 -82 -47.5t-31 -96.5q0 -69 44 -103t102 -34q62 0 106 35.5t54 67.5v184z" />
    <glyph glyph-name="dv_TthTtha" horiz-adv-x="596" 
d="M607 641h-270v-119q87 -4 155.5 -50.5t68.5 -147.5q0 -93 -64 -143.5t-160 -56.5v-111q87 -4 155.5 -50.5t68.5 -147.5q0 -100 -73.5 -150.5t-179.5 -50.5q-93 0 -168 46.5t-75 152.5q0 93 64 143t160 57v110q-88 4 -156 51t-68 148q0 93 64 143t160 57v119h-286l-14 39
h602zM509 324q0 84 -53 122t-138 38q-98 0 -149.5 -42t-51.5 -120q0 -84 53 -122t138 -38q98 0 149.5 42t51.5 120zM509 -185q0 84 -53 122t-138 38q-98 0 -149.5 -42t-51.5 -120q0 -84 53 -122t138 -38q98 0 149.5 42t51.5 120z" />
    <glyph glyph-name="dv_TthYa" horiz-adv-x="1250" 
d="M1075 269v372h-695v-168q12 0 23.5 -1.5t22.5 -2.5h312q59 0 85 -22.5t26 -54.5t-21.5 -59.5t-70.5 -56.5q18 -61 63.5 -91t101.5 -33q63 0 107 28t46 89zM356 23q108 0 178 55t70 151q0 105 -69.5 154.5t-178.5 49.5q-108 0 -178 -55t-70 -151q0 -105 69.5 -154.5
t178.5 -49.5zM356 -18q-120 0 -209.5 58.5t-89.5 186.5q0 110 78 175t197 71v168h-329l-14 39h1256l16 -39h-138v-657l-48 16v171q-18 -31 -62.5 -46t-90.5 -15q-88 0 -149.5 56.5t-61.5 128.5l12 14q31 9 56.5 33.5t25.5 47.5q0 14 -11.5 27t-51.5 13h-199q51 -29 81.5 -79
t30.5 -122q0 -116 -85.5 -181.5t-213.5 -65.5z" />
    <glyph glyph-name="dv_DdTta" horiz-adv-x="511" 
d="M104 211q31 -20 77.5 -36t86.5 -16q66 0 97.5 26t31.5 72q0 40 -24 70t-81 30h-83q-49 0 -83.5 29.5t-34.5 75.5q0 50 34.5 79t88.5 29h128v71h-339l-14 39h517l16 -39h-132v-110h-179q-32 0 -51.5 -21.5t-19.5 -47.5q0 -28 20.5 -47t52.5 -19h71q69 0 115.5 -36
t46.5 -98q0 -33 -11.5 -61t-36.5 -47v-179h-101q-98 0 -149.5 -42t-51.5 -120q0 -84 53 -122t138 -38q39 0 82 8.5t80 35.5l7 -38q-31 -24 -75.5 -34.5t-93.5 -10.5q-93 0 -168 46.5t-75 152.5q0 100 73.5 150.5t179.5 50.5h53v116q-17 -5 -37.5 -8t-44.5 -3q-46 0 -96 15.5
t-78 32.5z" />
    <glyph glyph-name="dv_DdDda" horiz-adv-x="511" 
d="M104 211q31 -20 77.5 -36t86.5 -16q66 0 97.5 26t31.5 72q0 40 -24 70t-81 30h-83q-49 0 -83.5 29.5t-34.5 75.5q0 50 34.5 79t88.5 29h128v71h-339l-14 39h517l16 -39h-132v-110h-179q-32 0 -51.5 -21.5t-19.5 -47.5q0 -28 20.5 -47t52.5 -19h71q69 0 115.5 -36
t46.5 -98q0 -35 -13.5 -65t-42.5 -49v-122h-179q-32 0 -51.5 -21.5t-19.5 -47.5q0 -28 20.5 -47t52.5 -19h71q69 0 115.5 -36t46.5 -98q0 -60 -41 -101.5t-137 -41.5q-46 0 -96 15.5t-78 32.5l10 44q31 -20 77.5 -36t86.5 -16q66 0 97.5 26t31.5 72q0 40 -24 70t-81 30h-83
q-49 0 -83.5 29.5t-34.5 75.5q0 50 34.5 79t88.5 29h128v62q-16 -4 -34.5 -6t-39.5 -2q-46 0 -96 15.5t-78 32.5z" />
    <glyph glyph-name="dv_DdDdha" horiz-adv-x="511" 
d="M104 211q31 -20 77.5 -36t86.5 -16q66 0 97.5 26t31.5 72q0 40 -24 70t-81 30h-83q-49 0 -83.5 29.5t-34.5 75.5q0 50 34.5 79t88.5 29h128v71h-339l-14 39h517l16 -39h-132v-110h-179q-32 0 -51.5 -21.5t-19.5 -47.5q0 -28 20.5 -47t52.5 -19h71q69 0 115.5 -36
t46.5 -98q0 -32 -11 -59.5t-34 -46.5v-161h-101q-98 0 -149.5 -47t-51.5 -125q0 -84 53 -127t138 -43h5q-29 19 -42.5 51.5t-13.5 54.5q0 51 36.5 86.5t90.5 35.5q58 0 93 -34t35 -83q0 -63 -59.5 -106.5t-144.5 -43.5q-93 0 -168 51.5t-75 157.5q0 100 73.5 155.5
t179.5 55.5h53v97q-18 -6 -39 -9t-46 -3q-46 0 -96 15.5t-78 32.5zM371 -162q-40 0 -61 -24t-21 -58q0 -33 16 -57.5t43 -38.5q48 12 71.5 40.5t23.5 61.5q0 28 -17 52t-55 24z" />
    <glyph glyph-name="dv_DdYa" horiz-adv-x="1082" 
d="M907 641h-483v-125h146q59 0 85 -22.5t26 -54.5t-21.5 -59.5t-70.5 -56.5q18 -61 63.5 -91t101.5 -33q63 0 108 28t45 89v325zM79 83q36 -25 90 -43t107 -19q79 0 122.5 35t43.5 91q0 48 -34 86.5t-103 38.5h-100q-58 0 -100 33.5t-42 88.5q0 60 42 91t106 31h165v125
h-373l-14 39h1088l16 -39h-138v-657l-48 16v218q-18 -31 -62.5 -46t-90.5 -15q-88 0 -149.5 56.5t-61.5 128.5l12 14q31 9 56.5 33.5t25.5 47.5q0 14 -11.5 27t-51.5 13h-376q-39 0 -62 -26t-23 -57q0 -33 24 -58t63 -25h96q83 0 139 -41.5t56 -116.5q0 -73 -49.5 -122.5
t-165.5 -49.5q-61 0 -120.5 18t-88.5 39z" />
    <glyph glyph-name="dv_DdhDdha" horiz-adv-x="538" 
d="M308 -347h5q-29 19 -42.5 51.5t-13.5 54.5q0 51 36.5 86.5t90.5 35.5q58 0 93 -34t35 -83q0 -63 -59.5 -106.5t-144.5 -43.5q-93 0 -168 51.5t-75 157.5q0 100 73.5 155.5t179.5 55.5h53v83q-15 -4 -31 -5.5t-32 -1.5q-93 0 -168 51.5t-75 157.5q0 100 73.5 155.5
t179.5 55.5h53v111h-368l-14 39h544l16 -39h-130v-150h-101q-98 0 -149.5 -47t-51.5 -125q0 -84 53 -127t138 -43h5q-29 19 -42.5 51t-13.5 55q0 51 36.5 86.5t90.5 35.5q58 0 93 -34t35 -83q0 -40 -25.5 -73.5t-67.5 -53.5v-138h-101q-98 0 -149.5 -47t-51.5 -125
q0 -84 53 -127t138 -43zM389 334q-40 0 -61 -24t-21 -58t16 -58t43 -39q48 12 71.5 41t23.5 62q0 28 -17 52t-55 24zM389 -162q-40 0 -61 -24t-21 -58q0 -33 16 -57.5t43 -38.5q48 12 71.5 40.5t23.5 61.5q0 28 -17 52t-55 24z" />
    <glyph glyph-name="dv_DdhYa" horiz-adv-x="1156" 
d="M981 285v356h-488v-156h151q59 0 85 -22.5t26 -54.5t-21.5 -59.5t-70.5 -56.5q18 -61 63.5 -91t101.5 -33q63 0 107 28t46 89zM356 21h14q-38 20 -55.5 59.5t-17.5 67.5q0 58 42 99t103 41q67 0 107 -39.5t40 -94.5q0 -72 -68 -122t-165 -50q-115 0 -207.5 54.5
t-92.5 195.5q0 124 90.5 188.5t221.5 64.5h77v156h-442l-14 39h1162l16 -39h-138v-657l-48 16v187q-18 -31 -62.5 -46t-90.5 -15q-88 0 -149.5 56.5t-61.5 128.5l12 14q31 9 56.5 33.5t25.5 47.5q0 14 -11.5 27t-51.5 13h-280q-121 0 -190.5 -59t-69.5 -155q0 -109 69 -160
t179 -51zM447 245q-50 0 -75 -30t-25 -70q0 -42 21.5 -70.5t55.5 -44.5q55 15 84.5 49.5t29.5 72.5q0 32 -21 62.5t-70 30.5z" />
    <glyph glyph-name="dv_DGa" horiz-adv-x="564" 
d="M524 -21l-39 -22l-73 135q-21 -5 -44.5 -7t-47.5 -2q-33 0 -64.5 5.5t-59.5 16.5v-183q0 -21 -7.5 -33t-21.5 -12q-34 0 -60.5 27t-26.5 57q0 13 10 21t23 8h35v139q-41 28 -65.5 72.5t-24.5 106.5q0 92 73.5 152t199.5 60h72v121h-400l-14 39h570l16 -39h-124v-160h-113
q-105 0 -167.5 -49t-62.5 -124q0 -80 56 -131.5t156 -51.5q19 0 38 2t34 5q-8 17 -12 28t-4 18q0 21 13 29.5t28 8.5q22 0 46.5 -12.5t24.5 -34.5q0 -14 -10 -30t-29 -31z" />
    <glyph glyph-name="dv_DDa" horiz-adv-x="526" 
d="M160 310q-37 13 -58 43t-21 67q0 49 37 83t101 34h145v104h-361l-14 39h532l16 -39h-125v-143h-203q-32 0 -56 -20.5t-24 -57.5q0 -36 24 -58t56 -22h170l16 -39h-120q-69 0 -112.5 -39.5t-43.5 -98.5q0 -58 43 -97.5t143 -39.5q20 0 39.5 5t34.5 10q-8 17 -12 28t-4 19
q0 21 13 29.5t28 8.5q22 0 46.5 -12.5t24.5 -34.5q0 -14 -10 -30t-29 -31l75 -129l-39 -22l-72 135q-22 -7 -46.5 -12.5t-48.5 -5.5q-104 0 -170 45.5t-66 133.5q0 53 26 89.5t65 57.5z" />
    <glyph glyph-name="dv_DNa" horiz-adv-x="564" 
d="M524 -21l-39 -22l-73 135q-11 -3 -23.5 -5t-25.5 -3l-65 -93l9 -6q11 -7 22 -18.5t11 -26.5q0 -22 -21 -36t-47 -14q-19 0 -41 12.5t-22 28.5q0 13 10 30.5t15 24.5l68 97q-98 4 -171 59.5t-73 165.5q0 92 73.5 152t199.5 60h72v121h-400l-14 39h570l16 -39h-124v-160
h-113q-105 0 -167.5 -49t-62.5 -124q0 -80 56 -131.5t156 -51.5q19 0 38 2t34 5q-8 17 -12 28t-4 18q0 21 13 29.5t28 8.5q22 0 46.5 -12.5t24.5 -34.5q0 -14 -10 -30t-29 -31z" />
    <glyph glyph-name="dv_DBa" horiz-adv-x="564" 
d="M169 52q0 -60 42 -101.5t105 -41.5q15 0 30 3t28 8l-194 188q-5 -13 -8 -27t-3 -29zM411 92q-21 -5 -44 -7t-47 -2q-16 0 -32.5 1.5t-32.5 3.5l154 -149q17 13 29.5 29.5t18.5 34.5zM552 -84l-39 -22l-34 65q-19 -39 -65 -65.5t-97 -26.5q-82 0 -140 49.5t-58 134.5
q0 22 5 44t15 41q-37 28 -59 71t-22 101q0 92 73.5 152t199.5 60h72v121h-400l-14 39h570l16 -39h-124v-160h-113q-105 0 -167.5 -49t-62.5 -124q0 -80 56 -131.5t156 -51.5q19 0 38 1.5t33 5.5q-5 11 -10 24.5t-5 21.5q0 21 13 29.5t28 8.5q22 0 46.5 -12.5t24.5 -34.5
q0 -14 -10 -30t-29 -31z" />
    <glyph glyph-name="dv_DMa" horiz-adv-x="838" 
d="M225 254q-64 0 -103.5 38.5t-40.5 92.5q1 54 40.5 92t103.5 38h176v126h-398l-14 39h844l16 -39h-138v-657l-48 16v79h-216v-29q0 -21 -7.5 -33t-21.5 -12q-34 0 -60.5 27t-26.5 57q0 13 10 21t23 8h36v136h-175zM449 641v-165h-230q-37 0 -63.5 -26.5t-26.5 -64.5
q0 -43 26.5 -67.5t63.5 -24.5h229v-175h215v523h-214z" />
    <glyph glyph-name="dv_DYa" horiz-adv-x="751" 
d="M160 310q-37 13 -58 43t-21 67q0 49 37 83t101 34h145v104h-361l-14 39h757l16 -39h-138v-657l-48 16v150q-22 -50 -95.5 -108t-180.5 -58q-104 0 -167.5 45.5t-63.5 133.5q0 53 26 89.5t65 57.5zM412 641v-143h-203q-32 0 -56 -20.5t-24 -57.5q0 -36 24 -58t56 -22h170
l16 -39h-120q-69 0 -112.5 -39.5t-43.5 -98.5q0 -58 43 -97.5t143 -39.5q71 0 171 70t100 210v335h-164z" />
    <glyph glyph-name="dv_DVa" horiz-adv-x="564" 
d="M411 92q-21 -5 -44 -7t-47 -2q-37 0 -72.5 7t-66.5 21q-6 -13 -9 -28t-3 -31q0 -60 42 -101.5t105 -41.5q51 0 90 27.5t51 66.5zM552 -84l-39 -22l-34 65q-19 -39 -65 -65.5t-97 -26.5q-82 0 -140 49.5t-58 134.5q0 22 5 44t15 41q-37 28 -59 71t-22 101q0 92 73.5 152
t199.5 60h72v121h-400l-14 39h570l16 -39h-124v-160h-113q-105 0 -167.5 -49t-62.5 -124q0 -80 56 -131.5t156 -51.5q19 0 38 1.5t33 5.5q-5 11 -10 24.5t-5 21.5q0 21 13 29.5t28 8.5q22 0 46.5 -12.5t24.5 -34.5q0 -14 -10 -30t-29 -31z" />
    <glyph glyph-name="dv_HMa" horiz-adv-x="915" 
d="M399 313q-21 16 -51 25t-67 9q-72 0 -114 -41t-42 -101q0 -90 80 -133.5t162 -48.5l-15 -39q-106 6 -191 64t-85 157q0 41 15 76t45 60q-22 13 -38.5 38.5t-16.5 53.5q1 54 35.5 79t98.5 25h166v104h-378l-14 39h921l16 -39h-138v-657l-48 16v328h-230v-29
q0 -21 -7.5 -33t-21.5 -12q-28 0 -50.5 17.5t-31.5 41.5zM429 641v-143h-230q-32 0 -51 -19t-19 -45q0 -27 13.5 -43.5t32.5 -25.5q22 10 49 15.5t59 5.5q36 0 66.5 -7t53.5 -20q4 4 10.5 6t13.5 2h313v274h-311z" />
    <glyph glyph-name="dv_HYa" horiz-adv-x="1100" 
d="M437 236q0 50 -43.5 80.5t-112.5 30.5q-72 0 -114 -41t-42 -101q0 -90 80 -133.5t162 -48.5l-15 -39q-106 6 -191 64t-85 157q0 41 15 76t45 60q-22 13 -38.5 38.5t-16.5 53.5q1 54 35.5 79t98.5 25h166v104h-378l-14 39h1106l16 -39h-138v-657l-48 16v239
q-18 -31 -62.5 -46t-90.5 -15q-88 0 -149.5 56.5t-61.5 128.5l12 14q31 9 56.5 33.5t25.5 47.5q0 14 -11.5 27t-51.5 13h-393q-32 0 -51 -19t-19 -45q0 -27 13.5 -43.5t32.5 -25.5q22 10 49 15.5t59 5.5q94 0 145.5 -44.5t51.5 -103.5q0 -29 -13.5 -60.5t-36.5 -49.5l-29 30
q20 18 28 37t8 41zM925 337v304h-496v-104h159q59 0 85 -22.5t26 -54.5t-21.5 -59.5t-70.5 -56.5q18 -61 63.5 -91t101.5 -33q63 0 107 28t46 89z" />
    <glyph glyph-name="dv_KSsMYa" horiz-adv-x="1359" 
d="M255 652q-36 0 -61 -22.5t-25 -57.5q0 -39 26.5 -69.5t68.5 -52.5q37 29 59.5 58.5t22.5 57.5q0 29 -21.5 57.5t-69.5 28.5zM370 641q12 -15 18.5 -33t6.5 -37q0 -39 -25 -74t-62 -66q54 -22 115.5 -32.5t113.5 -10.5v253h-167zM832 377q31 9 56.5 46.5t25.5 92.5
q0 42 -17.5 77t-51.5 48h-260v-341h248q-6 15 -9.5 31t-3.5 32zM866 344q18 -61 63.5 -91t101.5 -33q64 0 108.5 29.5t44.5 94.5v297h-278q20 -13 38 -50t18 -81q0 -48 -24.5 -95t-71.5 -71zM459 -43l-39 -22l-73 135q-14 -4 -32.5 -7.5t-47.5 -3.5q-72 0 -139.5 36.5
t-67.5 126.5q0 60 48 105t117 94q-46 26 -76 63t-30 86t36 86.5t104 37.5q17 0 33 -3.5t29 -10.5h1033l16 -39h-138v-657l-48 16v239q-18 -31 -62.5 -46t-90.5 -15q-54 0 -100.5 23t-74.5 60h-272v-29q0 -21 -7.5 -33t-21.5 -12q-34 0 -60.5 27t-26.5 57q0 13 10 21t23 8h36
v49h-4q-49 0 -123.5 11.5t-141.5 39.5l-20 -15q-52 -37 -94 -75t-42 -87q0 -56 42 -90.5t113 -34.5q23 0 36.5 4t22.5 9q-8 16 -11.5 27t-3.5 18q0 21 13 29.5t28 8.5q22 0 46.5 -12.5t24.5 -34.5q0 -14 -10 -30t-29 -31z" />
    <glyph glyph-name="dv_KSPRa" horiz-adv-x="1668" 
d="M894 641q25 -31 36.5 -74t11.5 -79q0 -44 -16 -84t-45 -70h260q-2 12 -3 25.5t-1 27.5v254h-243zM1185 374q0 -69 44 -111.5t120 -42.5q63 0 103.5 35t40.5 88v298h-308v-267zM88 308q0 -69 48.5 -115.5t117.5 -46.5q62 0 98 30t52 63v138q-16 33 -52 63t-98 30
q-69 0 -117.5 -46.5t-48.5 -115.5zM452 641v-351q22 24 59.5 44.5t87.5 20.5h82q9 10 21 17t26 7q13 0 22.5 -10t14.5 -26l7 -23q50 14 85 62t35 106q0 44 -15 87t-42 66h-383zM452 221v-237l-48 16v166q-22 -24 -59.5 -42.5t-87.5 -18.5q-91 0 -156 52t-65 151t65 151
t156 52q50 0 87.5 -20.5t59.5 -44.5v195h-401l-14 39h1674l16 -39h-138v-657l-48 16v225l-284 -239l-44 28l212 165q-7 -1 -14 -1h-14q-77 0 -127.5 31.5t-71.5 89.5h-314q-13 -8 -28 -14.5t-31 -10.5l171 -274l-49 -18l-171 288h-39q-11 0 -19.5 7.5t-10.5 17.5
q0 5 0.5 10.5t1.5 10.5h-59q-62 0 -98 -31t-52 -64z" />
    </font>
</defs>
</svg>
